<?xml version="1.0" encoding="utf-8"?>
<!-- Generator: Adobe Illustrator 19.2.1, SVG Export Plug-In . SVG Version: 6.00 Build 0)  -->
<svg version="1.1" id="Layer_1" xmlns="http://www.w3.org/2000/svg" xmlns:xlink="http://www.w3.org/1999/xlink" x="0px" y="0px"
	 viewBox="0 0 540 320" style="enable-background:new 0 0 540 320;" xml:space="preserve">
<style type="text/css">
	.st0{enable-background:new    ;}
	.st1{fill:#E68223;}
	.st2{clip-path:url(#SVGID_2_);fill:#69A6B5;}
	.st3{fill:#FFFFFF;}
	.st4{fill:none;stroke:#76B200;stroke-width:0.6724;}
	.st5{fill:#004F66;}
	.st6{fill:#76B200;}
	.st7{fill:none;stroke:#FFFFFF;stroke-width:0.6657;}
	.st8{fill:#6695A3;}
	.st9{fill:none;stroke:#FFFFFF;stroke-width:0.6724;}
	.st10{fill:#1A6175;}
	.st11{fill:none;stroke:#FFFFFF;stroke-width:1.3448;}
	.st12{fill:#80A7B2;}
	.st13{fill:none;stroke:#FFFFFF;stroke-width:1.3448;stroke-linecap:round;}
	.st14{fill:none;stroke:#FFFFFF;stroke-width:0.8741;}
	.st15{clip-path:url(#SVGID_4_);fill:#FFFFFF;}
	.st16{clip-path:url(#SVGID_6_);fill:#76B200;}
	.st17{fill:none;stroke:#FFFFFF;stroke-width:0.8338;}
	.st18{fill:none;stroke:#004F66;stroke-width:0.4035;}
	.st19{clip-path:url(#SVGID_8_);fill:#FFFFFF;}
	.st20{fill:none;stroke:#004F66;stroke-width:1.291;}
	.st21{fill:none;stroke:#004F66;stroke-width:0.3922;}
	.st22{fill:#4D8494;}
	.st23{fill:none;stroke:#004F66;stroke-width:1.2549;}
	.st24{fill:none;stroke:#004F66;stroke-width:0.4101;}
	.st25{clip-path:url(#SVGID_10_);fill:#FFFFFF;}
	.st26{fill:none;stroke:#004F66;stroke-width:1.3123;}
</style>
<g>
	<g class="st0">
		<path d="M10.2,173c1.4,0,2.5,0.3,3.2,0.9c0.7,0.6,1.1,1.5,1.1,2.6c0,0.6-0.2,1.2-0.5,1.7s-0.8,0.9-1.5,1.1
			c0.7,0.2,1.2,0.6,1.5,1.1s0.5,1.2,0.5,1.9v1c0,0.4,0,0.7,0.1,0.9s0.3,0.3,0.5,0.3l0.4,0.1v1.1h-0.9c-0.7,0-1.2-0.2-1.4-0.7
			s-0.4-1-0.4-1.7v-1c0-0.7-0.2-1.3-0.6-1.7s-0.9-0.6-1.6-0.6H7.8v4.4l1.4,0.2v1.1H4.6v-1.1l1.4-0.2v-10.1l-1.4-0.2V173h1.4H10.2z
			 M7.8,178.8h2.3c1,0,1.7-0.2,2.1-0.6s0.7-0.9,0.7-1.6c0-0.7-0.2-1.2-0.6-1.6s-1.1-0.6-2-0.6H7.8V178.8z"/>
		<path d="M21.3,186c-1.3,0-2.4-0.4-3.2-1.3c-0.8-0.9-1.2-2-1.2-3.4v-0.4c0-1.4,0.4-2.5,1.2-3.4c0.8-0.9,1.8-1.3,2.9-1.3
			c1.3,0,2.2,0.4,2.9,1.2s1,1.8,1,3.1v1.1h-6.2l0,0c0,0.9,0.2,1.7,0.7,2.3c0.4,0.6,1.1,0.9,1.9,0.9c0.6,0,1.1-0.1,1.5-0.3
			c0.4-0.2,0.8-0.4,1.1-0.7l0.7,1.1c-0.3,0.3-0.8,0.6-1.3,0.8C22.8,185.9,22.1,186,21.3,186z M21,177.5c-0.6,0-1.1,0.2-1.5,0.7
			c-0.4,0.5-0.7,1.1-0.8,1.8l0,0h4.4v-0.2c0-0.7-0.2-1.2-0.5-1.7S21.8,177.5,21,177.5z"/>
		<path d="M29.7,174v2.3h1.8v1.3h-1.8v5.8c0,0.4,0.1,0.8,0.3,0.9s0.4,0.3,0.7,0.3c0.2,0,0.3,0,0.5,0c0.2,0,0.4-0.1,0.5-0.1l0.2,1.2
			c-0.2,0.1-0.4,0.2-0.7,0.3c-0.3,0.1-0.6,0.1-0.9,0.1c-0.7,0-1.3-0.2-1.7-0.6c-0.4-0.4-0.6-1.1-0.6-2v-5.8h-1.5v-1.3h1.5V174H29.7z
			"/>
		<path d="M39.4,185.8c-0.1-0.3-0.1-0.5-0.1-0.7s0-0.4-0.1-0.6c-0.3,0.4-0.8,0.8-1.3,1.1c-0.5,0.3-1,0.4-1.6,0.4
			c-1,0-1.7-0.2-2.3-0.7c-0.5-0.5-0.8-1.2-0.8-2c0-0.9,0.4-1.6,1.1-2.1c0.7-0.5,1.7-0.7,3-0.7h1.8v-1.1c0-0.6-0.2-1-0.5-1.3
			c-0.4-0.3-0.8-0.5-1.5-0.5c-0.4,0-0.8,0.1-1.1,0.2s-0.6,0.3-0.8,0.5l-0.2,1h-1.3v-1.8c0.4-0.3,1-0.6,1.6-0.8
			c0.6-0.2,1.3-0.3,2-0.3c1.1,0,2,0.3,2.6,0.8s1,1.3,1,2.4v4.6c0,0.1,0,0.2,0,0.4s0,0.2,0,0.4l0.7,0.1v1.1H39.4z M36.7,184.6
			c0.6,0,1.1-0.1,1.6-0.4s0.8-0.6,1-1v-1.6h-1.8c-0.7,0-1.3,0.2-1.7,0.5s-0.6,0.7-0.6,1.2c0,0.4,0.1,0.7,0.4,1
			C35.7,184.5,36.1,184.6,36.7,184.6z"/>
		<path d="M43.1,184.7l1.4-0.2v-6.8l-1.4-0.2v-1.1h3.2v8.2l1.4,0.2v1.1h-4.6V184.7z M46.3,173.9h-1.7v-1.8h1.7V173.9z"/>
		<path d="M48.8,173.2v-1.1H52v12.4l1.4,0.2v1.1h-4.6v-1.1l1.4-0.2v-11L48.8,173.2z"/>
		<path d="M59.1,186c-1.3,0-2.4-0.4-3.2-1.3c-0.8-0.9-1.2-2-1.2-3.4v-0.4c0-1.4,0.4-2.5,1.2-3.4c0.8-0.9,1.8-1.3,2.9-1.3
			c1.3,0,2.2,0.4,2.9,1.2s1,1.8,1,3.1v1.1h-6.2l0,0c0,0.9,0.2,1.7,0.7,2.3c0.4,0.6,1.1,0.9,1.9,0.9c0.6,0,1.1-0.1,1.5-0.3
			c0.4-0.2,0.8-0.4,1.1-0.7l0.7,1.1c-0.3,0.3-0.8,0.6-1.3,0.8C60.5,185.9,59.9,186,59.1,186z M58.8,177.5c-0.6,0-1.1,0.2-1.5,0.7
			c-0.4,0.5-0.7,1.1-0.8,1.8l0,0H61v-0.2c0-0.7-0.2-1.2-0.5-1.7S59.5,177.5,58.8,177.5z"/>
		<path d="M64.4,177.4v-1.1h3l0.2,1.4c0.3-0.5,0.6-0.9,1-1.1s0.8-0.4,1.4-0.4c0.1,0,0.3,0,0.4,0c0.1,0,0.3,0,0.3,0.1l-0.2,1.6
			l-1-0.1c-0.5,0-0.8,0.1-1.2,0.3c-0.3,0.2-0.6,0.5-0.7,0.9v5.5l1.4,0.2v1.1h-4.6v-1.1l1.4-0.2v-6.8L64.4,177.4z"/>
	</g>
	<g class="st0">
		<path d="M462.6,177h-1.2l-0.3-1.8c-0.3-0.3-0.6-0.5-1-0.7s-0.9-0.3-1.5-0.3c-1.3,0-2.4,0.5-3.1,1.4c-0.7,1-1.1,2.2-1.1,3.7v0.2
			c0,1.5,0.3,2.7,1.1,3.7c0.7,1,1.7,1.5,2.9,1.5c0.6,0,1.1-0.1,1.6-0.3s0.8-0.4,1.1-0.7l0.3-1.8h1.2v2.3c-0.4,0.5-0.9,0.9-1.7,1.3
			c-0.7,0.4-1.6,0.6-2.6,0.6c-1.7,0-3-0.6-4.1-1.8s-1.6-2.8-1.6-4.6v-0.2c0-1.9,0.5-3.4,1.6-4.7c1-1.2,2.4-1.8,4.1-1.8
			c1,0,1.8,0.2,2.6,0.6c0.7,0.4,1.3,0.8,1.7,1.3V177z"/>
		<path d="M471.3,184.4c-0.3,0.5-0.7,0.9-1.2,1.2c-0.5,0.3-1,0.4-1.6,0.4c-1,0-1.8-0.3-2.4-1s-0.9-1.7-0.9-3.1v-4.2l-1.1-0.2v-1.1
			h1.1h1.7v5.6c0,1,0.1,1.7,0.4,2.1s0.8,0.6,1.4,0.6c0.6,0,1.1-0.1,1.5-0.4c0.4-0.2,0.7-0.6,0.9-1.1v-5.5l-1.3-0.2v-1.1h1.3h1.7v8.2
			l1.1,0.2v1.1h-2.6L471.3,184.4z"/>
		<path d="M482.7,179.3h-1.3l-0.3-1.1c-0.2-0.2-0.5-0.4-0.8-0.5c-0.3-0.1-0.7-0.2-1.1-0.2c-0.6,0-1.1,0.1-1.4,0.4s-0.4,0.6-0.4,1
			c0,0.4,0.1,0.7,0.4,0.9s0.8,0.4,1.6,0.6c1.2,0.3,2.1,0.6,2.7,1c0.6,0.4,0.9,1,0.9,1.8c0,0.8-0.3,1.5-1,2c-0.7,0.5-1.6,0.8-2.7,0.8
			c-0.7,0-1.4-0.1-1.9-0.3c-0.6-0.2-1.1-0.4-1.5-0.7l0-2.2h1.3l0.3,1.3c0.2,0.2,0.5,0.3,0.8,0.4c0.3,0.1,0.7,0.1,1,0.1
			c0.6,0,1.1-0.1,1.4-0.4c0.3-0.2,0.5-0.6,0.5-1c0-0.4-0.1-0.7-0.4-0.9c-0.3-0.2-0.8-0.5-1.6-0.6c-1.2-0.3-2-0.6-2.6-1
			s-0.9-1-0.9-1.8c0-0.8,0.3-1.4,1-2c0.7-0.5,1.5-0.8,2.6-0.8c0.7,0,1.4,0.1,1.9,0.3s1.1,0.4,1.4,0.8L482.7,179.3z"/>
		<path d="M487.6,174v2.3h1.8v1.3h-1.8v5.8c0,0.4,0.1,0.8,0.3,0.9c0.2,0.2,0.4,0.3,0.7,0.3c0.2,0,0.3,0,0.5,0c0.2,0,0.3-0.1,0.5-0.1
			l0.2,1.2c-0.2,0.1-0.4,0.2-0.7,0.3c-0.3,0.1-0.6,0.1-0.9,0.1c-0.7,0-1.3-0.2-1.7-0.6c-0.4-0.4-0.6-1.1-0.6-2v-5.8h-1.5v-1.3h1.5
			V174H487.6z"/>
		<path d="M491,181c0-1.4,0.4-2.6,1.1-3.5c0.8-0.9,1.8-1.4,3.1-1.4c1.3,0,2.4,0.5,3.1,1.4c0.8,0.9,1.1,2.1,1.1,3.5v0.2
			c0,1.4-0.4,2.6-1.1,3.5s-1.8,1.4-3.1,1.4c-1.3,0-2.4-0.5-3.1-1.4c-0.8-0.9-1.1-2.1-1.1-3.5V181z M492.7,181.2c0,1,0.2,1.8,0.6,2.5
			c0.4,0.7,1.1,1,1.9,1c0.8,0,1.4-0.3,1.9-1s0.6-1.5,0.6-2.5V181c0-1-0.2-1.8-0.6-2.5s-1.1-1-1.9-1s-1.5,0.3-1.9,1s-0.6,1.5-0.6,2.5
			V181.2z"/>
		<path d="M500.7,184.7l1.4-0.2v-6.8l-1.4-0.2v-1.1h3l0.1,1.2c0.3-0.5,0.7-0.8,1.2-1s1-0.4,1.7-0.4s1.2,0.1,1.6,0.4
			c0.5,0.3,0.8,0.7,1,1.3c0.3-0.5,0.7-1,1.2-1.3s1.1-0.5,1.7-0.5c1,0,1.7,0.3,2.3,1c0.6,0.7,0.8,1.7,0.8,3v4.3l1.4,0.2v1.1h-4.6
			v-1.1l1.4-0.2v-4.3c0-0.9-0.2-1.6-0.5-2c-0.3-0.4-0.8-0.6-1.4-0.6c-0.6,0-1.1,0.2-1.5,0.6c-0.4,0.4-0.6,1-0.6,1.6v4.7l1.4,0.2v1.1
			h-4.6v-1.1l1.4-0.2v-4.3c0-0.9-0.2-1.5-0.5-2c-0.3-0.4-0.8-0.6-1.4-0.6c-0.5,0-1,0.1-1.3,0.3s-0.6,0.5-0.8,0.9v5.7l1.4,0.2v1.1
			h-4.6V184.7z"/>
		<path d="M522.3,186c-1.3,0-2.4-0.4-3.2-1.3c-0.8-0.9-1.2-2-1.2-3.4v-0.4c0-1.4,0.4-2.5,1.2-3.4c0.8-0.9,1.8-1.3,2.9-1.3
			c1.3,0,2.2,0.4,2.9,1.2c0.7,0.8,1,1.8,1,3.1v1.1h-6.2l0,0c0,0.9,0.2,1.7,0.7,2.3c0.4,0.6,1.1,0.9,1.9,0.9c0.6,0,1.1-0.1,1.5-0.3
			c0.4-0.2,0.8-0.4,1.1-0.7l0.7,1.1c-0.3,0.3-0.8,0.6-1.3,0.8C523.8,185.9,523.1,186,522.3,186z M522.1,177.5
			c-0.6,0-1.1,0.2-1.5,0.7c-0.4,0.5-0.7,1.1-0.8,1.8l0,0h4.4v-0.2c0-0.7-0.2-1.2-0.5-1.7S522.8,177.5,522.1,177.5z"/>
		<path d="M527.7,177.4v-1.1h3l0.2,1.4c0.3-0.5,0.6-0.9,1-1.1c0.4-0.3,0.8-0.4,1.4-0.4c0.1,0,0.3,0,0.4,0c0.1,0,0.3,0,0.3,0.1
			l-0.2,1.6l-1-0.1c-0.5,0-0.8,0.1-1.2,0.3c-0.3,0.2-0.6,0.5-0.7,0.9v5.5l1.4,0.2v1.1h-4.6v-1.1l1.4-0.2v-6.8L527.7,177.4z"/>
	</g>
	<path class="st1" d="M492.6,151.9l-3.4-1.6v-2.7c0.7-0.6,1.1-1.8,1.4-3.5c0.1,0,0.2,0,0.4-0.1c0.6-0.3,1-0.8,1.1-1.6
		c0-0.2,0-0.4,0-0.6c-0.1-1.2-0.4-1.7-0.9-1.6c0.2-1.2,0.2-2.2,0.2-3c-0.1-0.5-0.2-1.1-0.5-1.7c-1.1-1.9-2.8-2.9-5.3-2.9
		c-1,0-1.9,0.2-2.9,0.7c-1.9,0.9-2.8,2.2-3,3.9c-0.1,0.4,0,1.4,0.2,3c-0.1,0-0.2,0-0.3,0.1c-0.5,0.2-0.7,0.9-0.6,2.1
		c0,0.1,0,0.2,0.1,0.4c0.4,0.9,0.8,1.3,1.4,1.2c0.1,0.9,0.3,1.7,0.7,2.4l0.7,1.1v2.7l-3.5,1.6c-0.3,0.1-0.7,0.3-1.2,0.5
		c-3.2,1.2-5.1,2.2-5.5,3c-0.2,0.3-0.4,1.1-0.5,2.3v6.4H500c0.2-5,0.1-7.9-0.5-8.7c-0.2-0.2-0.4-0.5-0.8-0.8
		c-0.5-0.4-2.5-1.3-5.9-2.6l0,0l0,0C492.7,152,492.7,152,492.6,151.9L492.6,151.9L492.6,151.9z M510.9,155.5c-0.5-1-1.5-1.8-2.9-2.3
		l-0.1-0.1h-0.1l-3-1.3v-2.5l0.2-0.2c0.2-0.2,0.4-0.5,0.6-1s0.4-1.1,0.4-1.8c0.1,0,0.3-0.1,0.5-0.2c0.5-0.3,0.7-0.8,0.7-1.3
		c0-1.3-0.3-1.9-0.8-1.9c0.2-1.3,0.2-2.2,0.2-2.7c-0.1-0.4-0.2-0.9-0.3-1.3c-0.9-1.8-2.5-2.7-4.8-2.7c-0.8,0-1.6,0.2-2.3,0.5
		c-1.8,0.7-2.8,1.9-2.9,3.5c-0.1,0.5,0,1.4,0.2,2.7c-0.5,0-0.8,0.6-0.8,1.9c0,0.1,0,0.2,0.1,0.4c0.3,0.8,0.7,1.2,1.2,1.1
		c0.1,0.8,0.3,1.5,0.6,2.1l0.7,1l-0.8,0.7c3.3,1.5,5,3,5,4.4v9.8h9.6v-0.1c0.1-4.5-0.1-7.1-0.5-7.8l0,0l0,0
		C511.2,156.2,511.1,155.9,510.9,155.5L510.9,155.5L510.9,155.5z"/>
	<g>
		<g>
			<defs>
				<path id="SVGID_1_" d="M492.6,151.9l-3.4-1.6v-2.7c0.7-0.6,1.1-1.8,1.4-3.5c0.1,0,0.2,0,0.4-0.1c0.6-0.3,1-0.8,1.1-1.6
					c0-0.2,0-0.4,0-0.6c-0.1-1.2-0.4-1.7-0.9-1.6c0.2-1.2,0.2-2.2,0.2-3c-0.1-0.5-0.2-1.1-0.5-1.7c-1.1-1.9-2.8-2.9-5.3-2.9
					c-1,0-1.9,0.2-2.9,0.7c-1.9,0.9-2.8,2.2-3,3.9c-0.1,0.4,0,1.4,0.2,3c-0.1,0-0.2,0-0.3,0.1c-0.5,0.2-0.7,0.9-0.6,2.1
					c0,0.1,0,0.2,0.1,0.4c0.4,0.9,0.8,1.3,1.4,1.2c0.1,0.9,0.3,1.7,0.7,2.4l0.7,1.1v2.7l-3.5,1.6c-0.3,0.1-0.7,0.3-1.2,0.5
					c-3.2,1.2-5.1,2.2-5.5,3c-0.2,0.3-0.4,1.1-0.5,2.3v6.4H500c0.2-5,0.1-7.9-0.5-8.7c-0.2-0.2-0.4-0.5-0.8-0.8
					c-0.5-0.4-2.5-1.3-5.9-2.6l0,0l0,0C492.7,152,492.7,152,492.6,151.9L492.6,151.9L492.6,151.9z M510.9,155.5
					c-0.5-1-1.5-1.8-2.9-2.3l-0.1-0.1h-0.1l-3-1.3v-2.5l0.2-0.2c0.2-0.2,0.4-0.5,0.6-1s0.4-1.1,0.4-1.8c0.1,0,0.3-0.1,0.5-0.2
					c0.5-0.3,0.7-0.8,0.7-1.3c0-1.3-0.3-1.9-0.8-1.9c0.2-1.3,0.2-2.2,0.2-2.7c-0.1-0.4-0.2-0.9-0.3-1.3c-0.9-1.8-2.5-2.7-4.8-2.7
					c-0.8,0-1.6,0.2-2.3,0.5c-1.8,0.7-2.8,1.9-2.9,3.5c-0.1,0.5,0,1.4,0.2,2.7c-0.5,0-0.8,0.6-0.8,1.9c0,0.1,0,0.2,0.1,0.4
					c0.3,0.8,0.7,1.2,1.2,1.1c0.1,0.8,0.3,1.5,0.6,2.1l0.7,1l-0.8,0.7c3.3,1.5,5,3,5,4.4v9.8h9.6v-0.1c0.1-4.5-0.1-7.1-0.5-7.8l0,0
					l0,0C511.2,156.2,511.1,155.9,510.9,155.5L510.9,155.5L510.9,155.5z"/>
			</defs>
			<clipPath id="SVGID_2_">
				<use xlink:href="#SVGID_1_"  style="overflow:visible;"/>
			</clipPath>
			<polygon class="st2" points="492.8,132.2 493.7,148.5 500,154 501.7,169.2 525.9,168.4 527.3,132.2 			"/>
		</g>
	</g>
	<g class="st0">
		<path d="M396.5,268.8c1,0,1.8,0.3,2.3,0.8c0.5,0.5,0.8,1.2,0.8,2c0,0.8-0.3,1.5-0.8,2c-0.5,0.5-1.3,0.8-2.3,0.8h-2v2.7l1,0.2v0.8
			h-3.3v-0.8l1-0.2v-7.3l-1-0.2v-0.8h1H396.5z M394.5,273.3h2c0.6,0,1.1-0.2,1.4-0.5c0.3-0.3,0.5-0.8,0.5-1.3s-0.2-0.9-0.5-1.3
			c-0.3-0.3-0.8-0.5-1.4-0.5h-2V273.3z"/>
		<path d="M403.7,278.2c-1,0-1.7-0.3-2.3-1c-0.6-0.6-0.8-1.5-0.8-2.5v-0.3c0-1,0.3-1.8,0.9-2.4c0.6-0.6,1.3-1,2.1-1
			c0.9,0,1.6,0.3,2.1,0.8c0.5,0.6,0.7,1.3,0.7,2.2v0.8h-4.5l0,0c0,0.7,0.2,1.2,0.5,1.6c0.3,0.4,0.8,0.6,1.4,0.6
			c0.4,0,0.8-0.1,1.1-0.2c0.3-0.1,0.6-0.3,0.8-0.5l0.5,0.8c-0.2,0.2-0.6,0.4-1,0.6C404.7,278.1,404.3,278.2,403.7,278.2z M403.5,272
			c-0.4,0-0.8,0.2-1.1,0.5s-0.5,0.8-0.5,1.3l0,0h3.2v-0.2c0-0.5-0.1-0.9-0.4-1.2C404.4,272.2,404,272,403.5,272z"/>
		<path d="M407.5,272v-0.8h2.2l0.1,1c0.2-0.4,0.4-0.6,0.7-0.8c0.3-0.2,0.6-0.3,1-0.3c0.1,0,0.2,0,0.3,0c0.1,0,0.2,0,0.2,0l-0.2,1.2
			l-0.7,0c-0.3,0-0.6,0.1-0.8,0.2s-0.4,0.4-0.5,0.7v3.9l1,0.2v0.8h-3.3v-0.8l1-0.2v-4.9L407.5,272z"/>
		<path d="M418.2,273.3h-0.9l-0.2-0.8c-0.2-0.1-0.3-0.3-0.6-0.3s-0.5-0.1-0.8-0.1c-0.4,0-0.8,0.1-1,0.3c-0.2,0.2-0.3,0.4-0.3,0.7
			c0,0.3,0.1,0.5,0.3,0.6c0.2,0.2,0.6,0.3,1.2,0.4c0.9,0.2,1.5,0.4,1.9,0.8c0.4,0.3,0.6,0.7,0.6,1.3c0,0.6-0.2,1.1-0.7,1.5
			s-1.1,0.6-1.9,0.6c-0.5,0-1-0.1-1.4-0.2c-0.4-0.1-0.8-0.3-1.1-0.5l0-1.6h0.9l0.2,0.9c0.1,0.1,0.3,0.2,0.6,0.3
			c0.2,0.1,0.5,0.1,0.8,0.1c0.4,0,0.8-0.1,1-0.3c0.3-0.2,0.4-0.4,0.4-0.7c0-0.3-0.1-0.5-0.3-0.7c-0.2-0.2-0.6-0.3-1.2-0.5
			c-0.8-0.2-1.5-0.4-1.9-0.7s-0.6-0.7-0.6-1.3c0-0.6,0.2-1,0.7-1.4c0.5-0.4,1.1-0.6,1.9-0.6c0.5,0,1,0.1,1.4,0.2s0.8,0.3,1,0.6
			L418.2,273.3z"/>
		<path d="M419.6,274.5c0-1,0.3-1.9,0.8-2.5s1.3-1,2.2-1c0.9,0,1.7,0.3,2.3,1c0.6,0.7,0.8,1.5,0.8,2.5v0.1c0,1-0.3,1.9-0.8,2.5
			c-0.6,0.7-1.3,1-2.2,1c-1,0-1.7-0.3-2.3-1c-0.6-0.7-0.8-1.5-0.8-2.5V274.5z M420.8,274.7c0,0.7,0.2,1.3,0.5,1.8
			c0.3,0.5,0.8,0.7,1.4,0.7c0.6,0,1-0.2,1.4-0.7c0.3-0.5,0.5-1.1,0.5-1.8v-0.1c0-0.7-0.2-1.3-0.5-1.8s-0.8-0.7-1.4-0.7
			c-0.6,0-1.1,0.2-1.4,0.7s-0.5,1.1-0.5,1.8V274.7z"/>
		<path d="M426.7,277.2l1-0.2v-4.9l-1-0.2v-0.8h2.2l0.1,1c0.2-0.4,0.5-0.6,0.9-0.8c0.3-0.2,0.7-0.3,1.2-0.3c0.7,0,1.3,0.2,1.7,0.7
			s0.6,1.1,0.6,2v3.4l1,0.2v0.8H431v-0.8l1-0.2v-3.3c0-0.6-0.1-1-0.4-1.3c-0.2-0.3-0.6-0.4-1.1-0.4c-0.4,0-0.7,0.1-1,0.3
			c-0.3,0.2-0.5,0.4-0.7,0.7v4l1,0.2v0.8h-3.3V277.2z"/>
		<path d="M439.7,278c0-0.2-0.1-0.4-0.1-0.5c0-0.1,0-0.3,0-0.4c-0.2,0.3-0.5,0.6-0.9,0.8s-0.7,0.3-1.2,0.3c-0.7,0-1.3-0.2-1.6-0.5
			c-0.4-0.3-0.6-0.8-0.6-1.5c0-0.7,0.3-1.2,0.8-1.5c0.5-0.4,1.2-0.5,2.2-0.5h1.3v-0.8c0-0.4-0.1-0.7-0.4-1c-0.3-0.2-0.6-0.4-1.1-0.4
			c-0.3,0-0.6,0-0.8,0.1c-0.2,0.1-0.4,0.2-0.6,0.3l-0.1,0.7h-1v-1.3c0.3-0.2,0.7-0.4,1.1-0.6c0.4-0.2,0.9-0.2,1.4-0.2
			c0.8,0,1.4,0.2,1.9,0.6s0.7,1,0.7,1.7v3.3c0,0.1,0,0.2,0,0.3c0,0.1,0,0.2,0,0.3l0.5,0.1v0.8H439.7z M437.7,277.1
			c0.4,0,0.8-0.1,1.1-0.3c0.3-0.2,0.6-0.4,0.7-0.7V275h-1.3c-0.5,0-0.9,0.1-1.2,0.4s-0.4,0.5-0.4,0.9c0,0.3,0.1,0.5,0.3,0.7
			C437,277,437.3,277.1,437.7,277.1z"/>
		<path d="M442.2,268.9v-0.8h2.3v8.9l1,0.2v0.8h-3.3v-0.8l1-0.2v-7.9L442.2,268.9z"/>
		<path d="M446.5,277.2l1-0.2v-4.9l-1-0.2v-0.8h2.3v5.9l1,0.2v0.8h-3.3V277.2z M448.7,269.4h-1.2v-1.3h1.2V269.4z"/>
		<path d="M456,273.3H455l-0.2-0.8c-0.2-0.1-0.3-0.3-0.6-0.3c-0.2-0.1-0.5-0.1-0.8-0.1c-0.4,0-0.8,0.1-1,0.3
			c-0.2,0.2-0.3,0.4-0.3,0.7c0,0.3,0.1,0.5,0.3,0.6c0.2,0.2,0.6,0.3,1.2,0.4c0.9,0.2,1.5,0.4,1.9,0.8s0.6,0.7,0.6,1.3
			c0,0.6-0.2,1.1-0.7,1.5c-0.5,0.4-1.1,0.6-1.9,0.6c-0.5,0-1-0.1-1.4-0.2c-0.4-0.1-0.8-0.3-1.1-0.5l0-1.6h0.9l0.2,0.9
			c0.1,0.1,0.3,0.2,0.6,0.3c0.2,0.1,0.5,0.1,0.8,0.1c0.4,0,0.8-0.1,1-0.3s0.4-0.4,0.4-0.7c0-0.3-0.1-0.5-0.3-0.7
			c-0.2-0.2-0.6-0.3-1.2-0.5c-0.8-0.2-1.5-0.4-1.9-0.7c-0.4-0.3-0.6-0.7-0.6-1.3c0-0.6,0.2-1,0.7-1.4c0.5-0.4,1.1-0.6,1.9-0.6
			c0.5,0,1,0.1,1.4,0.2c0.4,0.1,0.8,0.3,1,0.6L456,273.3z"/>
		<path d="M460.5,278.2c-1,0-1.7-0.3-2.3-1c-0.6-0.6-0.8-1.5-0.8-2.5v-0.3c0-1,0.3-1.8,0.9-2.4c0.6-0.6,1.3-1,2.1-1
			c0.9,0,1.6,0.3,2.1,0.8c0.5,0.6,0.7,1.3,0.7,2.2v0.8h-4.5l0,0c0,0.7,0.2,1.2,0.5,1.6c0.3,0.4,0.8,0.6,1.4,0.6
			c0.4,0,0.8-0.1,1.1-0.2c0.3-0.1,0.6-0.3,0.8-0.5l0.5,0.8c-0.2,0.2-0.6,0.4-1,0.6S461.1,278.2,460.5,278.2z M460.3,272
			c-0.4,0-0.8,0.2-1.1,0.5c-0.3,0.4-0.5,0.8-0.5,1.3l0,0h3.2v-0.2c0-0.5-0.1-0.9-0.4-1.2S460.8,272,460.3,272z"/>
		<path d="M469,277.2c-0.2,0.3-0.5,0.5-0.8,0.7c-0.3,0.2-0.7,0.2-1.1,0.2c-0.8,0-1.5-0.3-2-0.9s-0.7-1.4-0.7-2.4v-0.1
			c0-1.1,0.2-2,0.7-2.7s1.1-1,2-1c0.4,0,0.8,0.1,1.1,0.2c0.3,0.2,0.6,0.4,0.8,0.7v-2.8l-1-0.2v-0.8h1h1.3v8.9l1,0.2v0.8h-2.1
			L469,277.2z M465.6,274.8c0,0.7,0.1,1.2,0.4,1.7s0.7,0.6,1.3,0.6c0.4,0,0.7-0.1,0.9-0.3c0.3-0.2,0.5-0.4,0.6-0.7V273
			c-0.2-0.3-0.4-0.5-0.6-0.7c-0.3-0.2-0.6-0.3-0.9-0.3c-0.6,0-1,0.2-1.3,0.7c-0.3,0.5-0.4,1.1-0.4,1.9V274.8z"/>
		<path d="M475.4,274.5c0-1,0.3-1.9,0.8-2.5s1.3-1,2.2-1c0.9,0,1.7,0.3,2.3,1c0.6,0.7,0.8,1.5,0.8,2.5v0.1c0,1-0.3,1.9-0.8,2.5
			c-0.6,0.7-1.3,1-2.2,1c-1,0-1.7-0.3-2.3-1c-0.6-0.7-0.8-1.5-0.8-2.5V274.5z M476.6,274.7c0,0.7,0.2,1.3,0.5,1.8
			c0.3,0.5,0.8,0.7,1.4,0.7c0.6,0,1-0.2,1.4-0.7c0.3-0.5,0.5-1.1,0.5-1.8v-0.1c0-0.7-0.2-1.3-0.5-1.8s-0.8-0.7-1.4-0.7
			c-0.6,0-1.1,0.2-1.4,0.7s-0.5,1.1-0.5,1.8V274.7z"/>
		<path d="M482.6,272.1v-0.9h1.1v-0.9c0-0.7,0.2-1.3,0.6-1.7c0.4-0.4,0.9-0.6,1.6-0.6c0.1,0,0.3,0,0.4,0c0.1,0,0.3,0.1,0.5,0.1
			l-0.2,1c-0.1,0-0.2,0-0.3,0c-0.1,0-0.2,0-0.3,0c-0.4,0-0.6,0.1-0.8,0.3s-0.3,0.5-0.3,0.9v0.9h1.4v0.9h-1.4v5l1,0.2v0.8h-3.3v-0.8
			l1-0.2v-5H482.6z"/>
		<path d="M487.2,272.1v-0.9h1.1v-0.9c0-0.7,0.2-1.3,0.6-1.7c0.4-0.4,0.9-0.6,1.6-0.6c0.1,0,0.3,0,0.4,0c0.1,0,0.3,0.1,0.5,0.1
			l-0.2,1c-0.1,0-0.2,0-0.3,0c-0.1,0-0.2,0-0.3,0c-0.4,0-0.6,0.1-0.8,0.3s-0.3,0.5-0.3,0.9v0.9h1.4v0.9h-1.4v5l1,0.2v0.8h-3.3v-0.8
			l1-0.2v-5H487.2z"/>
	</g>
	<g class="st0">
		<path d="M494.9,278.2c-1,0-1.7-0.3-2.3-1c-0.6-0.6-0.8-1.5-0.8-2.5v-0.3c0-1,0.3-1.8,0.9-2.4c0.6-0.6,1.3-1,2.1-1
			c0.9,0,1.6,0.3,2.1,0.8c0.5,0.6,0.7,1.3,0.7,2.2v0.8h-4.5l0,0c0,0.7,0.2,1.2,0.5,1.6c0.3,0.4,0.8,0.6,1.4,0.6
			c0.4,0,0.8-0.1,1.1-0.2c0.3-0.1,0.6-0.3,0.8-0.5l0.5,0.8c-0.2,0.2-0.6,0.4-1,0.6C495.9,278.1,495.5,278.2,494.9,278.2z M494.7,272
			c-0.4,0-0.8,0.2-1.1,0.5s-0.5,0.8-0.5,1.3l0,0h3.2v-0.2c0-0.5-0.1-0.9-0.4-1.2C495.6,272.2,495.2,272,494.7,272z"/>
		<path d="M498.7,272v-0.8h2.2l0.1,1c0.2-0.4,0.4-0.6,0.7-0.8c0.3-0.2,0.6-0.3,1-0.3c0.1,0,0.2,0,0.3,0c0.1,0,0.2,0,0.2,0l-0.2,1.2
			l-0.7,0c-0.3,0-0.6,0.1-0.8,0.2s-0.4,0.4-0.5,0.7v3.9l1,0.2v0.8h-3.3v-0.8l1-0.2v-4.9L498.7,272z"/>
		<path d="M509.4,273.3h-0.9l-0.2-0.8c-0.2-0.1-0.3-0.3-0.6-0.3s-0.5-0.1-0.8-0.1c-0.4,0-0.8,0.1-1,0.3c-0.2,0.2-0.3,0.4-0.3,0.7
			c0,0.3,0.1,0.5,0.3,0.6c0.2,0.2,0.6,0.3,1.2,0.4c0.9,0.2,1.5,0.4,1.9,0.8c0.4,0.3,0.6,0.7,0.6,1.3c0,0.6-0.2,1.1-0.7,1.5
			s-1.1,0.6-1.9,0.6c-0.5,0-1-0.1-1.4-0.2c-0.4-0.1-0.8-0.3-1.1-0.5l0-1.6h0.9l0.2,0.9c0.1,0.1,0.3,0.2,0.6,0.3
			c0.2,0.1,0.5,0.1,0.8,0.1c0.4,0,0.8-0.1,1-0.3c0.3-0.2,0.4-0.4,0.4-0.7c0-0.3-0.1-0.5-0.3-0.7c-0.2-0.2-0.6-0.3-1.2-0.5
			c-0.8-0.2-1.5-0.4-1.9-0.7s-0.6-0.7-0.6-1.3c0-0.6,0.2-1,0.7-1.4c0.5-0.4,1.1-0.6,1.9-0.6c0.5,0,1,0.1,1.4,0.2s0.8,0.3,1,0.6
			L509.4,273.3z"/>
	</g>
	<path class="st3" d="M94,96.1c-17.5,0.2-35,7-48.4,20.4l7.1,7.1H29.4v-23.4l7.1,7.1c15.7-15.8,36.2-23.8,56.8-24.2
		C115,82.7,112.1,95.9,94,96.1L94,96.1z"/>
	<path class="st4" d="M94,96.1c-17.5,0.2-35,7-48.4,20.4l7.1,7.1H29.4v-23.4l7.1,7.1c15.7-15.8,36.2-23.8,56.8-24.2
		C115,82.7,112.1,95.9,94,96.1L94,96.1z"/>
	<path class="st5" d="M271.1,315.7c85.8,0,155.3-69.5,155.3-155.3C426.4,74.6,356.9,5,271.1,5S115.8,74.6,115.8,160.3
		C115.7,246.1,185.3,315.7,271.1,315.7L271.1,315.7z"/>
	<path class="st6" d="M153.3,107.4l-9.2,9.2c-13.8-13.9-32-20.7-50.2-20.4c-17.5,0.2-21.3-12.6-0.7-13
		C115,82.7,136.8,90.8,153.3,107.4L153.3,107.4z"/>
	<path class="st7" d="M153.3,107.4l-9.2,9.2c-13.8-13.9-32-20.7-50.2-20.4c-17.5,0.2-21.3-12.6-0.7-13
		C115,82.7,136.8,90.8,153.3,107.4L153.3,107.4z"/>
	<path class="st8" d="M35.4,209.7l9.2-9.2c27.2,27.3,71.4,27.3,98.5,0l-7.1-7.1h23.3v23.4l-7.1-7.1C120,242.1,67.6,242.1,35.4,209.7
		L35.4,209.7z"/>
	<path class="st9" d="M35.4,209.7l9.2-9.2c27.2,27.3,71.4,27.3,98.5,0l-7.1-7.1h23.3v23.4l-7.1-7.1C120,242.1,67.6,242.1,35.4,209.7
		L35.4,209.7z"/>
	<path class="st6" d="M313.5,193.9l-6.6-6.6c-19.5,19.5-51.1,19.5-70.6,0l5.1-5.1h-16.7V199l5.1-5.1
		C252.9,217,290.4,217,313.5,193.9L313.5,193.9z"/>
	<path class="st7" d="M313.5,193.9l-6.6-6.6c-19.5,19.5-51.1,19.5-70.6,0l5.1-5.1h-16.7V199l5.1-5.1
		C252.9,217,290.4,217,313.5,193.9L313.5,193.9z"/>
	<path class="st5" d="M507.4,108.1l-9.2,9.2c-27.2-27.3-71.4-27.3-98.5,0l7.1,7.1h-23.3V101l7.1,7.1
		C422.7,75.7,475.1,75.7,507.4,108.1L507.4,108.1z"/>
	<path class="st9" d="M507.4,108.1l-9.2,9.2c-27.2-27.3-71.4-27.3-98.5,0l7.1,7.1h-23.3V101l7.1,7.1
		C422.7,75.7,475.1,75.7,507.4,108.1L507.4,108.1z"/>
	<g class="st0">
		<path class="st3" d="M251.1,26.8c1.5,0,2.7,0.3,3.5,1s1.3,1.6,1.3,2.9c0,0.6-0.2,1.2-0.6,1.7c-0.4,0.5-0.9,0.9-1.6,1.1
			c0.9,0.2,1.5,0.6,2,1.3c0.5,0.7,0.7,1.4,0.7,2.3c0,1.3-0.4,2.3-1.3,3c-0.9,0.7-2,1-3.5,1h-6.9v-1.2l1.6-0.3V28.3l-1.6-0.3v-1.3
			h1.6H251.1z M248.3,32.9h3.2c0.7,0,1.3-0.2,1.7-0.6c0.4-0.4,0.6-0.9,0.6-1.6c0-0.8-0.2-1.4-0.7-1.7c-0.5-0.4-1.2-0.6-2.1-0.6h-2.7
			V32.9z M248.3,34.4v5.2h3.3c0.9,0,1.6-0.2,2.1-0.7s0.7-1.1,0.7-1.9c0-0.8-0.2-1.5-0.6-2c-0.4-0.5-1-0.7-1.9-0.7H248.3z"/>
		<path class="st3" d="M265.1,41.2c-0.1-0.3-0.1-0.5-0.1-0.8c0-0.2-0.1-0.5-0.1-0.7c-0.4,0.5-0.8,0.9-1.4,1.2s-1.2,0.5-1.8,0.5
			c-1.1,0-2-0.3-2.5-0.8c-0.6-0.5-0.9-1.3-0.9-2.3c0-1,0.4-1.8,1.2-2.3c0.8-0.5,1.9-0.8,3.4-0.8h2v-1.2c0-0.6-0.2-1.1-0.6-1.5
			s-0.9-0.5-1.6-0.5c-0.5,0-0.9,0.1-1.3,0.2c-0.4,0.1-0.7,0.3-0.9,0.5l-0.2,1.1h-1.5v-2.1c0.5-0.4,1.1-0.7,1.8-0.9s1.4-0.3,2.2-0.3
			c1.2,0,2.2,0.3,2.9,0.9s1.1,1.5,1.1,2.6V39c0,0.1,0,0.3,0,0.4c0,0.1,0,0.3,0,0.4l0.8,0.1v1.2H265.1z M262,39.7
			c0.6,0,1.2-0.2,1.8-0.5c0.5-0.3,0.9-0.7,1.1-1.1v-1.8h-2.1c-0.8,0-1.4,0.2-1.9,0.6c-0.5,0.4-0.7,0.8-0.7,1.3
			c0,0.5,0.1,0.8,0.4,1.1C261,39.6,261.4,39.7,262,39.7z"/>
		<path class="st3" d="M269,39.9l1.6-0.3V32l-1.6-0.3v-1.3h3.3l0.1,1.6c0.4-0.6,0.8-1,1.3-1.3c0.5-0.3,1.1-0.5,1.8-0.5
			c1.1,0,2,0.3,2.7,1s0.9,1.7,0.9,3.1v5.2l1.6,0.3v1.2h-5.2v-1.2l1.6-0.3v-5.2c0-0.9-0.2-1.6-0.6-2c-0.4-0.4-0.9-0.6-1.7-0.6
			c-0.6,0-1.1,0.1-1.5,0.4c-0.4,0.3-0.8,0.6-1,1.1v6.3l1.6,0.3v1.2H269V39.9z"/>
		<path class="st3" d="M282,27v-1.3h3.5v8.9h1.2l2.3-2.8l-1-0.1v-1.3h4.5v1.3l-1.3,0.3l-2.8,3.3l3.4,4.3l1.2,0.2v1.2h-4.4v-1.2
			l1-0.1l-2.8-3.5h-1.3v3.4l1.6,0.3v1.2H282v-1.2l1.6-0.3V27.3L282,27z"/>
	</g>
	<g class="st0">
		<path class="st6" d="M243.8,154.2L243.8,154.2l-3.8,9.2h-1l-3.7-9.2l0,0l0.2,4.6v3.3l1.3,0.2v1h-4.1v-1l1.3-0.2v-9l-1.3-0.2v-1
			h1.3h2l3.7,9.3h0l3.6-9.3h3.3v1l-1.3,0.2v9l1.3,0.2v1h-4.1v-1l1.3-0.2v-3.3L243.8,154.2z"/>
		<path class="st6" d="M253.3,163.4c0-0.2-0.1-0.4-0.1-0.6c0-0.2,0-0.4-0.1-0.6c-0.3,0.4-0.7,0.7-1.1,1s-0.9,0.4-1.4,0.4
			c-0.9,0-1.6-0.2-2-0.6c-0.5-0.4-0.7-1-0.7-1.8c0-0.8,0.3-1.4,1-1.9c0.7-0.4,1.6-0.7,2.7-0.7h1.6v-1c0-0.5-0.2-0.9-0.5-1.2
			c-0.3-0.3-0.8-0.4-1.3-0.4c-0.4,0-0.7,0-1,0.1s-0.5,0.2-0.7,0.4l-0.2,0.9h-1.2v-1.7c0.4-0.3,0.9-0.6,1.4-0.7
			c0.6-0.2,1.2-0.3,1.8-0.3c1,0,1.7,0.2,2.3,0.7c0.6,0.5,0.9,1.2,0.9,2.1v4.1c0,0.1,0,0.2,0,0.3c0,0.1,0,0.2,0,0.3l0.6,0.1v1H253.3z
			 M250.8,162.3c0.5,0,1-0.1,1.4-0.4c0.4-0.2,0.7-0.5,0.9-0.9v-1.4h-1.7c-0.6,0-1.1,0.1-1.5,0.4c-0.4,0.3-0.6,0.7-0.6,1.1
			c0,0.4,0.1,0.7,0.3,0.9C250,162.2,250.3,162.3,250.8,162.3z"/>
		<path class="st6" d="M259.4,152.8v2.1h1.6v1.2h-1.6v5.2c0,0.4,0.1,0.7,0.2,0.8s0.4,0.2,0.7,0.2c0.1,0,0.3,0,0.5,0
			c0.2,0,0.3,0,0.4-0.1l0.2,1.1c-0.1,0.1-0.4,0.2-0.6,0.2c-0.3,0.1-0.6,0.1-0.9,0.1c-0.6,0-1.1-0.2-1.5-0.6c-0.4-0.4-0.6-1-0.6-1.8
			v-5.2h-1.3v-1.2h1.3v-2.1H259.4z"/>
		<path class="st6" d="M266.4,162.4c0.5,0,1-0.2,1.4-0.5c0.4-0.3,0.6-0.7,0.6-1.2h1.4l0,0c0,0.7-0.3,1.4-1,2s-1.5,0.9-2.4,0.9
			c-1.2,0-2.2-0.4-2.8-1.2c-0.7-0.8-1-1.8-1-3.1V159c0-1.2,0.3-2.2,1-3c0.7-0.8,1.6-1.2,2.8-1.2c0.7,0,1.3,0.1,1.8,0.3
			c0.5,0.2,1,0.5,1.4,0.9l0.1,1.9h-1.2l-0.3-1.3c-0.2-0.2-0.4-0.3-0.7-0.4c-0.3-0.1-0.6-0.2-1-0.2c-0.8,0-1.4,0.3-1.7,0.9
			c-0.3,0.6-0.5,1.3-0.5,2.2v0.3c0,0.9,0.2,1.6,0.5,2.2C265,162.1,265.6,162.4,266.4,162.4z"/>
		<path class="st6" d="M271,162.4l1.3-0.2v-9.9l-1.3-0.2v-1h2.8v4.9c0.3-0.4,0.7-0.7,1.1-1s0.9-0.3,1.4-0.3c0.9,0,1.6,0.3,2.1,0.8
			c0.5,0.5,0.8,1.4,0.8,2.5v4.1l1.3,0.2v1h-4.1v-1l1.3-0.2v-4.1c0-0.7-0.2-1.2-0.5-1.6c-0.3-0.3-0.8-0.5-1.4-0.5
			c-0.4,0-0.8,0.1-1.2,0.3s-0.6,0.5-0.9,0.8v5.1l1.3,0.2v1H271V162.4z"/>
		<path class="st6" d="M281.7,162.4l1.3-0.2v-6.1l-1.3-0.2v-1h2.8v7.3l1.3,0.2v1h-4.1V162.4z M284.5,152.7H283v-1.6h1.6V152.7z"/>
		<path class="st6" d="M286.7,162.4l1.3-0.2v-6.1l-1.3-0.2v-1h2.7l0.1,1.3c0.3-0.5,0.6-0.8,1.1-1.1c0.4-0.2,0.9-0.4,1.5-0.4
			c0.9,0,1.6,0.3,2.1,0.8c0.5,0.5,0.8,1.4,0.8,2.5v4.2l1.3,0.2v1h-4.1v-1l1.3-0.2v-4.1c0-0.8-0.1-1.3-0.4-1.6s-0.8-0.5-1.4-0.5
			c-0.4,0-0.8,0.1-1.2,0.3c-0.3,0.2-0.6,0.5-0.8,0.9v5l1.3,0.2v1h-4.1V162.4z"/>
	</g>
	<g class="st0">
		<path class="st6" d="M297.3,159.3c0-1.4,0.3-2.5,0.9-3.3c0.6-0.8,1.4-1.3,2.5-1.3c0.5,0,1,0.1,1.4,0.3s0.7,0.5,1,0.9l0.1-1.1h1.3
			v8.4c0,1.1-0.3,2-0.9,2.6c-0.6,0.6-1.5,0.9-2.6,0.9c-0.4,0-0.9-0.1-1.3-0.2c-0.5-0.1-0.9-0.3-1.3-0.5l0.4-1.2
			c0.3,0.2,0.6,0.3,1,0.4c0.4,0.1,0.8,0.2,1.2,0.2c0.7,0,1.2-0.2,1.5-0.6c0.3-0.4,0.5-0.9,0.5-1.7v-0.8c-0.3,0.4-0.6,0.6-1,0.8
			c-0.4,0.2-0.8,0.3-1.3,0.3c-1,0-1.9-0.4-2.5-1.1c-0.6-0.8-0.9-1.7-0.9-3V159.3z M298.8,159.5c0,0.9,0.2,1.5,0.5,2.1
			c0.4,0.5,0.9,0.8,1.7,0.8c0.5,0,0.9-0.1,1.2-0.3c0.3-0.2,0.6-0.5,0.8-0.9v-3.9c-0.2-0.4-0.5-0.6-0.8-0.9c-0.3-0.2-0.7-0.3-1.2-0.3
			c-0.7,0-1.3,0.3-1.7,0.9c-0.4,0.6-0.6,1.4-0.6,2.4V159.5z"/>
	</g>
	<g class="st0">
		<path class="st3" d="M318.9,205.5v2h-1.1l-0.1-1.1h-2.1v7.3l1,0.2v0.8h-3.3v-0.8l1-0.2v-7.3h-2.1l-0.1,1.1h-1.1v-2H318.9z"/>
		<path class="st3" d="M319.2,208.7v-0.8h2.2l0.1,1c0.2-0.4,0.4-0.6,0.7-0.8c0.3-0.2,0.6-0.3,1-0.3c0.1,0,0.2,0,0.3,0
			c0.1,0,0.2,0,0.2,0l-0.2,1.2l-0.7,0c-0.3,0-0.6,0.1-0.8,0.2s-0.4,0.4-0.5,0.7v3.9l1,0.2v0.8h-3.3v-0.8l1-0.2v-4.9L319.2,208.7z"/>
	</g>
	<g class="st0">
		<path class="st3" d="M329.1,214.7c0-0.2-0.1-0.4-0.1-0.5c0-0.1,0-0.3,0-0.4c-0.2,0.3-0.5,0.6-0.9,0.8c-0.4,0.2-0.7,0.3-1.2,0.3
			c-0.7,0-1.3-0.2-1.6-0.5c-0.4-0.3-0.6-0.8-0.6-1.5c0-0.7,0.3-1.2,0.8-1.5c0.5-0.4,1.2-0.5,2.2-0.5h1.3V210c0-0.4-0.1-0.7-0.4-1
			s-0.6-0.4-1.1-0.4c-0.3,0-0.6,0-0.8,0.1s-0.4,0.2-0.6,0.3l-0.1,0.7h-1v-1.3c0.3-0.2,0.7-0.4,1.1-0.6s0.9-0.2,1.4-0.2
			c0.8,0,1.4,0.2,1.9,0.6c0.5,0.4,0.7,1,0.7,1.7v3.3c0,0.1,0,0.2,0,0.3s0,0.2,0,0.3l0.5,0.1v0.8H329.1z M327.1,213.8
			c0.4,0,0.8-0.1,1.1-0.3c0.3-0.2,0.6-0.4,0.7-0.7v-1.1h-1.3c-0.5,0-0.9,0.1-1.2,0.4c-0.3,0.2-0.4,0.5-0.4,0.9
			c0,0.3,0.1,0.5,0.3,0.7C326.4,213.7,326.7,213.8,327.1,213.8z"/>
		<path class="st3" d="M331.6,213.9l1-0.2v-4.9l-1-0.2v-0.8h2.2l0.1,1c0.2-0.4,0.5-0.6,0.9-0.8s0.7-0.3,1.2-0.3
			c0.7,0,1.3,0.2,1.7,0.7s0.6,1.1,0.6,2v3.4l1,0.2v0.8h-3.3v-0.8l1-0.2v-3.3c0-0.6-0.1-1-0.4-1.3s-0.6-0.4-1.1-0.4
			c-0.4,0-0.7,0.1-1,0.3c-0.3,0.2-0.5,0.4-0.7,0.7v4l1,0.2v0.8h-3.3V213.9z"/>
		<path class="st3" d="M345.4,210h-0.9l-0.2-0.8c-0.2-0.1-0.3-0.3-0.6-0.3c-0.2-0.1-0.5-0.1-0.8-0.1c-0.4,0-0.8,0.1-1,0.3
			c-0.2,0.2-0.3,0.4-0.3,0.7c0,0.3,0.1,0.5,0.3,0.6c0.2,0.2,0.6,0.3,1.2,0.4c0.9,0.2,1.5,0.4,1.9,0.8c0.4,0.3,0.6,0.7,0.6,1.3
			c0,0.6-0.2,1.1-0.7,1.5c-0.5,0.4-1.1,0.6-1.9,0.6c-0.5,0-1-0.1-1.4-0.2c-0.4-0.1-0.8-0.3-1.1-0.5l0-1.6h0.9l0.2,0.9
			c0.1,0.1,0.3,0.2,0.6,0.3c0.2,0.1,0.5,0.1,0.8,0.1c0.4,0,0.8-0.1,1-0.3s0.4-0.4,0.4-0.7c0-0.3-0.1-0.5-0.3-0.7
			c-0.2-0.2-0.6-0.3-1.2-0.5c-0.8-0.2-1.5-0.4-1.9-0.7c-0.4-0.3-0.6-0.7-0.6-1.3c0-0.6,0.2-1,0.7-1.4c0.5-0.4,1.1-0.6,1.9-0.6
			c0.5,0,1,0.1,1.4,0.2c0.4,0.1,0.8,0.3,1,0.6L345.4,210z"/>
		<path class="st3" d="M351.3,214.7c0-0.2-0.1-0.4-0.1-0.5c0-0.1,0-0.3,0-0.4c-0.2,0.3-0.5,0.6-0.9,0.8c-0.4,0.2-0.7,0.3-1.2,0.3
			c-0.7,0-1.3-0.2-1.6-0.5c-0.4-0.3-0.6-0.8-0.6-1.5c0-0.7,0.3-1.2,0.8-1.5c0.5-0.4,1.2-0.5,2.2-0.5h1.3V210c0-0.4-0.1-0.7-0.4-1
			s-0.6-0.4-1.1-0.4c-0.3,0-0.6,0-0.8,0.1c-0.2,0.1-0.4,0.2-0.6,0.3l-0.1,0.7h-1v-1.3c0.3-0.2,0.7-0.4,1.1-0.6s0.9-0.2,1.4-0.2
			c0.8,0,1.4,0.2,1.9,0.6c0.5,0.4,0.7,1,0.7,1.7v3.3c0,0.1,0,0.2,0,0.3c0,0.1,0,0.2,0,0.3l0.5,0.1v0.8H351.3z M349.2,213.8
			c0.4,0,0.8-0.1,1.1-0.3c0.3-0.2,0.6-0.4,0.7-0.7v-1.1h-1.3c-0.5,0-0.9,0.1-1.2,0.4c-0.3,0.2-0.4,0.5-0.4,0.9
			c0,0.3,0.1,0.5,0.3,0.7C348.6,213.7,348.9,213.8,349.2,213.8z"/>
		<path class="st3" d="M357,213.9c0.4,0,0.8-0.1,1.1-0.4c0.3-0.3,0.5-0.6,0.5-0.9h1.1l0,0c0,0.6-0.2,1.1-0.8,1.6
			c-0.5,0.5-1.2,0.7-1.9,0.7c-1,0-1.8-0.3-2.3-1c-0.5-0.7-0.8-1.5-0.8-2.5v-0.3c0-1,0.3-1.8,0.8-2.4c0.5-0.7,1.3-1,2.3-1
			c0.6,0,1,0.1,1.5,0.3c0.4,0.2,0.8,0.4,1.1,0.8l0.1,1.5h-1l-0.3-1.1c-0.1-0.1-0.3-0.3-0.6-0.3c-0.2-0.1-0.5-0.1-0.8-0.1
			c-0.7,0-1.1,0.2-1.4,0.7c-0.3,0.5-0.4,1.1-0.4,1.7v0.3c0,0.7,0.1,1.3,0.4,1.8C355.9,213.6,356.4,213.9,357,213.9z"/>
		<path class="st3" d="M363.1,206.2v1.7h1.3v0.9h-1.3v4.2c0,0.3,0.1,0.5,0.2,0.7c0.1,0.1,0.3,0.2,0.5,0.2c0.1,0,0.2,0,0.4,0
			c0.1,0,0.3,0,0.3-0.1l0.2,0.9c-0.1,0.1-0.3,0.1-0.5,0.2s-0.5,0.1-0.7,0.1c-0.5,0-0.9-0.2-1.2-0.5c-0.3-0.3-0.5-0.8-0.5-1.4v-4.2
			h-1.1v-0.9h1.1v-1.7H363.1z"/>
		<path class="st3" d="M365.7,213.9l1-0.2v-4.9l-1-0.2v-0.8h2.3v5.9l1,0.2v0.8h-3.3V213.9z M368,206.1h-1.2v-1.3h1.2V206.1z"/>
		<path class="st3" d="M370,211.2c0-1,0.3-1.9,0.8-2.5c0.6-0.7,1.3-1,2.2-1c0.9,0,1.7,0.3,2.3,1c0.6,0.7,0.8,1.5,0.8,2.5v0.1
			c0,1-0.3,1.9-0.8,2.5c-0.5,0.7-1.3,1-2.2,1c-1,0-1.7-0.3-2.3-1c-0.5-0.7-0.8-1.5-0.8-2.5V211.2z M371.2,211.4
			c0,0.7,0.2,1.3,0.5,1.8c0.3,0.5,0.8,0.7,1.4,0.7c0.6,0,1-0.2,1.4-0.7c0.3-0.5,0.5-1.1,0.5-1.8v-0.1c0-0.7-0.2-1.3-0.5-1.8
			c-0.3-0.5-0.8-0.7-1.4-0.7s-1.1,0.2-1.4,0.7s-0.5,1.1-0.5,1.8V211.4z"/>
		<path class="st3" d="M377.1,213.9l1-0.2v-4.9l-1-0.2v-0.8h2.2l0.1,1c0.2-0.4,0.5-0.6,0.9-0.8c0.3-0.2,0.7-0.3,1.2-0.3
			c0.7,0,1.3,0.2,1.7,0.7s0.6,1.1,0.6,2v3.4l1,0.2v0.8h-3.3v-0.8l1-0.2v-3.3c0-0.6-0.1-1-0.4-1.3c-0.2-0.3-0.6-0.4-1.1-0.4
			c-0.4,0-0.7,0.1-1,0.3s-0.5,0.4-0.7,0.7v4l1,0.2v0.8h-3.3V213.9z"/>
	</g>
	<g class="st0">
		<path class="st3" d="M339.8,228.9c-0.2,0.3-0.5,0.6-0.8,0.7c-0.3,0.2-0.7,0.2-1.1,0.2c-0.8,0-1.5-0.3-2-0.9
			c-0.5-0.6-0.7-1.4-0.7-2.4v-0.1c0-1.1,0.2-2,0.7-2.7c0.5-0.7,1.1-1,2-1c0.4,0,0.8,0.1,1.1,0.2c0.3,0.2,0.6,0.4,0.8,0.7v-2.8
			l-1-0.2v-0.8h1h1.2v8.9l1,0.2v0.8h-2.1L339.8,228.9z M336.4,226.5c0,0.7,0.1,1.2,0.4,1.7c0.3,0.4,0.7,0.6,1.3,0.6
			c0.4,0,0.7-0.1,0.9-0.3c0.3-0.2,0.5-0.4,0.6-0.7v-3.2c-0.2-0.3-0.4-0.5-0.6-0.7c-0.3-0.2-0.6-0.3-0.9-0.3c-0.6,0-1,0.2-1.3,0.7
			c-0.3,0.5-0.4,1.1-0.4,1.9V226.5z"/>
		<path class="st3" d="M347.4,229.7c0-0.2-0.1-0.4-0.1-0.5c0-0.1,0-0.3,0-0.4c-0.2,0.3-0.5,0.6-0.9,0.8c-0.4,0.2-0.7,0.3-1.2,0.3
			c-0.7,0-1.3-0.2-1.6-0.5c-0.4-0.3-0.6-0.8-0.6-1.5c0-0.7,0.3-1.2,0.8-1.5s1.2-0.5,2.2-0.5h1.3V225c0-0.4-0.1-0.7-0.4-1
			s-0.6-0.4-1.1-0.4c-0.3,0-0.6,0-0.8,0.1c-0.2,0.1-0.4,0.2-0.6,0.3l-0.1,0.7h-1v-1.3c0.3-0.2,0.7-0.4,1.1-0.6
			c0.4-0.2,0.9-0.2,1.4-0.2c0.8,0,1.4,0.2,1.9,0.6c0.5,0.4,0.7,1,0.7,1.7v3.3c0,0.1,0,0.2,0,0.3c0,0.1,0,0.2,0,0.3l0.5,0.1v0.8
			H347.4z M345.4,228.8c0.4,0,0.8-0.1,1.1-0.3c0.3-0.2,0.6-0.4,0.7-0.7v-1.1H346c-0.5,0-0.9,0.1-1.2,0.4c-0.3,0.2-0.4,0.5-0.4,0.9
			c0,0.3,0.1,0.5,0.3,0.7C344.8,228.7,345.1,228.8,345.4,228.8z"/>
		<path class="st3" d="M352.3,221.2v1.7h1.3v0.9h-1.3v4.2c0,0.3,0.1,0.5,0.2,0.7s0.3,0.2,0.5,0.2c0.1,0,0.2,0,0.4,0
			c0.1,0,0.3,0,0.3-0.1l0.2,0.9c-0.1,0.1-0.3,0.1-0.5,0.2s-0.5,0.1-0.7,0.1c-0.5,0-0.9-0.2-1.2-0.5s-0.5-0.8-0.5-1.4v-4.2H350v-0.9
			h1.1v-1.7H352.3z"/>
		<path class="st3" d="M359.4,229.7c0-0.2-0.1-0.4-0.1-0.5c0-0.1,0-0.3,0-0.4c-0.2,0.3-0.5,0.6-0.9,0.8s-0.7,0.3-1.2,0.3
			c-0.7,0-1.3-0.2-1.6-0.5c-0.4-0.3-0.6-0.8-0.6-1.5c0-0.7,0.3-1.2,0.8-1.5c0.5-0.4,1.2-0.5,2.2-0.5h1.3V225c0-0.4-0.1-0.7-0.4-1
			s-0.6-0.4-1.1-0.4c-0.3,0-0.6,0-0.8,0.1c-0.2,0.1-0.4,0.2-0.6,0.3l-0.1,0.7h-1v-1.3c0.3-0.2,0.7-0.4,1.1-0.6
			c0.4-0.2,0.9-0.2,1.4-0.2c0.8,0,1.4,0.2,1.9,0.6c0.5,0.4,0.7,1,0.7,1.7v3.3c0,0.1,0,0.2,0,0.3s0,0.2,0,0.3l0.5,0.1v0.8H359.4z
			 M357.4,228.8c0.4,0,0.8-0.1,1.1-0.3c0.3-0.2,0.6-0.4,0.7-0.7v-1.1h-1.3c-0.5,0-0.9,0.1-1.2,0.4c-0.3,0.2-0.4,0.5-0.4,0.9
			c0,0.3,0.1,0.5,0.3,0.7C356.7,228.7,357,228.8,357.4,228.8z"/>
	</g>
	<g class="st0">
		<path d="M425.7,47.2h-0.9l-0.2-1.3c-0.2-0.2-0.5-0.4-0.7-0.5s-0.6-0.2-1.1-0.2c-1,0-1.7,0.3-2.2,1s-0.8,1.6-0.8,2.7V49
			c0,1.1,0.3,2,0.8,2.7c0.5,0.7,1.2,1.1,2.1,1.1c0.4,0,0.8-0.1,1.1-0.2c0.3-0.1,0.6-0.3,0.8-0.5l0.2-1.3h0.9v1.6
			c-0.3,0.3-0.7,0.6-1.2,0.9s-1.2,0.4-1.9,0.4c-1.2,0-2.2-0.4-3-1.3c-0.8-0.9-1.2-2-1.2-3.4v-0.1c0-1.4,0.4-2.5,1.1-3.4
			s1.8-1.3,3-1.3c0.7,0,1.3,0.1,1.9,0.4c0.5,0.3,0.9,0.6,1.2,0.9V47.2z"/>
		<path d="M431.5,53.6c0-0.2-0.1-0.4-0.1-0.5c0-0.1,0-0.3,0-0.4c-0.2,0.3-0.5,0.6-0.9,0.8c-0.4,0.2-0.7,0.3-1.2,0.3
			c-0.7,0-1.3-0.2-1.6-0.5c-0.4-0.3-0.6-0.8-0.6-1.5c0-0.7,0.3-1.2,0.8-1.5s1.2-0.5,2.2-0.5h1.3v-0.8c0-0.4-0.1-0.7-0.4-1
			c-0.3-0.2-0.6-0.4-1.1-0.4c-0.3,0-0.6,0-0.8,0.1c-0.2,0.1-0.4,0.2-0.6,0.3l-0.1,0.7h-1v-1.3c0.3-0.2,0.7-0.4,1.1-0.6
			c0.4-0.2,0.9-0.2,1.4-0.2c0.8,0,1.4,0.2,1.9,0.6s0.7,1,0.7,1.7v3.3c0,0.1,0,0.2,0,0.3c0,0.1,0,0.2,0,0.3l0.5,0.1v0.8H431.5z
			 M429.5,52.6c0.4,0,0.8-0.1,1.1-0.3c0.3-0.2,0.6-0.4,0.7-0.7v-1.1h-1.3c-0.5,0-0.9,0.1-1.2,0.4c-0.3,0.2-0.4,0.5-0.4,0.9
			c0,0.3,0.1,0.5,0.3,0.7C428.9,52.6,429.2,52.6,429.5,52.6z"/>
		<path d="M439.5,48.9h-0.9l-0.2-0.8c-0.2-0.1-0.3-0.3-0.6-0.3c-0.2-0.1-0.5-0.1-0.8-0.1c-0.4,0-0.8,0.1-1,0.3
			c-0.2,0.2-0.3,0.4-0.3,0.7c0,0.3,0.1,0.5,0.3,0.6c0.2,0.2,0.6,0.3,1.2,0.4c0.9,0.2,1.5,0.4,1.9,0.8s0.6,0.7,0.6,1.3
			c0,0.6-0.2,1.1-0.7,1.5c-0.5,0.4-1.1,0.6-1.9,0.6c-0.5,0-1-0.1-1.4-0.2c-0.4-0.1-0.8-0.3-1.1-0.5l0-1.6h0.9l0.2,0.9
			c0.1,0.1,0.3,0.2,0.6,0.3c0.2,0.1,0.5,0.1,0.8,0.1c0.4,0,0.8-0.1,1-0.3s0.4-0.4,0.4-0.7c0-0.3-0.1-0.5-0.3-0.7
			c-0.2-0.2-0.6-0.3-1.2-0.5c-0.8-0.2-1.5-0.4-1.9-0.7c-0.4-0.3-0.6-0.7-0.6-1.3c0-0.6,0.2-1,0.7-1.4c0.5-0.4,1.1-0.6,1.9-0.6
			c0.5,0,1,0.1,1.4,0.2c0.4,0.1,0.8,0.3,1,0.6L439.5,48.9z"/>
		<path d="M440.7,52.8l1-0.2v-7.9l-1-0.2v-0.8h2.3v3.9c0.2-0.3,0.5-0.6,0.9-0.8c0.3-0.2,0.7-0.3,1.1-0.3c0.7,0,1.3,0.2,1.7,0.7
			s0.6,1.1,0.6,2v3.3l1,0.2v0.8H445v-0.8l1-0.2v-3.3c0-0.6-0.1-1-0.4-1.3c-0.2-0.3-0.6-0.4-1.1-0.4c-0.3,0-0.7,0.1-0.9,0.2
			c-0.3,0.2-0.5,0.4-0.7,0.7v4.1l1,0.2v0.8h-3.3V52.8z"/>
		<path d="M453.4,52.8l1-0.2v-7.8c-0.2-0.1-0.5-0.1-0.8-0.1s-0.5-0.1-0.8-0.1c-0.6,0-1,0.1-1.3,0.4c-0.3,0.3-0.4,0.7-0.4,1.2v0.5
			h1.6v0.9h-1.6v5l1,0.2v0.8H449v-0.8l1-0.2v-5h-0.9v-0.9h0.9v-0.5c0-0.9,0.2-1.5,0.7-2c0.5-0.5,1.2-0.7,2.1-0.7
			c0.4,0,0.7,0,1.1,0.1c0.4,0.1,0.8,0.2,1.2,0.3h0.6v8.7l1,0.2v0.8h-3.3V52.8z"/>
	</g>
	<g class="st0">
		<path d="M457.8,50.1c0-1,0.3-1.9,0.8-2.5s1.3-1,2.2-1c0.9,0,1.7,0.3,2.3,1c0.6,0.7,0.8,1.5,0.8,2.5v0.1c0,1-0.3,1.9-0.8,2.5
			c-0.6,0.7-1.3,1-2.2,1c-1,0-1.7-0.3-2.3-1c-0.6-0.7-0.8-1.5-0.8-2.5V50.1z M459.1,50.2c0,0.7,0.2,1.3,0.5,1.8
			c0.3,0.5,0.8,0.7,1.4,0.7c0.6,0,1-0.2,1.4-0.7c0.3-0.5,0.5-1.1,0.5-1.8v-0.1c0-0.7-0.2-1.3-0.5-1.8s-0.8-0.7-1.4-0.7
			c-0.6,0-1.1,0.2-1.4,0.7s-0.5,1.1-0.5,1.8V50.2z"/>
		<path d="M467.5,47.5l-0.8,0.1l0.9,3.4l0.1,0.8h0l0.2-0.8l1.4-4.4h1l1.4,4.4L472,52h0l0.2-0.9l0.8-3.4l-0.8-0.1v-0.8h2.6v0.8
			l-0.6,0.1l-1.7,6h-1l-1.3-4.2l-0.3-1.2l0,0l-0.3,1.1l-1.3,4.2h-1l-1.7-6l-0.6-0.1v-0.8h2.6V47.5z"/>
	</g>
	<g class="st0">
		<path class="st3" d="M242.5,255.2l0.7-0.1l3.2-8.3h1.1l3.2,8.3l0.7,0.1v0.8h-2.7v-0.8l0.7-0.1l-0.6-1.7h-3.7l-0.6,1.7l0.7,0.1v0.8
			h-2.6V255.2z M245.5,252.3h2.9l-1.4-4h0L245.5,252.3z"/>
		<path class="st3" d="M252.1,255.2l1-0.2v-4.9l-1-0.2v-0.8h2.2l0.1,1c0.2-0.4,0.5-0.6,0.9-0.8c0.3-0.2,0.7-0.3,1.2-0.3
			c0.7,0,1.3,0.2,1.7,0.7s0.6,1.1,0.6,2v3.4l1,0.2v0.8h-3.3v-0.8l1-0.2v-3.3c0-0.6-0.1-1-0.4-1.3c-0.2-0.3-0.6-0.4-1.1-0.4
			c-0.4,0-0.7,0.1-1,0.3c-0.3,0.2-0.5,0.4-0.7,0.7v4l1,0.2v0.8h-3.3V255.2z"/>
		<path class="st3" d="M265.1,256c0-0.2-0.1-0.4-0.1-0.5c0-0.1,0-0.3,0-0.4c-0.2,0.3-0.5,0.6-0.9,0.8c-0.4,0.2-0.7,0.3-1.2,0.3
			c-0.7,0-1.3-0.2-1.6-0.5c-0.4-0.3-0.6-0.8-0.6-1.5c0-0.7,0.3-1.2,0.8-1.5c0.5-0.4,1.2-0.5,2.2-0.5h1.3v-0.8c0-0.4-0.1-0.7-0.4-1
			c-0.3-0.2-0.6-0.4-1.1-0.4c-0.3,0-0.6,0-0.8,0.1c-0.2,0.1-0.4,0.2-0.6,0.3l-0.1,0.7h-1v-1.3c0.3-0.2,0.7-0.4,1.1-0.6
			s0.9-0.2,1.4-0.2c0.8,0,1.4,0.2,1.9,0.6s0.7,1,0.7,1.7v3.3c0,0.1,0,0.2,0,0.3c0,0.1,0,0.2,0,0.3l0.5,0.1v0.8H265.1z M263.1,255.1
			c0.4,0,0.8-0.1,1.1-0.3c0.3-0.2,0.6-0.4,0.7-0.7V253h-1.3c-0.5,0-0.9,0.1-1.2,0.4c-0.3,0.2-0.4,0.5-0.4,0.9c0,0.3,0.1,0.5,0.3,0.7
			C262.4,255,262.7,255.1,263.1,255.1z"/>
		<path class="st3" d="M267.6,246.9v-0.8h2.3v8.9l1,0.2v0.8h-3.3v-0.8l1-0.2v-7.9L267.6,246.9z"/>
		<path class="st3" d="M278.4,250l-0.6,0.1l-2.6,7c-0.2,0.5-0.4,0.9-0.7,1.2c-0.3,0.3-0.8,0.5-1.3,0.5c-0.1,0-0.2,0-0.4,0
			c-0.2,0-0.3,0-0.4-0.1l0.1-1c0,0,0,0,0.2,0s0.3,0,0.3,0c0.3,0,0.5-0.1,0.6-0.3s0.3-0.5,0.4-0.8l0.3-0.7l-2.3-5.8l-0.6-0.1v-0.8
			h2.8v0.8l-0.8,0.1l1.2,3.4l0.2,0.9h0l1.4-4.3l-0.8-0.1v-0.8h2.8V250z"/>
		<path class="st3" d="M284.5,251.3h-0.9l-0.2-0.8c-0.2-0.1-0.3-0.3-0.6-0.3c-0.2-0.1-0.5-0.1-0.8-0.1c-0.4,0-0.8,0.1-1,0.3
			c-0.2,0.2-0.3,0.4-0.3,0.7c0,0.3,0.1,0.5,0.3,0.6c0.2,0.2,0.6,0.3,1.2,0.4c0.9,0.2,1.5,0.4,1.9,0.8c0.4,0.3,0.6,0.7,0.6,1.3
			c0,0.6-0.2,1.1-0.7,1.5c-0.5,0.4-1.1,0.6-1.9,0.6c-0.5,0-1-0.1-1.4-0.2c-0.4-0.1-0.8-0.3-1.1-0.5l0-1.6h0.9l0.2,0.9
			c0.1,0.1,0.3,0.2,0.6,0.3c0.2,0.1,0.5,0.1,0.8,0.1c0.4,0,0.8-0.1,1-0.3c0.3-0.2,0.4-0.4,0.4-0.7c0-0.3-0.1-0.5-0.3-0.7
			c-0.2-0.2-0.6-0.3-1.2-0.5c-0.8-0.2-1.5-0.4-1.9-0.7c-0.4-0.3-0.6-0.7-0.6-1.3c0-0.6,0.2-1,0.7-1.4c0.5-0.4,1.1-0.6,1.9-0.6
			c0.5,0,1,0.1,1.4,0.2c0.4,0.1,0.8,0.3,1,0.6L284.5,251.3z"/>
		<path class="st3" d="M285.9,255.2l1-0.2v-4.9l-1-0.2v-0.8h2.3v5.9l1,0.2v0.8h-3.3V255.2z M288.2,247.4h-1.3v-1.3h1.3V247.4z"/>
		<path class="st3" d="M295.4,251.3h-0.9l-0.2-0.8c-0.2-0.1-0.3-0.3-0.6-0.3s-0.5-0.1-0.8-0.1c-0.4,0-0.8,0.1-1,0.3
			c-0.2,0.2-0.3,0.4-0.3,0.7c0,0.3,0.1,0.5,0.3,0.6c0.2,0.2,0.6,0.3,1.2,0.4c0.9,0.2,1.5,0.4,1.9,0.8c0.4,0.3,0.6,0.7,0.6,1.3
			c0,0.6-0.2,1.1-0.7,1.5s-1.1,0.6-1.9,0.6c-0.5,0-1-0.1-1.4-0.2c-0.4-0.1-0.8-0.3-1.1-0.5l0-1.6h0.9l0.2,0.9
			c0.1,0.1,0.3,0.2,0.6,0.3c0.2,0.1,0.5,0.1,0.8,0.1c0.4,0,0.8-0.1,1-0.3s0.4-0.4,0.4-0.7c0-0.3-0.1-0.5-0.3-0.7
			c-0.2-0.2-0.6-0.3-1.2-0.5c-0.8-0.2-1.5-0.4-1.9-0.7c-0.4-0.3-0.6-0.7-0.6-1.3c0-0.6,0.2-1,0.7-1.4c0.5-0.4,1.1-0.6,1.9-0.6
			c0.5,0,1,0.1,1.4,0.2c0.4,0.1,0.8,0.3,1,0.6L295.4,251.3z"/>
	</g>
	<g class="st0">
		<path class="st3" d="M184.2,208h-0.9l-0.2-1.3c-0.2-0.2-0.4-0.3-0.8-0.4c-0.3-0.1-0.7-0.2-1.1-0.2c-0.7,0-1.2,0.1-1.5,0.4
			s-0.5,0.6-0.5,1.1c0,0.4,0.2,0.7,0.5,1c0.4,0.3,0.9,0.5,1.8,0.7c1,0.2,1.7,0.6,2.2,1.1c0.5,0.5,0.8,1.1,0.8,1.7
			c0,0.7-0.3,1.3-0.9,1.8c-0.6,0.5-1.4,0.7-2.4,0.7c-0.7,0-1.3-0.1-1.9-0.3c-0.6-0.2-1-0.5-1.3-0.9v-1.7h0.9l0.2,1.3
			c0.2,0.2,0.5,0.4,0.9,0.5s0.7,0.2,1.2,0.2c0.6,0,1.1-0.1,1.5-0.4c0.4-0.3,0.5-0.6,0.5-1.1c0-0.4-0.2-0.8-0.5-1.1
			c-0.3-0.3-0.9-0.5-1.7-0.7c-1-0.2-1.7-0.6-2.3-1s-0.8-1-0.8-1.7c0-0.7,0.3-1.3,0.9-1.8s1.4-0.7,2.4-0.7c0.6,0,1.2,0.1,1.8,0.3
			c0.5,0.2,1,0.5,1.3,0.8V208z"/>
		<path class="st3" d="M185.5,214.6v-0.8l1-0.2v-7.3l-1-0.2v-0.8h7.1v2.2h-1.1l-0.1-1.2h-3.6v3h3.5v1h-3.5v3.3h3.7l0.1-1.2h1.1v2.2
			H185.5z"/>
		<path class="st3" d="M197.4,211.1h-3.1v-1h3.1V211.1z"/>
	</g>
	<g class="st0">
		<path class="st3" d="M161.4,231.4l1-0.2v-7.5l-1-0.2v-0.8h2.1l0.1,0.8c0.2-0.3,0.5-0.6,0.8-0.7c0.3-0.2,0.7-0.2,1.1-0.2
			c0.9,0,1.5,0.3,2,1c0.5,0.7,0.7,1.6,0.7,2.7v0.1c0,1-0.2,1.8-0.7,2.4s-1.1,0.9-2,0.9c-0.4,0-0.8-0.1-1.1-0.2
			c-0.3-0.1-0.6-0.4-0.8-0.6v2.4l1,0.2v0.8h-3.3V231.4z M167.1,226.3c0-0.8-0.2-1.4-0.5-1.9s-0.8-0.7-1.4-0.7
			c-0.4,0-0.7,0.1-0.9,0.2s-0.5,0.4-0.6,0.7v3.3c0.2,0.3,0.4,0.5,0.6,0.7c0.3,0.2,0.6,0.2,0.9,0.2c0.6,0,1-0.2,1.3-0.6
			s0.5-1,0.5-1.7V226.3z"/>
		<path class="st3" d="M169.2,220.5v-0.8h2.3v8.9l1,0.2v0.8h-3.3v-0.8l1-0.2v-7.9L169.2,220.5z"/>
		<path class="st3" d="M178,229.6c0-0.2-0.1-0.4-0.1-0.5c0-0.1,0-0.3,0-0.4c-0.2,0.3-0.5,0.6-0.9,0.8c-0.4,0.2-0.7,0.3-1.2,0.3
			c-0.7,0-1.3-0.2-1.6-0.5c-0.4-0.3-0.6-0.8-0.6-1.5c0-0.7,0.3-1.2,0.8-1.5c0.5-0.4,1.2-0.5,2.2-0.5h1.3v-0.8c0-0.4-0.1-0.7-0.4-1
			c-0.3-0.2-0.6-0.4-1.1-0.4c-0.3,0-0.6,0-0.8,0.1c-0.2,0.1-0.4,0.2-0.6,0.3l-0.1,0.7h-1v-1.3c0.3-0.2,0.7-0.4,1.1-0.6
			s0.9-0.2,1.4-0.2c0.8,0,1.4,0.2,1.9,0.6s0.7,1,0.7,1.7v3.3c0,0.1,0,0.2,0,0.3c0,0.1,0,0.2,0,0.3l0.5,0.1v0.8H178z M176,228.6
			c0.4,0,0.8-0.1,1.1-0.3c0.3-0.2,0.6-0.4,0.7-0.7v-1.1h-1.3c-0.5,0-0.9,0.1-1.2,0.4c-0.3,0.2-0.4,0.5-0.4,0.9
			c0,0.3,0.1,0.5,0.3,0.7C175.3,228.6,175.6,228.6,176,228.6z"/>
		<path class="st3" d="M182.8,221v1.7h1.3v0.9h-1.3v4.2c0,0.3,0.1,0.5,0.2,0.7c0.1,0.1,0.3,0.2,0.5,0.2c0.1,0,0.2,0,0.4,0
			c0.1,0,0.3,0,0.3-0.1l0.2,0.9c-0.1,0.1-0.3,0.1-0.5,0.2s-0.5,0.1-0.7,0.1c-0.5,0-0.9-0.2-1.2-0.5s-0.5-0.8-0.5-1.4v-4.2h-1.1v-0.9
			h1.1V221H182.8z"/>
		<path class="st3" d="M185.3,223.6v-0.9h1.1v-0.9c0-0.7,0.2-1.3,0.6-1.7c0.4-0.4,0.9-0.6,1.6-0.6c0.1,0,0.3,0,0.4,0
			c0.1,0,0.3,0.1,0.5,0.1l-0.2,1c-0.1,0-0.2,0-0.3,0c-0.1,0-0.2,0-0.3,0c-0.4,0-0.6,0.1-0.8,0.3s-0.3,0.5-0.3,0.9v0.9h1.4v0.9h-1.4
			v5l1,0.2v0.8h-3.3v-0.8l1-0.2v-5H185.3z"/>
		<path class="st3" d="M190,226.1c0-1,0.3-1.9,0.8-2.5s1.3-1,2.2-1c0.9,0,1.7,0.3,2.3,1c0.6,0.7,0.8,1.5,0.8,2.5v0.1
			c0,1-0.3,1.9-0.8,2.5c-0.6,0.7-1.3,1-2.2,1c-1,0-1.7-0.3-2.3-1c-0.6-0.7-0.8-1.5-0.8-2.5V226.1z M191.3,226.2
			c0,0.7,0.2,1.3,0.5,1.8c0.3,0.5,0.8,0.7,1.4,0.7c0.6,0,1-0.2,1.4-0.7c0.3-0.5,0.5-1.1,0.5-1.8v-0.1c0-0.7-0.2-1.3-0.5-1.8
			s-0.8-0.7-1.4-0.7s-1.1,0.2-1.4,0.7s-0.5,1.1-0.5,1.8V226.2z"/>
		<path class="st3" d="M197.3,223.5v-0.8h2.2l0.1,1c0.2-0.4,0.4-0.6,0.7-0.8c0.3-0.2,0.6-0.3,1-0.3c0.1,0,0.2,0,0.3,0
			c0.1,0,0.2,0,0.2,0l-0.2,1.2l-0.7,0c-0.3,0-0.6,0.1-0.8,0.2s-0.4,0.4-0.5,0.7v3.9l1,0.2v0.8h-3.3v-0.8l1-0.2v-4.9L197.3,223.5z"/>
		<path class="st3" d="M202.5,228.8l1-0.2v-4.9l-1-0.2v-0.8h2.2l0.1,0.9c0.2-0.3,0.5-0.6,0.9-0.8s0.7-0.3,1.2-0.3s0.8,0.1,1.2,0.3
			c0.3,0.2,0.6,0.5,0.7,1c0.2-0.4,0.5-0.7,0.9-0.9s0.8-0.3,1.2-0.3c0.7,0,1.3,0.2,1.7,0.7s0.6,1.2,0.6,2.2v3.1l1,0.2v0.8h-3.3v-0.8
			l1-0.2v-3.1c0-0.7-0.1-1.2-0.3-1.4s-0.6-0.4-1-0.4c-0.4,0-0.8,0.2-1.1,0.5c-0.3,0.3-0.4,0.7-0.5,1.2v3.4l1,0.2v0.8h-3.3v-0.8
			l1-0.2v-3.1c0-0.6-0.1-1.1-0.4-1.4c-0.2-0.3-0.6-0.4-1-0.4c-0.4,0-0.7,0.1-0.9,0.2c-0.2,0.2-0.4,0.4-0.6,0.7v4.1l1,0.2v0.8h-3.3
			V228.8z"/>
	</g>
	<g class="st0">
		<path class="st3" d="M250.7,68.3c1,0,1.8,0.3,2.3,0.8c0.5,0.5,0.8,1.2,0.8,2c0,0.8-0.3,1.5-0.8,2c-0.5,0.5-1.3,0.8-2.3,0.8h-2v2.7
			l1,0.2v0.8h-3.3v-0.8l1-0.2v-7.3l-1-0.2v-0.8h1H250.7z M248.7,72.8h2c0.6,0,1.1-0.2,1.4-0.5c0.3-0.3,0.5-0.8,0.5-1.3
			s-0.2-0.9-0.5-1.3c-0.3-0.3-0.8-0.5-1.4-0.5h-2V72.8z"/>
		<path class="st3" d="M254.8,71.5v-0.8h2.2l0.1,1c0.2-0.4,0.4-0.6,0.7-0.8c0.3-0.2,0.6-0.3,1-0.3c0.1,0,0.2,0,0.3,0
			c0.1,0,0.2,0,0.2,0l-0.2,1.2l-0.7,0c-0.3,0-0.6,0.1-0.8,0.2s-0.4,0.4-0.5,0.7v3.9l1,0.2v0.8h-3.3v-0.8l1-0.2v-4.9L254.8,71.5z"/>
		<path class="st3" d="M260.1,74c0-1,0.3-1.9,0.8-2.5s1.3-1,2.2-1c0.9,0,1.7,0.3,2.3,1c0.6,0.7,0.8,1.5,0.8,2.5v0.1
			c0,1-0.3,1.9-0.8,2.5c-0.6,0.7-1.3,1-2.2,1c-1,0-1.7-0.3-2.3-1c-0.6-0.7-0.8-1.5-0.8-2.5V74z M261.3,74.2c0,0.7,0.2,1.3,0.5,1.8
			c0.3,0.5,0.8,0.7,1.4,0.7c0.6,0,1-0.2,1.4-0.7c0.3-0.5,0.5-1.1,0.5-1.8V74c0-0.7-0.2-1.3-0.5-1.8s-0.8-0.7-1.4-0.7
			s-1.1,0.2-1.4,0.7s-0.5,1.1-0.5,1.8V74.2z"/>
		<path class="st3" d="M267.1,71.6v-0.9h1.1v-0.7c0-0.8,0.2-1.4,0.7-1.8c0.5-0.4,1.1-0.6,1.9-0.6c0.3,0,0.6,0,0.8,0.1
			c0.3,0.1,0.6,0.2,1,0.3l-0.2,1c-0.2-0.1-0.5-0.2-0.7-0.2s-0.5-0.1-0.8-0.1c-0.5,0-0.9,0.1-1.1,0.3c-0.2,0.2-0.3,0.6-0.3,1v0.7h3.9
			v5.9l1,0.2v0.8H271v-0.8l1-0.2v-5h-2.7v5l1,0.2v0.8h-3.3v-0.8l1-0.2v-5H267.1z"/>
	</g>
	<g class="st0">
		<path class="st3" d="M275,68.4v-0.8h2.3v8.9l1,0.2v0.8H275v-0.8l1-0.2v-7.9L275,68.4z"/>
		<path class="st3" d="M282.5,77.7c-1,0-1.7-0.3-2.3-1c-0.6-0.6-0.8-1.5-0.8-2.5v-0.3c0-1,0.3-1.8,0.9-2.4s1.3-1,2.1-1
			c0.9,0,1.6,0.3,2.1,0.8c0.5,0.6,0.7,1.3,0.7,2.2v0.8h-4.5l0,0c0,0.7,0.2,1.2,0.5,1.6c0.3,0.4,0.8,0.6,1.4,0.6
			c0.4,0,0.8-0.1,1.1-0.2c0.3-0.1,0.6-0.3,0.8-0.5l0.5,0.8c-0.2,0.2-0.6,0.4-1,0.6C283.5,77.6,283,77.7,282.5,77.7z M282.3,71.5
			c-0.4,0-0.8,0.2-1.1,0.5c-0.3,0.4-0.5,0.8-0.5,1.3l0,0h3.2v-0.2c0-0.5-0.1-0.9-0.4-1.2C283.2,71.7,282.8,71.5,282.3,71.5z"/>
	</g>
	<g class="st0">
		<path class="st3" d="M291.6,72.8h-0.9l-0.2-0.8c-0.2-0.1-0.3-0.3-0.6-0.3s-0.5-0.1-0.8-0.1c-0.4,0-0.8,0.1-1,0.3
			c-0.2,0.2-0.3,0.4-0.3,0.7c0,0.3,0.1,0.5,0.3,0.6c0.2,0.2,0.6,0.3,1.2,0.4c0.9,0.2,1.5,0.4,1.9,0.8c0.4,0.3,0.6,0.7,0.6,1.3
			c0,0.6-0.2,1.1-0.7,1.5s-1.1,0.6-1.9,0.6c-0.5,0-1-0.1-1.4-0.2c-0.4-0.1-0.8-0.3-1.1-0.5l0-1.6h0.9l0.2,0.9
			c0.1,0.1,0.3,0.2,0.6,0.3c0.2,0.1,0.5,0.1,0.8,0.1c0.4,0,0.8-0.1,1-0.3c0.3-0.2,0.4-0.4,0.4-0.7c0-0.3-0.1-0.5-0.3-0.7
			c-0.2-0.2-0.6-0.3-1.2-0.5c-0.8-0.2-1.5-0.4-1.9-0.7s-0.6-0.7-0.6-1.3c0-0.6,0.2-1,0.7-1.4c0.5-0.4,1.1-0.6,1.9-0.6
			c0.5,0,1,0.1,1.4,0.2s0.8,0.3,1,0.6L291.6,72.8z"/>
	</g>
	<g class="st0">
		<path d="M50.6,260.7v2h-1.1l-0.1-1.1h-2.1v7.3l1,0.2v0.8h-3.3v-0.8l1-0.2v-7.3h-2.1l-0.1,1.1H43v-2H50.6z"/>
		<path d="M55.2,269.9c0-0.2-0.1-0.4-0.1-0.5c0-0.1,0-0.3,0-0.4c-0.2,0.3-0.5,0.6-0.9,0.8c-0.4,0.2-0.7,0.3-1.2,0.3
			c-0.7,0-1.3-0.2-1.6-0.5c-0.4-0.3-0.6-0.8-0.6-1.5c0-0.7,0.3-1.2,0.8-1.5c0.5-0.4,1.2-0.5,2.2-0.5h1.3v-0.8c0-0.4-0.1-0.7-0.4-1
			c-0.3-0.2-0.6-0.4-1.1-0.4c-0.3,0-0.6,0-0.8,0.1c-0.2,0.1-0.4,0.2-0.6,0.3l-0.1,0.7h-1v-1.3c0.3-0.2,0.7-0.4,1.1-0.6
			s0.9-0.2,1.4-0.2c0.8,0,1.4,0.2,1.9,0.6s0.7,1,0.7,1.7v3.3c0,0.1,0,0.2,0,0.3c0,0.1,0,0.2,0,0.3l0.5,0.1v0.8H55.2z M53.2,269
			c0.4,0,0.8-0.1,1.1-0.3c0.3-0.2,0.6-0.4,0.7-0.7v-1.1h-1.3c-0.5,0-0.9,0.1-1.2,0.4c-0.3,0.2-0.4,0.5-0.4,0.9
			c0,0.3,0.1,0.5,0.3,0.7C52.5,268.9,52.8,269,53.2,269z"/>
	</g>
	<g class="st0">
		<path d="M57.9,263.8V263H60l0.1,1c0.2-0.4,0.4-0.6,0.7-0.8c0.3-0.2,0.6-0.3,1-0.3c0.1,0,0.2,0,0.3,0c0.1,0,0.2,0,0.2,0l-0.2,1.2
			l-0.7,0c-0.3,0-0.6,0.1-0.8,0.2s-0.4,0.4-0.5,0.7v3.9l1,0.2v0.8h-3.3v-0.8l1-0.2V264L57.9,263.8z"/>
		<path d="M63.2,266.6c0-1.1,0.2-2,0.7-2.7s1.1-1,2-1c0.4,0,0.8,0.1,1.1,0.3s0.6,0.4,0.8,0.7l0.1-0.9H69v6.8c0,0.9-0.2,1.6-0.7,2.1
			s-1.2,0.8-2.1,0.8c-0.3,0-0.7,0-1.1-0.1s-0.7-0.2-1-0.4l0.3-1c0.2,0.1,0.5,0.2,0.8,0.3s0.6,0.1,0.9,0.1c0.6,0,1-0.2,1.2-0.5
			c0.3-0.3,0.4-0.8,0.4-1.3v-0.7c-0.2,0.3-0.5,0.5-0.8,0.7s-0.7,0.2-1.1,0.2c-0.8,0-1.5-0.3-2-0.9s-0.7-1.4-0.7-2.4V266.6z
			 M64.4,266.7c0,0.7,0.1,1.2,0.4,1.7s0.7,0.6,1.3,0.6c0.4,0,0.7-0.1,0.9-0.3c0.3-0.2,0.5-0.4,0.6-0.7v-3.2
			c-0.2-0.3-0.4-0.5-0.6-0.7c-0.3-0.2-0.6-0.3-0.9-0.3c-0.6,0-1,0.2-1.3,0.7s-0.4,1.1-0.4,1.9V266.7z"/>
		<path d="M73.6,270c-1,0-1.7-0.3-2.3-1c-0.6-0.6-0.8-1.5-0.8-2.5v-0.3c0-1,0.3-1.8,0.9-2.4c0.6-0.6,1.3-1,2.1-1
			c0.9,0,1.6,0.3,2.1,0.8c0.5,0.6,0.7,1.3,0.7,2.2v0.8h-4.5l0,0c0,0.7,0.2,1.2,0.5,1.6c0.3,0.4,0.8,0.6,1.4,0.6
			c0.4,0,0.8-0.1,1.1-0.2c0.3-0.1,0.6-0.3,0.8-0.5l0.5,0.8c-0.2,0.2-0.6,0.4-1,0.6C74.7,269.9,74.2,270,73.6,270z M73.5,263.9
			c-0.4,0-0.8,0.2-1.1,0.5s-0.5,0.8-0.5,1.3l0,0H75v-0.2c0-0.5-0.1-0.9-0.4-1.2S74,263.9,73.5,263.9z"/>
		<path d="M79.7,261.4v1.7H81v0.9h-1.3v4.2c0,0.3,0.1,0.5,0.2,0.7c0.1,0.1,0.3,0.2,0.5,0.2c0.1,0,0.2,0,0.4,0c0.1,0,0.3,0,0.3-0.1
			l0.2,0.9c-0.1,0.1-0.3,0.1-0.5,0.2s-0.5,0.1-0.7,0.1c-0.5,0-0.9-0.2-1.2-0.5s-0.5-0.8-0.5-1.4V264h-1.1V263h1.1v-1.7H79.7z"/>
		<path d="M85.4,270c-1,0-1.7-0.3-2.3-1c-0.6-0.6-0.8-1.5-0.8-2.5v-0.3c0-1,0.3-1.8,0.9-2.4c0.6-0.6,1.3-1,2.1-1
			c0.9,0,1.6,0.3,2.1,0.8c0.5,0.6,0.7,1.3,0.7,2.2v0.8h-4.5l0,0c0,0.7,0.2,1.2,0.5,1.6c0.3,0.4,0.8,0.6,1.4,0.6
			c0.4,0,0.8-0.1,1.1-0.2c0.3-0.1,0.6-0.3,0.8-0.5l0.5,0.8c-0.2,0.2-0.6,0.4-1,0.6C86.4,269.9,86,270,85.4,270z M85.2,263.9
			c-0.4,0-0.8,0.2-1.1,0.5s-0.5,0.8-0.5,1.3l0,0h3.2v-0.2c0-0.5-0.1-0.9-0.4-1.2S85.7,263.9,85.2,263.9z"/>
		<path d="M93.9,269.1c-0.2,0.3-0.5,0.5-0.8,0.7c-0.3,0.2-0.7,0.2-1.1,0.2c-0.8,0-1.5-0.3-2-0.9c-0.5-0.6-0.7-1.4-0.7-2.4v-0.1
			c0-1.1,0.2-2,0.7-2.7c0.5-0.7,1.1-1,2-1c0.4,0,0.8,0.1,1.1,0.2c0.3,0.2,0.6,0.4,0.8,0.7V261l-1-0.2V260h1h1.3v8.9l1,0.2v0.8H94
			L93.9,269.1z M90.5,266.7c0,0.7,0.1,1.2,0.4,1.7s0.7,0.6,1.3,0.6c0.4,0,0.7-0.1,0.9-0.3c0.3-0.2,0.5-0.4,0.6-0.7v-3.2
			c-0.2-0.3-0.4-0.5-0.6-0.7s-0.6-0.3-0.9-0.3c-0.6,0-1,0.2-1.3,0.7c-0.3,0.5-0.4,1.1-0.4,1.9V266.7z"/>
		<path d="M108.4,265.3c0,1.3-0.4,2.5-1.2,3.4c-0.8,0.9-1.8,1.3-3,1.3c-1.2,0-2.2-0.4-2.9-1.3s-1.1-2-1.1-3.4v-0.1
			c0-1.3,0.4-2.5,1.1-3.4s1.7-1.3,2.9-1.3c1.2,0,2.2,0.4,3,1.3c0.8,0.9,1.2,2,1.2,3.4V265.3z M107.1,265.2c0-1.1-0.3-2-0.8-2.6
			c-0.5-0.7-1.2-1-2.1-1c-0.9,0-1.6,0.3-2,1c-0.5,0.7-0.7,1.6-0.7,2.6v0.1c0,1.1,0.2,2,0.7,2.6c0.5,0.7,1.2,1,2,1
			c0.9,0,1.6-0.3,2.1-1s0.8-1.6,0.8-2.6V265.2z"/>
		<path d="M109.3,264V263h1.1v-0.9c0-0.7,0.2-1.3,0.6-1.7c0.4-0.4,0.9-0.6,1.6-0.6c0.1,0,0.3,0,0.4,0c0.1,0,0.3,0.1,0.5,0.1l-0.2,1
			c-0.1,0-0.2,0-0.3,0c-0.1,0-0.2,0-0.3,0c-0.4,0-0.6,0.1-0.8,0.3s-0.3,0.5-0.3,0.9v0.9h1.4v0.9h-1.4v5l1,0.2v0.8h-3.3v-0.8l1-0.2
			v-5H109.3z"/>
	</g>
	<g class="st0">
		<path d="M113.9,264V263h1.1v-0.9c0-0.7,0.2-1.3,0.6-1.7c0.4-0.4,0.9-0.6,1.6-0.6c0.1,0,0.3,0,0.4,0c0.1,0,0.3,0.1,0.5,0.1l-0.2,1
			c-0.1,0-0.2,0-0.3,0c-0.1,0-0.2,0-0.3,0c-0.4,0-0.6,0.1-0.8,0.3s-0.3,0.5-0.3,0.9v0.9h1.4v0.9h-1.4v5l1,0.2v0.8H114v-0.8l1-0.2v-5
			H113.9z"/>
		<path d="M121.7,270c-1,0-1.7-0.3-2.3-1c-0.6-0.6-0.8-1.5-0.8-2.5v-0.3c0-1,0.3-1.8,0.9-2.4c0.6-0.6,1.3-1,2.1-1
			c0.9,0,1.6,0.3,2.1,0.8c0.5,0.6,0.7,1.3,0.7,2.2v0.8h-4.5l0,0c0,0.7,0.2,1.2,0.5,1.6c0.3,0.4,0.8,0.6,1.4,0.6
			c0.4,0,0.8-0.1,1.1-0.2c0.3-0.1,0.6-0.3,0.8-0.5l0.5,0.8c-0.2,0.2-0.6,0.4-1,0.6C122.7,269.9,122.2,270,121.7,270z M121.5,263.9
			c-0.4,0-0.8,0.2-1.1,0.5s-0.5,0.8-0.5,1.3l0,0h3.2v-0.2c0-0.5-0.1-0.9-0.4-1.2S122,263.9,121.5,263.9z"/>
	</g>
	<g class="st0">
		<path d="M125.5,263.8V263h2.2l0.1,1c0.2-0.4,0.4-0.6,0.7-0.8c0.3-0.2,0.6-0.3,1-0.3c0.1,0,0.2,0,0.3,0c0.1,0,0.2,0,0.2,0l-0.2,1.2
			l-0.7,0c-0.3,0-0.6,0.1-0.8,0.2s-0.4,0.4-0.5,0.7v3.9l1,0.2v0.8h-3.3v-0.8l1-0.2V264L125.5,263.8z"/>
	</g>
	<g class="st0">
		<path d="M64.3,39.3h-0.9L63.2,38c-0.2-0.2-0.5-0.4-0.7-0.5s-0.6-0.2-1.1-0.2c-1,0-1.7,0.3-2.2,1s-0.8,1.6-0.8,2.7v0.1
			c0,1.1,0.3,2,0.8,2.7c0.5,0.7,1.2,1.1,2.1,1.1c0.4,0,0.8-0.1,1.1-0.2s0.6-0.3,0.8-0.5l0.2-1.3h0.9v1.6c-0.3,0.3-0.7,0.6-1.2,0.9
			s-1.2,0.4-1.9,0.4c-1.2,0-2.2-0.4-3-1.3s-1.2-2-1.2-3.4v-0.1c0-1.4,0.4-2.5,1.1-3.4s1.8-1.3,3-1.3c0.7,0,1.3,0.1,1.9,0.4
			c0.5,0.3,0.9,0.6,1.2,0.9V39.3z"/>
		<path d="M70.2,45.7c0-0.2-0.1-0.4-0.1-0.5c0-0.1,0-0.3,0-0.4c-0.2,0.3-0.5,0.6-0.9,0.8c-0.4,0.2-0.7,0.3-1.2,0.3
			c-0.7,0-1.3-0.2-1.6-0.5c-0.4-0.3-0.6-0.8-0.6-1.5c0-0.7,0.3-1.2,0.8-1.5c0.5-0.4,1.2-0.5,2.2-0.5H70V41c0-0.4-0.1-0.7-0.4-1
			c-0.3-0.2-0.6-0.4-1.1-0.4c-0.3,0-0.6,0-0.8,0.1c-0.2,0.1-0.4,0.2-0.6,0.3L67,40.9h-1v-1.3c0.3-0.2,0.7-0.4,1.1-0.6
			s0.9-0.2,1.4-0.2c0.8,0,1.4,0.2,1.9,0.6s0.7,1,0.7,1.7v3.3c0,0.1,0,0.2,0,0.3c0,0.1,0,0.2,0,0.3l0.5,0.1v0.8H70.2z M68.1,44.8
			c0.4,0,0.8-0.1,1.1-0.3c0.3-0.2,0.6-0.4,0.7-0.7v-1.1h-1.3c-0.5,0-0.9,0.1-1.2,0.4c-0.3,0.2-0.4,0.5-0.4,0.9
			c0,0.3,0.1,0.5,0.3,0.7C67.5,44.8,67.8,44.8,68.1,44.8z"/>
		<path d="M72.6,44.9l1-0.2v-4.9l-1-0.2v-0.8h2.2l0.1,0.9c0.2-0.3,0.5-0.6,0.9-0.8s0.7-0.3,1.2-0.3s0.8,0.1,1.2,0.3
			c0.3,0.2,0.6,0.5,0.7,1c0.2-0.4,0.5-0.7,0.9-0.9s0.8-0.3,1.2-0.3c0.7,0,1.3,0.2,1.7,0.7s0.6,1.2,0.6,2.2v3.1l1,0.2v0.8h-3.3v-0.8
			l1-0.2v-3.1c0-0.7-0.1-1.2-0.3-1.4s-0.6-0.4-1-0.4c-0.4,0-0.8,0.2-1.1,0.5c-0.3,0.3-0.4,0.7-0.5,1.2v3.4l1,0.2v0.8h-3.3v-0.8
			l1-0.2v-3.1c0-0.6-0.1-1.1-0.4-1.4c-0.2-0.3-0.6-0.4-1-0.4c-0.4,0-0.7,0.1-0.9,0.2c-0.2,0.2-0.4,0.4-0.6,0.7v4.1l1,0.2v0.8h-3.3
			V44.9z"/>
		<path d="M85,47.6l1-0.2v-7.5l-1-0.2v-0.8h2.1l0.1,0.8c0.2-0.3,0.5-0.6,0.8-0.7c0.3-0.2,0.7-0.2,1.1-0.2c0.9,0,1.5,0.3,2,1
			c0.5,0.7,0.7,1.6,0.7,2.7v0.1c0,1-0.2,1.8-0.7,2.4s-1.1,0.9-2,0.9c-0.4,0-0.8-0.1-1.1-0.2c-0.3-0.1-0.6-0.4-0.8-0.6v2.4l1,0.2v0.8
			H85V47.6z M90.6,42.4c0-0.8-0.2-1.4-0.5-1.9s-0.8-0.7-1.4-0.7c-0.4,0-0.7,0.1-0.9,0.2s-0.5,0.4-0.6,0.7V44
			c0.2,0.3,0.4,0.5,0.6,0.7c0.3,0.2,0.6,0.2,0.9,0.2c0.6,0,1-0.2,1.3-0.6s0.5-1,0.5-1.7V42.4z"/>
		<path d="M97.5,45.7c0-0.2-0.1-0.4-0.1-0.5c0-0.1,0-0.3,0-0.4c-0.2,0.3-0.5,0.6-0.9,0.8c-0.4,0.2-0.7,0.3-1.2,0.3
			c-0.7,0-1.3-0.2-1.6-0.5c-0.4-0.3-0.6-0.8-0.6-1.5c0-0.7,0.3-1.2,0.8-1.5c0.5-0.4,1.2-0.5,2.2-0.5h1.3V41c0-0.4-0.1-0.7-0.4-1
			c-0.3-0.2-0.6-0.4-1.1-0.4c-0.3,0-0.6,0-0.8,0.1c-0.2,0.1-0.4,0.2-0.6,0.3l-0.1,0.7h-1v-1.3c0.3-0.2,0.7-0.4,1.1-0.6
			s0.9-0.2,1.4-0.2c0.8,0,1.4,0.2,1.9,0.6s0.7,1,0.7,1.7v3.3c0,0.1,0,0.2,0,0.3c0,0.1,0,0.2,0,0.3l0.5,0.1v0.8H97.5z M95.5,44.8
			c0.4,0,0.8-0.1,1.1-0.3c0.3-0.2,0.6-0.4,0.7-0.7v-1.1H96c-0.5,0-0.9,0.1-1.2,0.4c-0.3,0.2-0.4,0.5-0.4,0.9c0,0.3,0.1,0.5,0.3,0.7
			C94.8,44.8,95.1,44.8,95.5,44.8z"/>
		<path d="M100.1,44.9l1-0.2v-4.9l-1-0.2v-0.8h2.3v5.9l1,0.2v0.8h-3.3V44.9z M102.4,37.1h-1.3v-1.3h1.3V37.1z"/>
		<path d="M104.4,42.4c0-1.1,0.2-2,0.7-2.7s1.1-1,2-1c0.4,0,0.8,0.1,1.1,0.3s0.6,0.4,0.8,0.7l0.1-0.9h1.1v6.8c0,0.9-0.2,1.6-0.7,2.1
			s-1.2,0.8-2.1,0.8c-0.3,0-0.7,0-1.1-0.1s-0.7-0.2-1-0.4l0.3-1c0.2,0.1,0.5,0.2,0.8,0.3s0.6,0.1,0.9,0.1c0.6,0,1-0.2,1.2-0.5
			c0.3-0.3,0.4-0.8,0.4-1.3V45c-0.2,0.3-0.5,0.5-0.8,0.7s-0.7,0.2-1.1,0.2c-0.8,0-1.5-0.3-2-0.9s-0.7-1.4-0.7-2.4V42.4z M105.7,42.6
			c0,0.7,0.1,1.2,0.4,1.7s0.7,0.6,1.3,0.6c0.4,0,0.7-0.1,0.9-0.3c0.3-0.2,0.5-0.4,0.6-0.7v-3.2c-0.2-0.3-0.4-0.5-0.6-0.7
			c-0.3-0.2-0.6-0.3-0.9-0.3c-0.6,0-1,0.2-1.3,0.7s-0.4,1.1-0.4,1.9V42.6z"/>
		<path d="M111.6,44.9l1-0.2v-4.9l-1-0.2v-0.8h2.2l0.1,1c0.2-0.4,0.5-0.6,0.9-0.8c0.3-0.2,0.7-0.3,1.2-0.3c0.7,0,1.3,0.2,1.7,0.7
			s0.6,1.1,0.6,2v3.4l1,0.2v0.8h-3.3v-0.8l1-0.2v-3.3c0-0.6-0.1-1-0.4-1.3c-0.2-0.3-0.6-0.4-1.1-0.4c-0.4,0-0.7,0.1-1,0.3
			c-0.3,0.2-0.5,0.4-0.7,0.7v4l1,0.2v0.8h-3.3V44.9z"/>
	</g>
	<g class="st0">
		<path d="M46,59.9l1-0.2v-4.9l-1-0.2v-0.8h2.2l0.1,0.9c0.2-0.3,0.5-0.6,0.9-0.8s0.7-0.3,1.2-0.3s0.8,0.1,1.2,0.3
			c0.3,0.2,0.6,0.5,0.7,1c0.2-0.4,0.5-0.7,0.9-0.9s0.8-0.3,1.2-0.3c0.7,0,1.3,0.2,1.7,0.7s0.6,1.2,0.6,2.2v3.1l1,0.2v0.8h-3.3v-0.8
			l1-0.2v-3.1c0-0.7-0.1-1.2-0.3-1.4s-0.6-0.4-1-0.4c-0.4,0-0.8,0.2-1.1,0.5c-0.3,0.3-0.4,0.7-0.5,1.2v3.4l1,0.2v0.8h-3.3v-0.8
			l1-0.2v-3.1c0-0.6-0.1-1.1-0.4-1.4c-0.2-0.3-0.6-0.4-1-0.4c-0.4,0-0.7,0.1-0.9,0.2c-0.2,0.2-0.4,0.4-0.6,0.7v4.1l1,0.2v0.8H46
			V59.9z"/>
		<path d="M63,60.7c0-0.2-0.1-0.4-0.1-0.5c0-0.1,0-0.3,0-0.4c-0.2,0.3-0.5,0.6-0.9,0.8c-0.4,0.2-0.7,0.3-1.2,0.3
			c-0.7,0-1.3-0.2-1.6-0.5c-0.4-0.3-0.6-0.8-0.6-1.5c0-0.7,0.3-1.2,0.8-1.5c0.5-0.4,1.2-0.5,2.2-0.5h1.3V56c0-0.4-0.1-0.7-0.4-1
			c-0.3-0.2-0.6-0.4-1.1-0.4c-0.3,0-0.6,0-0.8,0.1c-0.2,0.1-0.4,0.2-0.6,0.3l-0.1,0.7h-1v-1.3c0.3-0.2,0.7-0.4,1.1-0.6
			s0.9-0.2,1.4-0.2c0.8,0,1.4,0.2,1.9,0.6s0.7,1,0.7,1.7v3.3c0,0.1,0,0.2,0,0.3c0,0.1,0,0.2,0,0.3l0.5,0.1v0.8H63z M61,59.8
			c0.4,0,0.8-0.1,1.1-0.3c0.3-0.2,0.6-0.4,0.7-0.7v-1.1h-1.3c-0.5,0-0.9,0.1-1.2,0.4c-0.3,0.2-0.4,0.5-0.4,0.9
			c0,0.3,0.1,0.5,0.3,0.7C60.4,59.8,60.7,59.8,61,59.8z"/>
		<path d="M65.5,59.9l1-0.2v-4.9l-1-0.2v-0.8h2.2l0.1,1c0.2-0.4,0.5-0.6,0.9-0.8c0.3-0.2,0.7-0.3,1.2-0.3c0.7,0,1.3,0.2,1.7,0.7
			s0.6,1.1,0.6,2v3.4l1,0.2v0.8h-3.3v-0.8l1-0.2v-3.3c0-0.6-0.1-1-0.4-1.3c-0.2-0.3-0.6-0.4-1.1-0.4c-0.4,0-0.7,0.1-1,0.3
			c-0.3,0.2-0.5,0.4-0.7,0.7v4l1,0.2v0.8h-3.3V59.9z"/>
		<path d="M78.6,60.7c0-0.2-0.1-0.4-0.1-0.5c0-0.1,0-0.3,0-0.4c-0.2,0.3-0.5,0.6-0.9,0.8c-0.4,0.2-0.7,0.3-1.2,0.3
			c-0.7,0-1.3-0.2-1.6-0.5c-0.4-0.3-0.6-0.8-0.6-1.5c0-0.7,0.3-1.2,0.8-1.5c0.5-0.4,1.2-0.5,2.2-0.5h1.3V56c0-0.4-0.1-0.7-0.4-1
			c-0.3-0.2-0.6-0.4-1.1-0.4c-0.3,0-0.6,0-0.8,0.1c-0.2,0.1-0.4,0.2-0.6,0.3l-0.1,0.7h-1v-1.3c0.3-0.2,0.7-0.4,1.1-0.6
			s0.9-0.2,1.4-0.2c0.8,0,1.4,0.2,1.9,0.6s0.7,1,0.7,1.7v3.3c0,0.1,0,0.2,0,0.3c0,0.1,0,0.2,0,0.3l0.5,0.1v0.8H78.6z M76.6,59.8
			c0.4,0,0.8-0.1,1.1-0.3c0.3-0.2,0.6-0.4,0.7-0.7v-1.1h-1.3c-0.5,0-0.9,0.1-1.2,0.4c-0.3,0.2-0.4,0.5-0.4,0.9
			c0,0.3,0.1,0.5,0.3,0.7C75.9,59.8,76.2,59.8,76.6,59.8z"/>
		<path d="M81.3,57.4c0-1.1,0.2-2,0.7-2.7s1.1-1,2-1c0.4,0,0.8,0.1,1.1,0.3s0.6,0.4,0.8,0.7l0.1-0.9h1.1v6.8c0,0.9-0.2,1.6-0.7,2.1
			s-1.2,0.8-2.1,0.8c-0.3,0-0.7,0-1.1-0.1s-0.7-0.2-1-0.4l0.3-1c0.2,0.1,0.5,0.2,0.8,0.3s0.6,0.1,0.9,0.1c0.6,0,1-0.2,1.2-0.5
			c0.3-0.3,0.4-0.8,0.4-1.3V60c-0.2,0.3-0.5,0.5-0.8,0.7s-0.7,0.2-1.1,0.2c-0.8,0-1.5-0.3-2-0.9s-0.7-1.4-0.7-2.4V57.4z M82.5,57.6
			c0,0.7,0.1,1.2,0.4,1.7s0.7,0.6,1.3,0.6c0.4,0,0.7-0.1,0.9-0.3c0.3-0.2,0.5-0.4,0.6-0.7v-3.2c-0.2-0.3-0.4-0.5-0.6-0.7
			c-0.3-0.2-0.6-0.3-0.9-0.3c-0.6,0-1,0.2-1.3,0.7s-0.4,1.1-0.4,1.9V57.6z"/>
		<path d="M91.7,60.9c-1,0-1.7-0.3-2.3-1c-0.6-0.6-0.8-1.5-0.8-2.5v-0.3c0-1,0.3-1.8,0.9-2.4c0.6-0.6,1.3-1,2.1-1
			c0.9,0,1.6,0.3,2.1,0.8c0.5,0.6,0.7,1.3,0.7,2.2v0.8h-4.5l0,0c0,0.7,0.2,1.2,0.5,1.6c0.3,0.4,0.8,0.6,1.4,0.6
			c0.4,0,0.8-0.1,1.1-0.2c0.3-0.1,0.6-0.3,0.8-0.5l0.5,0.8c-0.2,0.2-0.6,0.4-1,0.6C92.8,60.8,92.3,60.9,91.7,60.9z M91.5,54.7
			c-0.4,0-0.8,0.2-1.1,0.5s-0.5,0.8-0.5,1.3l0,0h3.2v-0.2c0-0.5-0.1-0.9-0.4-1.2S92.1,54.7,91.5,54.7z"/>
		<path d="M95.3,59.9l1-0.2v-4.9l-1-0.2v-0.8h2.2l0.1,0.9c0.2-0.3,0.5-0.6,0.9-0.8s0.7-0.3,1.2-0.3s0.8,0.1,1.2,0.3
			c0.3,0.2,0.6,0.5,0.7,1c0.2-0.4,0.5-0.7,0.9-0.9s0.8-0.3,1.2-0.3c0.7,0,1.3,0.2,1.7,0.7s0.6,1.2,0.6,2.2v3.1l1,0.2v0.8h-3.3v-0.8
			l1-0.2v-3.1c0-0.7-0.1-1.2-0.3-1.4s-0.6-0.4-1-0.4c-0.4,0-0.8,0.2-1.1,0.5c-0.3,0.3-0.4,0.7-0.5,1.2v3.4l1,0.2v0.8h-3.3v-0.8
			l1-0.2v-3.1c0-0.6-0.1-1.1-0.4-1.4c-0.2-0.3-0.6-0.4-1-0.4c-0.4,0-0.7,0.1-0.9,0.2c-0.2,0.2-0.4,0.4-0.6,0.7v4.1l1,0.2v0.8h-3.3
			V59.9z"/>
		<path d="M110.9,60.9c-1,0-1.7-0.3-2.3-1c-0.6-0.6-0.8-1.5-0.8-2.5v-0.3c0-1,0.3-1.8,0.9-2.4c0.6-0.6,1.3-1,2.1-1
			c0.9,0,1.6,0.3,2.1,0.8c0.5,0.6,0.7,1.3,0.7,2.2v0.8h-4.5l0,0c0,0.7,0.2,1.2,0.5,1.6c0.3,0.4,0.8,0.6,1.4,0.6
			c0.4,0,0.8-0.1,1.1-0.2c0.3-0.1,0.6-0.3,0.8-0.5l0.5,0.8c-0.2,0.2-0.6,0.4-1,0.6C112,60.8,111.5,60.9,110.9,60.9z M110.8,54.7
			c-0.4,0-0.8,0.2-1.1,0.5s-0.5,0.8-0.5,1.3l0,0h3.2v-0.2c0-0.5-0.1-0.9-0.4-1.2S111.3,54.7,110.8,54.7z"/>
		<path d="M114.6,59.9l1-0.2v-4.9l-1-0.2v-0.8h2.2l0.1,1c0.2-0.4,0.5-0.6,0.9-0.8c0.3-0.2,0.7-0.3,1.2-0.3c0.7,0,1.3,0.2,1.7,0.7
			s0.6,1.1,0.6,2v3.4l1,0.2v0.8h-3.3v-0.8l1-0.2v-3.3c0-0.6-0.1-1-0.4-1.3c-0.2-0.3-0.6-0.4-1.1-0.4c-0.4,0-0.7,0.1-1,0.3
			c-0.3,0.2-0.5,0.4-0.7,0.7v4l1,0.2v0.8h-3.3V59.9z"/>
		<path d="M125.3,52.2v1.7h1.3v0.9h-1.3V59c0,0.3,0.1,0.5,0.2,0.7c0.1,0.1,0.3,0.2,0.5,0.2c0.1,0,0.2,0,0.4,0c0.1,0,0.3,0,0.3-0.1
			l0.2,0.9c-0.1,0.1-0.3,0.1-0.5,0.2s-0.5,0.1-0.7,0.1c-0.5,0-0.9-0.2-1.2-0.5s-0.5-0.8-0.5-1.4v-4.2H123v-0.9h1.1v-1.7H125.3z"/>
	</g>
	<path class="st10" d="M321.5,141.4c0-9.5,13.4-17.1,29.9-17.1s29.9,7.7,29.9,17.1s-13.4,17.1-29.9,17.1S321.5,150.9,321.5,141.4
		L321.5,141.4z"/>
	<path class="st11" d="M321.5,141.4c0-9.5,13.4-17.1,29.9-17.1s29.9,7.7,29.9,17.1s-13.4,17.1-29.9,17.1S321.5,150.9,321.5,141.4
		L321.5,141.4z"/>
	<path class="st10" d="M321.5,141.4c0,9.5,13.4,17.1,29.9,17.1s29.9-7.7,29.9-17.1v11.7c0,9.5-13.4,17.1-29.9,17.1
		s-29.9-7.7-29.9-17.1V141.4L321.5,141.4z"/>
	<path class="st11" d="M321.5,141.4c0,9.5,13.4,17.1,29.9,17.1s29.9-7.7,29.9-17.1v11.7c0,9.5-13.4,17.1-29.9,17.1
		s-29.9-7.7-29.9-17.1V141.4L321.5,141.4z"/>
	<path class="st10" d="M321.5,153.2c0,9.5,13.4,17.1,29.9,17.1s29.9-7.7,29.9-17.1v11.7c0,9.5-13.4,17.1-29.9,17.1
		s-29.9-7.7-29.9-17.1V153.2L321.5,153.2z"/>
	<path class="st11" d="M321.5,153.2c0,9.5,13.4,17.1,29.9,17.1s29.9-7.7,29.9-17.1v11.7c0,9.5-13.4,17.1-29.9,17.1
		s-29.9-7.7-29.9-17.1V153.2L321.5,153.2z"/>
	<path class="st10" d="M321.5,164.5c0,9.6,13.4,17.4,29.9,17.4s29.9-7.8,29.9-17.4v11.9c0,9.6-13.4,17.4-29.9,17.4
		s-29.9-7.8-29.9-17.4V164.5L321.5,164.5z"/>
	<path class="st11" d="M321.5,164.5c0,9.6,13.4,17.4,29.9,17.4s29.9-7.8,29.9-17.4v11.9c0,9.6-13.4,17.4-29.9,17.4
		s-29.9-7.8-29.9-17.4V164.5L321.5,164.5z"/>
	<polygon class="st12" points="346,142.5 355.8,142.5 355.8,148.4 367.8,136.5 355.8,124.6 355.8,130.5 346,130.5 	"/>
	<polygon class="st11" points="346,142.5 355.8,142.5 355.8,148.4 367.8,136.5 355.8,124.6 355.8,130.5 346,130.5 	"/>
	<polygon class="st10" points="355.8,118.5 346,118.5 346,112.5 334,124.5 346,136.4 346,130.5 355.8,130.5 	"/>
	<polygon class="st13" points="355.8,118.5 346,118.5 346,112.5 334,124.5 346,136.4 346,130.5 355.8,130.5 	"/>
	<path class="st6" d="M225.6,120.2l6.6,6.6c19.5-19.5,51.1-19.5,70.6,0l-5.1,5.1h16.7v-16.7l-5.1,5.1
		C286.3,97.2,248.7,97.2,225.6,120.2L225.6,120.2z"/>
	<path class="st7" d="M225.6,120.2l6.6,6.6c19.5-19.5,51.1-19.5,70.6,0l-5.1,5.1h16.7v-16.7l-5.1,5.1
		C286.3,97.2,248.7,97.2,225.6,120.2L225.6,120.2z"/>
	<path class="st6" d="M389.4,210.6l9.2-9.2c27.2,27.3,71.4,27.3,98.5,0l-7.1-7.1h23.3v23.4l-7.1-7.1
		C474,242.9,421.6,242.9,389.4,210.6L389.4,210.6z"/>
	<path class="st9" d="M389.4,210.6l9.2-9.2c27.2,27.3,71.4,27.3,98.5,0l-7.1-7.1h23.3v23.4l-7.1-7.1
		C474,242.9,421.6,242.9,389.4,210.6L389.4,210.6z"/>
	<path class="st5" d="M448.9,105.1c8.2,0,14.9-6.7,14.9-14.9s-6.7-14.9-14.9-14.9c-8.2,0-14.9,6.7-14.9,14.9
		S440.7,105.1,448.9,105.1L448.9,105.1z"/>
	<path class="st14" d="M448.9,105.1c8.2,0,14.9-6.7,14.9-14.9s-6.7-14.9-14.9-14.9c-8.2,0-14.9,6.7-14.9,14.9
		S440.7,105.1,448.9,105.1L448.9,105.1z"/>
	<path class="st3" d="M451.3,91.7h-4.5v-1.6h4.5v-1.6h-4.5v-0.2c0-1,0.2-1.7,0.7-2.3c0.5-0.6,1.1-0.8,2-0.8c0.4,0,0.8,0,1.2,0.1
		c0.4,0.1,0.8,0.2,1.2,0.3l0.2-2.4c-0.5-0.1-0.9-0.2-1.3-0.2c-0.4-0.1-0.8-0.1-1.2-0.1c-1.7,0-3.1,0.5-4.2,1.5s-1.6,2.3-1.6,4v0.1
		h-1.5v1.6h1.5v1.6h-1.5v1.6h1.5v0.1c0,1.6,0.5,2.9,1.6,3.8s2.5,1.4,4.2,1.4c0.4,0,0.9,0,1.3-0.1s0.8-0.1,1.2-0.2l-0.2-2.4
		c-0.4,0.1-0.7,0.2-1.1,0.3c-0.4,0.1-0.8,0.1-1.2,0.1c-0.8,0-1.5-0.2-2-0.8c-0.5-0.5-0.7-1.2-0.7-2.1v-0.1h4.5v-1.6H451.3z"/>
	<path class="st5" d="M91.1,104.1c8.2,0,14.9-6.7,14.9-14.9s-6.7-14.9-14.9-14.9S76.2,81,76.2,89.2C76.2,97.5,82.9,104.1,91.1,104.1
		L91.1,104.1z"/>
	<g>
		<g>
			<defs>
				<path id="SVGID_3_" d="M91.1,104.1c8.2,0,14.9-6.7,14.9-14.9s-6.7-14.9-14.9-14.9S76.2,81,76.2,89.2
					C76.2,97.5,82.9,104.1,91.1,104.1L91.1,104.1z"/>
			</defs>
			<clipPath id="SVGID_4_">
				<use xlink:href="#SVGID_3_"  style="overflow:visible;"/>
			</clipPath>
			<path class="st15" d="M96.4,86.5h-1.7v-1.3c0-2-1.6-3.6-3.6-3.6s-3.6,1.6-3.6,3.6v1.3h-1.8c-0.4,0-0.7,0.3-0.7,0.7V95
				c0,0.4,0.3,0.7,0.7,0.7h10.7c0.4,0,0.7-0.3,0.7-0.7v-7.8C97.1,86.9,96.8,86.5,96.4,86.5L96.4,86.5z M92.3,92.8
				c0,0.6-0.5,1.1-1.1,1.1s-1.1-0.5-1.1-1.1v-3.4c0-0.6,0.5-1.1,1.1-1.1s1.1,0.5,1.1,1.1V92.8L92.3,92.8z M93.2,86.5H89v-1.3
				c0-1.2,0.9-2.1,2.1-2.1s2.1,0.9,2.1,2.1V86.5L93.2,86.5z"/>
		</g>
	</g>
	<path class="st14" d="M91.1,104.1c8.2,0,14.9-6.7,14.9-14.9s-6.7-14.9-14.9-14.9S76.2,81,76.2,89.2
		C76.2,97.5,82.9,104.1,91.1,104.1L91.1,104.1z"/>
	<path class="st3" d="M270.8,220.6c7.8,0,14.2-6.3,14.2-14.2c0-7.8-6.3-14.2-14.2-14.2c-7.8,0-14.2,6.3-14.2,14.2
		C256.6,214.2,263,220.6,270.8,220.6L270.8,220.6z"/>
	<g>
		<g>
			<defs>
				<path id="SVGID_5_" d="M270.8,220.6c7.8,0,14.2-6.3,14.2-14.2c0-7.8-6.3-14.2-14.2-14.2c-7.8,0-14.2,6.3-14.2,14.2
					C256.6,214.2,263,220.6,270.8,220.6L270.8,220.6z"/>
			</defs>
			<clipPath id="SVGID_6_">
				<use xlink:href="#SVGID_5_"  style="overflow:visible;"/>
			</clipPath>
			<path class="st16" d="M277.3,211.1l-3.5-3.5c-0.2-0.2-0.5-0.3-0.7-0.4c1.3-1.9,1.1-4.6-0.7-6.3c-2-2-5.1-2-7.1,0s-2,5.1,0,7.1
				c1.7,1.7,4.3,1.9,6.3,0.7c0,0.3,0.2,0.5,0.4,0.7l3.5,3.5c0.5,0.5,1.3,0.5,1.8,0C277.8,212.4,277.8,211.6,277.3,211.1 M266.3,207
				c-1.4-1.4-1.4-3.7,0-5.1c1.4-1.4,3.7-1.4,5.1,0s1.4,3.7,0,5.1C270,208.4,267.7,208.4,266.3,207"/>
		</g>
	</g>
	<path class="st17" d="M270.8,220.6c7.8,0,14.2-6.3,14.2-14.2c0-7.8-6.3-14.2-14.2-14.2c-7.8,0-14.2,6.3-14.2,14.2
		C256.6,214.2,263,220.6,270.8,220.6L270.8,220.6z"/>
	<path class="st6" d="M218.1,157.6c0-17.3-14-31.3-31.3-31.3s-31.3,14-31.3,31.3s14,31.3,31.3,31.3
		C204.1,188.9,218.1,174.9,218.1,157.6L218.1,157.6z M204.7,157.6c0,9.9-8,17.9-17.9,17.9s-17.9-8-17.9-17.9s8-17.9,17.9-17.9
		C196.7,139.7,204.7,147.7,204.7,157.6L204.7,157.6z"/>
	<path class="st3" d="M191.3,157.6c0,2.5-2,4.5-4.5,4.5s-4.5-2-4.5-4.5s2-4.5,4.5-4.5S191.3,155.1,191.3,157.6L191.3,157.6z"/>
	<path class="st3" d="M190.6,131.8c12.1,0,22,9.9,22,22s-9.9,22-22,22s-22-9.9-22-22S178.5,131.8,190.6,131.8 M190.6,126.2
		c-15.3,0-27.6,12.4-27.6,27.6c0,15.3,12.4,27.6,27.6,27.6c15.3,0,27.6-12.4,27.6-27.6C218.3,138.6,205.9,126.2,190.6,126.2
		L190.6,126.2L190.6,126.2z"/>
	<polygon class="st3" points="257.3,85.3 257.3,117.8 290,117.8 290,85.3 	"/>
	<polygon class="st18" points="257.3,85.3 257.3,117.8 290,117.8 290,85.3 	"/>
	<polygon class="st3" points="253.3,89.3 253.3,121.8 286,121.8 286,89.3 	"/>
	<polygon class="st18" points="253.3,89.3 253.3,121.8 286,121.8 286,89.3 	"/>
	<polygon class="st3" points="249.3,93.3 249.3,125.8 282,125.8 282,93.3 	"/>
	<polygon class="st18" points="249.3,93.3 249.3,125.8 282,125.8 282,93.3 	"/>
	<polygon class="st6" points="253.5,97.1 253.5,110.3 278.7,110.3 278.7,97.1 	"/>
	<g>
		<g>
			<defs>
				<rect id="SVGID_7_" x="253.5" y="97.1" width="25.2" height="13.2"/>
			</defs>
			<clipPath id="SVGID_8_">
				<use xlink:href="#SVGID_7_"  style="overflow:visible;"/>
			</clipPath>
			<path class="st19" d="M270.7,116v-9.1c0-1.4-0.9-2.6-2.3-2.6h-6c-1.4,0-2.3,1.1-2.3,2.6v9.1c0,0,0,1.1,0.8,1.1
				c0.9,0,0.9-1,0.9-1.1v-8.8c0-0.2,0-0.5,0.4-0.5c0.3,0,0.4,0.4,0.4,0.5v21h2.4V116c0-0.2,0.1-0.4,0.5-0.4c0.3,0,0.5,0.2,0.5,0.4
				v12.2h2.4v-21c0-0.2,0-0.5,0.4-0.5c0.3,0,0.4,0.4,0.4,0.5v8.8c0,0,0.1,1.1,0.9,1.1C270.7,117.1,270.7,116.1,270.7,116L270.7,116z
				 M267.4,101c0-1.3-0.9-2.3-2.1-2.3c-1.1,0-2.1,1-2.1,2.3s0.9,2.3,2.1,2.3S267.4,102.3,267.4,101L267.4,101z"/>
		</g>
	</g>
	<path class="st20" d="M253.6,113.5H278 M253.6,116.8H278 M253.6,120.1h17.9"/>
	<polygon class="st3" points="79.7,207.6 79.7,238.3 110.7,238.3 110.7,207.6 	"/>
	<polygon class="st21" points="79.7,207.6 79.7,238.3 110.7,238.3 110.7,207.6 	"/>
	<polygon class="st3" points="75.9,211.3 75.9,242.1 106.9,242.1 106.9,211.3 	"/>
	<polygon class="st21" points="75.9,211.3 75.9,242.1 106.9,242.1 106.9,211.3 	"/>
	<polygon class="st3" points="72.2,215.1 72.2,245.9 103.1,245.9 103.1,215.1 	"/>
	<polygon class="st21" points="72.2,215.1 72.2,245.9 103.1,245.9 103.1,215.1 	"/>
	<polygon class="st22" points="76.1,218.8 76.1,231.2 100,231.2 100,218.8 	"/>
	<g class="st0">
		<path class="st3" d="M84.6,222.7c0-0.5,0.2-0.9,0.5-1.2s0.7-0.5,1.2-0.5c0.5,0,0.9,0.2,1.2,0.5c0.3,0.3,0.4,0.7,0.4,1.2v0.4
			c0,0.5-0.1,0.9-0.4,1.2c-0.3,0.3-0.7,0.5-1.2,0.5c-0.5,0-0.9-0.2-1.2-0.5c-0.3-0.3-0.5-0.7-0.5-1.2V222.7z M85.4,223.1
			c0,0.3,0.1,0.5,0.2,0.7c0.1,0.2,0.4,0.3,0.6,0.3c0.3,0,0.5-0.1,0.6-0.3c0.1-0.2,0.2-0.4,0.2-0.7v-0.4c0-0.3-0.1-0.5-0.2-0.7
			c-0.2-0.2-0.4-0.3-0.6-0.3c-0.3,0-0.5,0.1-0.6,0.3c-0.1,0.2-0.2,0.4-0.2,0.7V223.1z M86.6,228.5l-0.6-0.4l3.9-6.2l0.6,0.4
			L86.6,228.5z M88.4,227.2c0-0.5,0.1-0.9,0.4-1.2c0.3-0.3,0.7-0.5,1.2-0.5c0.5,0,0.9,0.2,1.2,0.5c0.3,0.3,0.5,0.7,0.5,1.2v0.4
			c0,0.5-0.2,0.9-0.5,1.2s-0.7,0.5-1.2,0.5c-0.5,0-0.9-0.2-1.2-0.5c-0.3-0.3-0.4-0.7-0.4-1.2V227.2z M89.2,227.6
			c0,0.3,0.1,0.5,0.2,0.7s0.4,0.3,0.6,0.3c0.3,0,0.5-0.1,0.6-0.3c0.1-0.2,0.2-0.4,0.2-0.7v-0.4c0-0.3-0.1-0.5-0.2-0.7
			s-0.4-0.3-0.6-0.3c-0.3,0-0.5,0.1-0.6,0.3c-0.1,0.2-0.2,0.4-0.2,0.7V227.6z"/>
	</g>
	<path class="st23" d="M76.3,234.3h23 M76.3,237.4h23 M76.3,240.5h16.9"/>
	<polygon class="st3" points="438.9,206.1 438.9,238.3 471.2,238.3 471.2,206.1 	"/>
	<polygon class="st24" points="438.9,206.1 438.9,238.3 471.2,238.3 471.2,206.1 	"/>
	<polygon class="st3" points="434.9,210.1 434.9,242.3 467.3,242.3 467.3,210.1 	"/>
	<polygon class="st24" points="434.9,210.1 434.9,242.3 467.3,242.3 467.3,210.1 	"/>
	<polygon class="st3" points="430.9,214 430.9,246.2 463.3,246.2 463.3,214 	"/>
	<polygon class="st24" points="430.9,214 430.9,246.2 463.3,246.2 463.3,214 	"/>
	<polygon class="st6" points="435.1,217.8 435.1,230.9 460.1,230.9 460.1,217.8 	"/>
	<g>
		<g>
			<defs>
				<rect id="SVGID_9_" x="435.1" y="217.8" width="25" height="13.1"/>
			</defs>
			<clipPath id="SVGID_10_">
				<use xlink:href="#SVGID_9_"  style="overflow:visible;"/>
			</clipPath>
			<path class="st25" d="M446.8,233.2v-6.9c0-1.1-0.7-1.9-1.8-1.9h-4.6c-1.1,0-1.8,0.9-1.8,1.9v6.9c0,0,0,0.8,0.6,0.8
				c0.7,0,0.7-0.8,0.7-0.8v-6.7c0-0.1,0-0.4,0.3-0.4s0.3,0.3,0.3,0.4v16h1.8v-9.3c0-0.1,0.1-0.3,0.3-0.3c0.2,0,0.3,0.2,0.3,0.3v9.3
				h1.8v-16c0-0.1,0-0.4,0.3-0.4c0.2,0,0.3,0.3,0.3,0.4v6.7c0,0,0,0.8,0.7,0.8C446.8,234.1,446.8,233.3,446.8,233.2L446.8,233.2z
				 M444.3,221.8c0-1-0.7-1.8-1.6-1.8s-1.6,0.8-1.6,1.8s0.7,1.8,1.6,1.8C443.6,223.6,444.3,222.8,444.3,221.8L444.3,221.8z"/>
		</g>
	</g>
	<path class="st26" d="M435.3,234.1h24.1 M435.3,237.3h24.1 M435.3,240.6H453"/>
	<path class="st3" d="M449.9,222.5c0,0.5,0.2,0.9,0.5,1.3c0.3,0.3,0.8,0.5,1.4,0.5s1-0.2,1.4-0.5c0.3-0.3,0.5-0.8,0.5-1.3V222
		c0-0.5-0.2-0.9-0.5-1.3c-0.3-0.3-0.8-0.5-1.4-0.5s-1,0.2-1.4,0.5c-0.3,0.3-0.5,0.8-0.5,1.3V222.5L449.9,222.5z M451,222
		c0-0.2,0.1-0.4,0.2-0.6c0.1-0.2,0.3-0.2,0.5-0.2s0.4,0.1,0.5,0.2c0.1,0.2,0.2,0.4,0.2,0.6v0.5c0,0.2-0.1,0.4-0.2,0.6
		c-0.1,0.2-0.3,0.2-0.5,0.2s-0.4-0.1-0.5-0.2c-0.1-0.2-0.2-0.3-0.2-0.6V222L451,222z M454,227.3c0,0.5,0.2,0.9,0.5,1.3
		c0.3,0.3,0.8,0.5,1.4,0.5s1-0.2,1.4-0.5c0.3-0.3,0.5-0.8,0.5-1.3v-0.5c0-0.5-0.2-0.9-0.5-1.3s-0.8-0.5-1.4-0.5s-1,0.2-1.4,0.5
		c-0.3,0.3-0.5,0.8-0.5,1.3V227.3L454,227.3z M455.1,226.9c0-0.2,0.1-0.4,0.2-0.6c0.1-0.2,0.3-0.2,0.5-0.2s0.4,0.1,0.5,0.2
		c0.1,0.2,0.2,0.4,0.2,0.6v0.5c0,0.2-0.1,0.4-0.2,0.6c-0.1,0.1-0.3,0.2-0.5,0.2s-0.4-0.1-0.5-0.2c-0.1-0.2-0.2-0.4-0.2-0.6V226.9
		L455.1,226.9z M456.4,221.6l-0.8-0.4l-4.2,6.7l0.8,0.4L456.4,221.6L456.4,221.6z"/>
	<path class="st5" d="M55,154.4v-17.9c0-1.3-1.1-2.4-2.4-2.4H22.9c-1.3,0-2.4,1.1-2.4,2.4v17.9c0,1.1,0.8,2.1,1.8,2.3l-8.8,2.6
		c0,1.9,1.5,2.5,3.3,2.5H58c1.8,0,3.3-0.6,3.3-2.5l-8.6-2.6C54.1,156.7,55,155.7,55,154.4L55,154.4z M53.2,155H22.4v-18.9h30.8
		L53.2,155L53.2,155z"/>
	<path class="st6" d="M48.9,152.7v-13.9h-2.5v13.9H48.9L48.9,152.7z M42.6,152.7h2.5v-9.2h-2.5V152.7L42.6,152.7z M38.8,152.7h2.5
		v-6.1h-2.5V152.7L38.8,152.7z"/>
	<polygon class="st22" points="24.8,138.5 24.8,152.5 36.6,152.5 36.6,138.5 	"/>
	<g class="st0">
		<path class="st3" d="M28.2,143.9c0-0.3,0.1-0.6,0.3-0.8c0.2-0.2,0.5-0.3,0.9-0.3c0.4,0,0.7,0.1,0.9,0.3s0.3,0.5,0.3,0.8v0.3
			c0,0.3-0.1,0.6-0.3,0.8c-0.2,0.2-0.5,0.3-0.9,0.3c-0.4,0-0.6-0.1-0.9-0.3c-0.2-0.2-0.3-0.5-0.3-0.8V143.9z M28.8,144.2
			c0,0.2,0.1,0.4,0.2,0.5s0.3,0.2,0.5,0.2c0.2,0,0.3-0.1,0.4-0.2c0.1-0.1,0.2-0.3,0.2-0.5v-0.3c0-0.2-0.1-0.4-0.2-0.5
			c-0.1-0.1-0.3-0.2-0.5-0.2s-0.3,0.1-0.4,0.2c-0.1,0.1-0.2,0.3-0.2,0.5V144.2z M29.6,148.1l-0.4-0.3l2.8-4.5l0.4,0.3L29.6,148.1z
			 M31,147.1c0-0.3,0.1-0.6,0.3-0.8c0.2-0.2,0.5-0.3,0.9-0.3c0.4,0,0.6,0.1,0.9,0.3c0.2,0.2,0.3,0.5,0.3,0.8v0.3
			c0,0.3-0.1,0.6-0.3,0.8c-0.2,0.2-0.5,0.3-0.9,0.3c-0.4,0-0.7-0.1-0.9-0.3c-0.2-0.2-0.3-0.5-0.3-0.8V147.1z M31.5,147.4
			c0,0.2,0.1,0.4,0.2,0.5c0.1,0.1,0.3,0.2,0.5,0.2c0.2,0,0.3-0.1,0.4-0.2c0.1-0.1,0.2-0.3,0.2-0.5v-0.3c0-0.2-0.1-0.4-0.2-0.5
			s-0.3-0.2-0.5-0.2c-0.2,0-0.3,0.1-0.4,0.2c-0.1,0.1-0.2,0.3-0.2,0.5V147.4z"/>
	</g>
</g>
</svg>
