<?xml version="1.0" encoding="utf-8"?>
<svg version="1.1" id="Layer_1" xmlns="http://www.w3.org/2000/svg" xmlns:xlink="http://www.w3.org/1999/xlink" x="0px" y="0px"
	 viewBox="0 0 1400 940" style="enable-background:new 0 0 1400 940;" xml:space="preserve">
<style type="text/css">
	.st0{fill:url(#SVGID_1_);}
	.st1{opacity:5.000000e-002;}
	.st2{fill:#FFFFFF;}
	.st3{opacity:0.5;}
	.st4{fill:none;stroke:#FFFFFF;stroke-width:3;stroke-linecap:round;stroke-linejoin:round;}
	.st5{opacity:0.8;fill:#FFFFFF;}
</style>
<radialGradient id="SVGID_1_" cx="977.6124" cy="-287.5886" r="1171.8308" gradientTransform="matrix(0.9069 0 0 0.6293 -18.4997 589.3599)" gradientUnits="userSpaceOnUse">
	<stop  offset="0" style="stop-color:#95D4ED"/>
	<stop  offset="0.1333" style="stop-color:#60AAD0"/>
	<stop  offset="0.3333" style="stop-color:#32759D"/>
	<stop  offset="0.5394" style="stop-color:#0E486E"/>
	<stop  offset="0.7091" style="stop-color:#102F50"/>
	<stop  offset="0.8545" style="stop-color:#0B1D32"/>
	<stop  offset="1" style="stop-color:#050505"/>
</radialGradient>
<rect x="-211.7" y="-159.6" class="st0" width="1741.6" height="1208.5"/>
<g class="st1">
	<g>
		<path class="st2" d="M-261.7,1059.5c2.3-2.3,3.7-5,4.3-8H-89L103.5,859c6.4,5.1,15.6,4.7,21.5-1.2c6.3-6.3,6.3-16.6,0-22.9
			s-16.6-6.3-22.9,0c-5.8,5.8-6.2,14.8-1.5,21.1l-191.3,191.3h-166.4c-0.2-3.9-1.7-7.8-4.7-10.8c-6.3-6.3-16.6-6.3-22.9,0
			c-6.3,6.3-6.3,16.6,0,22.9C-278.3,1065.8-268,1065.8-261.7,1059.5z M108,840.8c3.1-3.1,8.1-3.1,11.2,0c3.1,3.1,3.1,8.1,0,11.2
			s-8.1,3.1-11.2,0C104.9,848.9,104.9,843.9,108,840.8z M-278.7,1042.4c3.1-3.1,8.1-3.1,11.2,0c3.1,3.1,3.1,8.1,0,11.2
			c-3.1,3.1-8.1,3.1-11.2,0C-281.8,1050.5-281.8,1045.5-278.7,1042.4z"/>
	</g>
	<g>
		<path class="st2" d="M911.3,71.1c5.9-6,6.2-15.4,1-21.7l374.1-374.1l-50.8-50.8c3.9-6.2,3.1-14.6-2.3-20c-6.3-6.3-16.6-6.3-22.9,0
			s-6.3,16.6,0,22.9c6.2,6.2,16.2,6.3,22.6,0.3l47.6,47.6L909.4,46.5c-6.3-4.5-15.2-4-20.9,1.7c-6.3,6.3-6.3,16.6,0,22.9
			C894.6,77.4,904.9,77.4,911.3,71.1z M1216.2-378.5c-3.1-3.1-3.1-8.1,0-11.2c3.1-3.1,8.1-3.1,11.2,0c3.1,3.1,3.1,8.1,0,11.2
			C1224.2-375.4,1219.2-375.4,1216.2-378.5z M894.2,54c3.1-3.1,8.1-3.1,11.2,0c3.1,3.1,3.1,8.1,0,11.2s-8.1,3.1-11.2,0
			S891.1,57.1,894.2,54z"/>
	</g>
	<g>
		<path class="st2" d="M560.6,470.3c5.8-5.8,6.2-15,1.3-21.3l249.3-249.2c6.4,4.9,15.5,4.5,21.3-1.3c6.3-6.3,6.3-16.6,0-22.9
			s-16.6-6.3-22.9,0c-5.8,5.8-6.2,15-1.3,21.3L558.9,446c-6.4-4.9-15.5-4.5-21.3,1.3c-6.3,6.3-6.3,16.6,0,22.9
			C543.9,476.6,554.2,476.6,560.6,470.3z M815.4,181.3c3.1-3.1,8.1-3.1,11.2,0c3.1,3.1,3.1,8.1,0,11.2s-8.1,3.1-11.2,0
			S812.3,184.4,815.4,181.3z M543.5,453.2c3.1-3.1,8.1-3.1,11.2,0c3.1,3.1,3.1,8.1,0,11.2s-8.1,3.1-11.2,0
			C540.4,461.3,540.4,456.3,543.5,453.2z"/>
	</g>
	<g>
		<path class="st2" d="M846.2-139.3c5.8-5.8,6.2-15,1.3-21.3l264-264c6.4,4.9,15.5,4.5,21.3-1.3c6.3-6.3,6.3-16.6,0-22.9
			c-6.3-6.3-16.6-6.3-22.9,0c-5.8,5.8-6.2,15-1.3,21.3l-264,264c-6.4-4.9-15.5-4.5-21.3,1.3c-6.3,6.3-6.3,16.6,0,22.9
			S839.9-133,846.2-139.3z M1115.7-442.9c3.1-3.1,8.1-3.1,11.2,0s3.1,8.1,0,11.2c-3.1,3.1-8.1,3.1-11.2,0
			C1112.7-434.9,1112.7-439.9,1115.7-442.9z M829.1-156.3c3.1-3.1,8.1-3.1,11.2,0c3.1,3.1,3.1,8.1,0,11.2c-3.1,3.1-8.1,3.1-11.2,0
			C826.1-148.2,826.1-153.3,829.1-156.3z"/>
	</g>
	<g>
		<path class="st2" d="M598.7,503.2c5.8-5.8,6.2-15,1.3-21.3l173.7-173.7c6.4,4.9,15.5,4.5,21.3-1.3c6.3-6.3,6.3-16.6,0-22.9
			s-16.6-6.3-22.9,0c-5.8,5.8-6.2,15-1.3,21.3L597.1,479c-6.4-4.9-15.5-4.5-21.3,1.3c-6.3,6.3-6.3,16.6,0,22.9
			S592.4,509.5,598.7,503.2z M778,289.8c3.1-3.1,8.1-3.1,11.2,0c3.1,3.1,3.1,8.1,0,11.2s-8.1,3.1-11.2,0
			C774.9,297.9,774.9,292.9,778,289.8z M581.7,486.1c3.1-3.1,8.1-3.1,11.2,0c3.1,3.1,3.1,8.1,0,11.2s-8.1,3.1-11.2,0
			S578.6,489.2,581.7,486.1z"/>
	</g>
	<g>
		<path class="st2" d="M767,138.8c6.3-6.3,6.3-16.6,0-22.9c-2.7-2.7-6.1-4.1-9.6-4.6V-76.5c3.5-0.4,6.9-1.9,9.6-4.6
			c6.3-6.3,6.3-16.6,0-22.9s-16.6-6.3-22.9,0c-6.3,6.3-6.3,16.6,0,22.9c2.6,2.6,5.8,4.1,9.2,4.5v187.9c-3.4,0.5-6.6,1.9-9.2,4.5
			c-6.3,6.3-6.3,16.6,0,22.9C750.4,145.1,760.6,145.1,767,138.8z M749.9-98.1c3.1-3.1,8.1-3.1,11.2,0c3.1,3.1,3.1,8.1,0,11.2
			s-8.1,3.1-11.2,0S746.8-95,749.9-98.1z M749.9,121.7c3.1-3.1,8.1-3.1,11.2,0c3.1,3.1,3.1,8.1,0,11.2s-8.1,3.1-11.2,0
			C746.8,129.8,746.8,124.8,749.9,121.7z"/>
	</g>
	<g>
		<path class="st2" d="M684.9-308.4c5.8-5.8,6.2-15,1.3-21.3l71.6-71.6c6.4,4.9,15.5,4.5,21.3-1.3c6.3-6.3,6.3-16.6,0-22.9
			s-16.6-6.3-22.9,0c-5.8,5.8-6.2,15-1.3,21.3l-71.6,71.6c-6.4-4.9-15.5-4.5-21.3,1.3c-6.3,6.3-6.3,16.6,0,22.9
			C668.3-302.1,678.6-302.1,684.9-308.4z M762.1-419.7c3.1-3.1,8.1-3.1,11.2,0c3.1,3.1,3.1,8.1,0,11.2c-3.1,3.1-8.1,3.1-11.2,0
			C759-411.6,759-416.6,762.1-419.7z M667.8-325.5c3.1-3.1,8.1-3.1,11.2,0c3.1,3.1,3.1,8.1,0,11.2c-3.1,3.1-8.1,3.1-11.2,0
			C664.8-317.4,664.8-322.4,667.8-325.5z"/>
	</g>
	<g>
		<path class="st2" d="M535-78.1c6.3,6.3,16.6,6.3,22.9,0c6.3-6.3,6.3-16.6,0-22.9c-6.2-6.2-16.4-6.3-22.7-0.2l-69.9-69.9
			l310.6-310.6l48.4,48.4c-5.1,6.4-4.7,15.6,1.2,21.5c6.3,6.3,16.6,6.3,22.9,0s6.3-16.6,0-22.9c-5.7-5.8-14.8-6.2-21.1-1.5
			l-51.4-51.4L459.4-171.1l73.2,73.2C528.8-91.7,529.6-83.5,535-78.1z M842.5-428.9c3.1,3.1,3.1,8.1,0,11.2c-3.1,3.1-8.1,3.1-11.2,0
			c-3.1-3.1-3.1-8.1,0-11.2C834.5-432,839.5-432,842.5-428.9z M540.8-95.2c3.1-3.1,8.1-3.1,11.2,0c3.1,3.1,3.1,8.1,0,11.2
			s-8.1,3.1-11.2,0C537.8-87.1,537.8-92.1,540.8-95.2z"/>
	</g>
	<g>
		<path class="st2" d="M626.6,32.4c6.3-6.3,6.3-16.6,0-22.9c-2.9-2.9-6.7-4.4-10.5-4.7v-147.2l194.4-194.4
			c6.4,5.7,16.2,5.6,22.3-0.5c6.3-6.3,6.3-16.6,0-22.9c-6.3-6.3-16.6-6.3-22.9,0c-5.5,5.5-6.2,14.1-2.1,20.3L612-144.1V5
			c-3,0.6-5.9,2.1-8.2,4.4c-6.3,6.3-6.3,16.6,0,22.9C610,38.7,620.3,38.7,626.6,32.4z M815.7-354.3c3.1-3.1,8.1-3.1,11.2,0
			c3.1,3.1,3.1,8.1,0,11.2s-8.1,3.1-11.2,0S812.6-351.2,815.7-354.3z M609.6,15.4c3.1-3.1,8.1-3.1,11.2,0c3.1,3.1,3.1,8.1,0,11.2
			s-8.1,3.1-11.2,0C606.5,23.5,606.5,18.5,609.6,15.4z"/>
	</g>
	<g>
		<path class="st2" d="M664.9,49.1c6.3-6.3,6.3-16.6,0-22.9c-2.9-2.9-6.7-4.4-10.5-4.7v-149.1L851-324.2c6.3,3.9,14.6,3.2,20.1-2.3
			c6.3-6.3,6.3-16.6,0-22.9c-6.3-6.3-16.6-6.3-22.9,0c-6.2,6.2-6.3,16.2-0.3,22.5L650.4-129.4V21.7c-3,0.6-5.9,2.1-8.2,4.4
			c-6.3,6.3-6.3,16.6,0,22.9C648.3,55.4,658.6,55.4,664.9,49.1z M854-343.5c3.1-3.1,8.1-3.1,11.2,0c3.1,3.1,3.1,8.1,0,11.2
			c-3.1,3.1-8.1,3.1-11.2,0C850.9-335.4,850.9-340.4,854-343.5z M647.8,32.1c3.1-3.1,8.1-3.1,11.2,0c3.1,3.1,3.1,8.1,0,11.1
			c-3.1,3.1-8.1,3.1-11.2,0C644.8,40.1,644.8,35.1,647.8,32.1z"/>
	</g>
	<g>
		<path class="st2" d="M597.2-23.2c6.3-6.3,6.3-16.6,0-22.9c-3.3-3.3-7.7-4.8-12-4.7v-126.1c4.3,0.1,8.7-1.4,12-4.7
			c6.3-6.3,6.3-16.6,0-22.9s-16.6-6.3-22.9,0c-6.3,6.3-6.3,16.6,0,22.9c1.9,2,4.3,3.2,6.8,4v127.5c-2.5,0.8-4.8,2-6.8,4
			c-6.3,6.3-6.3,16.6,0,22.9C580.5-16.8,590.8-16.8,597.2-23.2z M580.1-198.6c3.1-3.1,8.1-3.1,11.2,0c3.1,3.1,3.1,8.1,0,11.2
			c-3.1,3.1-8.1,3.1-11.2,0C577-190.5,577-195.5,580.1-198.6z M580.1-40.2c3.1-3.1,8.1-3.1,11.2,0c3.1,3.1,3.1,8.1,0,11.2
			s-8.1,3.1-11.2,0C577-32.1,577-37.1,580.1-40.2z"/>
	</g>
	<g>
		<path class="st2" d="M369.8,289.3c5.8-5.8,6.2-15,1.3-21.3L559.5,79.6c6.4,4.9,15.5,4.5,21.3-1.3c6.3-6.3,6.3-16.6,0-22.9
			s-16.6-6.3-22.9,0c-5.8,5.8-6.2,15-1.3,21.3L368.2,265.1c-6.4-4.9-15.5-4.5-21.3,1.3c-6.3,6.3-6.3,16.6,0,22.9
			C353.2,295.7,363.5,295.7,369.8,289.3z M563.8,61.2c3.1-3.1,8.1-3.1,11.2,0c3.1,3.1,3.1,8.1,0,11.2s-8.1,3.1-11.2,0
			C560.7,69.3,560.7,64.3,563.8,61.2z M352.8,272.3c3.1-3.1,8.1-3.1,11.2,0s3.1,8.1,0,11.2s-8.1,3.1-11.2,0
			C349.7,280.4,349.7,275.4,352.8,272.3z"/>
	</g>
	<g>
		<path class="st2" d="M295.1,532.6c5.8-5.8,6.2-15,1.3-21.3L650.7,157c6.4,4.9,15.5,4.5,21.3-1.3c6.3-6.3,6.3-16.6,0-22.9
			s-16.6-6.3-22.9,0c-5.8,5.8-6.2,15-1.3,21.3L293.5,508.4c-6.4-4.9-15.5-4.5-21.3,1.3c-6.3,6.3-6.3,16.6,0,22.9
			C278.4,538.9,288.7,538.9,295.1,532.6z M654.9,138.6c3.1-3.1,8.1-3.1,11.2,0c3.1,3.1,3.1,8.1,0,11.2s-8.1,3.1-11.2,0
			S651.8,141.7,654.9,138.6z M278,515.5c3.1-3.1,8.1-3.1,11.2,0s3.1,8.1,0,11.2s-8.1,3.1-11.2,0C274.9,523.6,274.9,518.6,278,515.5z
			"/>
	</g>
	<g>
		<path class="st2" d="M327.4,565c5.8-5.8,6.2-15,1.3-21.3L683,189.4c6.4,4.9,15.5,4.5,21.3-1.3c6.3-6.3,6.3-16.6,0-22.9
			s-16.6-6.3-22.9,0c-5.8,5.8-6.2,15-1.3,21.3L325.8,540.8c-6.4-4.9-15.5-4.5-21.3,1.3c-6.3,6.3-6.3,16.6,0,22.9
			C310.8,571.3,321.1,571.3,327.4,565z M687.3,171c3.1-3.1,8.1-3.1,11.2,0c3.1,3.1,3.1,8.1,0,11.1c-3.1,3.1-8.1,3.1-11.2,0
			C684.2,179.1,684.2,174.1,687.3,171z M310.4,547.9c3.1-3.1,8.1-3.1,11.2,0s3.1,8.1,0,11.2s-8.1,3.1-11.2,0S307.3,551,310.4,547.9z
			"/>
	</g>
	<g>
		<path class="st2" d="M-114.5,981c5.9-5.9,6.2-15.1,1.2-21.5l352.4-352.4V461.4L610.6,89.9c6.2,3.8,14.5,3,19.8-2.4
			c6.3-6.3,6.3-16.6,0-22.9s-16.6-6.3-22.9,0c-6.3,6.3-6.3,16.4-0.2,22.7L235,459.6v145.8l-351.3,351.2c-6.3-4.8-15.4-4.3-21.2,1.5
			c-6.3,6.3-6.3,16.6,0,22.9C-131.1,987.3-120.8,987.3-114.5,981z M613.5,70.3c3.1-3.1,8.1-3.1,11.2,0c3.1,3.1,3.1,8.1,0,11.2
			s-8.1,3.1-11.2,0C610.4,78.4,610.4,73.4,613.5,70.3z M-131.5,963.9c3.1-3.1,8.1-3.1,11.2,0s3.1,8.1,0,11.2s-8.1,3.1-11.2,0
			S-134.6,967-131.5,963.9z"/>
	</g>
	<g>
		<path class="st2" d="M162.3,639.4c6.3-6.3,6.3-16.6,0-22.9c-3.2-3.2-7.3-4.7-11.5-4.7V449.6l109.5-109.5c6.4,5.2,15.8,5,21.7-1
			c6.3-6.3,6.3-16.6,0-22.9s-16.6-6.3-22.9,0c-5.7,5.7-6.2,14.6-1.7,20.9L146.6,447.9v164.5c-2.7,0.7-5.2,2-7.3,4.1
			c-6.3,6.3-6.3,16.6,0,22.9C145.7,645.7,156,645.7,162.3,639.4z M265,322c3.1-3.1,8.1-3.1,11.2,0s3.1,8.1,0,11.2s-8.1,3.1-11.2,0
			C262,330.1,262,325.1,265,322z M145.3,622.3c3.1-3.1,8.1-3.1,11.2,0c3.1,3.1,3.1,8.1,0,11.2s-8.1,3.1-11.2,0
			C142.2,630.4,142.2,625.4,145.3,622.3z"/>
	</g>
	<g>
		<path class="st2" d="M-149.7,952.2c5.8-5.8,6.2-15,1.3-21.3l254.2-254.2c6.4,4.9,15.5,4.5,21.3-1.3c6.3-6.3,6.3-16.6,0-22.9
			s-16.6-6.3-22.9,0c-5.8,5.8-6.2,15-1.3,21.3L-151.3,928c-6.4-4.9-15.5-4.5-21.3,1.3c-6.3,6.3-6.3,16.6,0,22.9
			C-166.3,958.6-156,958.6-149.7,952.2z M110.1,658.4c3.1-3.1,8.1-3.1,11.2,0s3.1,8.1,0,11.2s-8.1,3.1-11.2,0
			C107,666.5,107,661.5,110.1,658.4z M-166.7,935.2c3.1-3.1,8.1-3.1,11.2,0c3.1,3.1,3.1,8.1,0,11.2s-8.1,3.1-11.2,0
			C-169.8,943.3-169.8,938.3-166.7,935.2z"/>
	</g>
	<g>
		<path class="st2" d="M-80.3,465.8c5.8,5.8,15,6.2,21.3,1.3L58.7,584.8c-4.9,6.4-4.5,15.5,1.3,21.3c6.3,6.3,16.6,6.3,22.9,0
			s6.3-16.6,0-22.9c-5.8-5.8-15-6.2-21.3-1.3L-56,464.2c4.9-6.4,4.5-15.5-1.3-21.3c-6.3-6.3-16.6-6.3-22.9,0
			C-86.6,449.2-86.6,459.5-80.3,465.8z M77.2,589.2c3.1,3.1,3.1,8.1,0,11.2s-8.1,3.1-11.2,0s-3.1-8.1,0-11.2S74.1,586.1,77.2,589.2z
			 M-63.2,448.8c3.1,3.1,3.1,8.1,0,11.2c-3.1,3.1-8.1,3.1-11.2,0s-3.1-8.1,0-11.2C-71.3,445.7-66.3,445.7-63.2,448.8z"/>
	</g>
	<g>
		<path class="st2" d="M-310.2,590.8c5.8-5.8,6.2-15,1.3-21.3L-72.4,333c6.4,4.9,15.5,4.5,21.3-1.3c6.3-6.3,6.3-16.6,0-22.9
			s-16.6-6.3-22.9,0c-5.8,5.8-6.2,15-1.3,21.3l-236.5,236.5c-6.4-4.9-15.5-4.5-21.3,1.3c-6.3,6.3-6.3,16.6,0,22.9
			S-316.6,597.2-310.2,590.8z M-68.2,314.7c3.1-3.1,8.1-3.1,11.2,0s3.1,8.1,0,11.2s-8.1,3.1-11.2,0
			C-71.2,322.7-71.2,317.7-68.2,314.7z M-327.3,573.8c3.1-3.1,8.1-3.1,11.2,0s3.1,8.1,0,11.2s-8.1,3.1-11.2,0
			S-330.4,576.9-327.3,573.8z"/>
	</g>
	<g>
		<path class="st2" d="M45.9,195.7c5.8-5.8,6.2-15,1.3-21.3L299.7-78.1c6.4,4.9,15.5,4.5,21.3-1.3c6.3-6.3,6.3-16.6,0-22.9
			s-16.6-6.3-22.9,0c-5.8,5.8-6.2,15-1.3,21.3L44.3,171.5c-6.4-4.9-15.5-4.5-21.3,1.3c-6.3,6.3-6.3,16.6,0,22.9
			C29.2,202,39.5,202,45.9,195.7z M304-96.5c3.1-3.1,8.1-3.1,11.2,0s3.1,8.1,0,11.2s-8.1,3.1-11.2,0S300.9-93.4,304-96.5z
			 M28.8,178.6c3.1-3.1,8.1-3.1,11.2,0s3.1,8.1,0,11.2s-8.1,3.1-11.2,0C25.7,186.7,25.7,181.7,28.8,178.6z"/>
	</g>
	<g>
		<path class="st2" d="M-69.3,276.2c2.7-2.7,4.1-6,4.6-9.5H95.2L273.6,88.3c6.4,5.7,16.2,5.6,22.3-0.6c6.3-6.3,6.3-16.6,0-22.9
			s-16.6-6.3-22.9,0c-5.5,5.5-6.2,14.1-2.1,20.4L93.5,262.6H-64.7c-0.5-3.4-1.9-6.7-4.5-9.3c-6.3-6.3-16.6-6.3-22.9,0
			s-6.3,16.6,0,22.9C-85.9,282.5-75.6,282.5-69.3,276.2z M278.8,70.7c3.1-3.1,8.1-3.1,11.2,0s3.1,8.1,0,11.2s-8.1,3.1-11.2,0
			C275.7,78.8,275.7,73.8,278.8,70.7z M-86.4,259.2c3.1-3.1,8.1-3.1,11.2,0c3.1,3.1,3.1,8.1,0,11.2c-3.1,3.1-8.1,3.1-11.2,0
			C-89.4,267.2-89.4,262.2-86.4,259.2z"/>
	</g>
	<g>
		<path class="st2" d="M212.1,106.1c5.8-5.8,6.2-15,1.3-21.3L349.8-51.6c6.4,4.9,15.5,4.5,21.3-1.3c6.3-6.3,6.3-16.6,0-22.9
			s-16.6-6.3-22.9,0c-5.8,5.8-6.2,15-1.3,21.3L210.5,81.9c-6.4-4.9-15.5-4.5-21.3,1.3c-6.3,6.3-6.3,16.6,0,22.9
			C195.5,112.4,205.8,112.4,212.1,106.1z M354.1-69.9c3.1-3.1,8.1-3.1,11.2,0s3.1,8.1,0,11.2s-8.1,3.1-11.2,0
			C351-61.9,351-66.9,354.1-69.9z M195.1,89.1c3.1-3.1,8.1-3.1,11.2,0c3.1,3.1,3.1,8.1,0,11.2s-8.1,3.1-11.2,0
			C192,97.1,192,92.1,195.1,89.1z"/>
	</g>
	<g>
		<path class="st2" d="M-38.9,577.5c6.3-6.3,6.3-16.6,0-22.9c-6.1-6.1-15.8-6.3-22.1-0.7l-87.6-87.6L10.8,306.9
			c6.3,4.6,15.3,4.1,21-1.6c6.3-6.3,6.3-16.6,0-22.9s-16.6-6.3-22.9,0c-5.9,5.9-6.2,15.3-1,21.6l-162.3,162.3l90.7,90.7
			c-4.2,6.3-3.6,14.9,2,20.5C-55.5,583.9-45.2,583.9-38.9,577.5z M14.7,288.2c3.1-3.1,8.1-3.1,11.2,0s3.1,8.1,0,11.2
			s-8.1,3.1-11.2,0C11.7,296.3,11.7,291.3,14.7,288.2z M-55.9,560.5c3.1-3.1,8.1-3.1,11.2,0s3.1,8.1,0,11.2s-8.1,3.1-11.2,0
			S-59,563.6-55.9,560.5z"/>
	</g>
	<path class="st2" d="M423.7-198.6c6.3-6.3,16.6-6.3,22.9,0c6.3,6.3,6.3,16.6,0,22.9s-16.6,6.3-22.9,0
		C417.4-182,417.4-192.3,423.7-198.6L423.7-198.6z M440.7-181.5c3.1-3.1,3.1-8.1,0-11.2c-3.1-3.1-8.1-3.1-11.2,0
		c-3.1,3.1-3.1,8.1,0,11.2C432.7-178.5,437.7-178.5,440.7-181.5L440.7-181.5z"/>
	<g>
		<path class="st2" d="M540.6-175.9c5.8-5.8,6.2-15,1.3-21.3l71.6-71.6c6.4,4.9,15.5,4.5,21.3-1.3c6.3-6.3,6.3-16.6,0-22.9
			s-16.6-6.3-22.9,0c-5.8,5.8-6.2,15-1.3,21.3L539-200.1c-6.4-4.9-15.5-4.5-21.3,1.3c-6.3,6.3-6.3,16.6,0,22.9
			C524-169.6,534.3-169.6,540.6-175.9z M617.8-287.2c3.1-3.1,8.1-3.1,11.2,0c3.1,3.1,3.1,8.1,0,11.2s-8.1,3.1-11.2,0
			C614.7-279.1,614.7-284.1,617.8-287.2z M523.5-193c3.1-3.1,8.1-3.1,11.2,0c3.1,3.1,3.1,8.1,0,11.1c-3.1,3.1-8.1,3.1-11.2,0
			C520.5-184.9,520.5-189.9,523.5-193z"/>
	</g>
	<path class="st2" d="M761.7-160.3c6.3-6.3,16.6-6.3,22.9,0c6.3,6.3,6.3,16.6,0,22.9c-6.3,6.3-16.6,6.3-22.9,0
		C755.4-143.7,755.4-154,761.7-160.3L761.7-160.3z M778.7-143.3c3.1-3.1,3.1-8.1,0-11.2s-8.1-3.1-11.2,0c-3.1,3.1-3.1,8.1,0,11.2
		C770.7-140.2,775.7-140.2,778.7-143.3L778.7-143.3z"/>
	<path class="st2" d="M8.5,393.3c6.3-6.3,16.6-6.3,22.9,0s6.3,16.6,0,22.9s-16.6,6.3-22.9,0S2.2,399.6,8.5,393.3L8.5,393.3z
		 M25.5,410.3c3.1-3.1,3.1-8.1,0-11.2s-8.1-3.1-11.2,0s-3.1,8.1,0,11.2C17.5,413.4,22.5,413.4,25.5,410.3L25.5,410.3z"/>
	<path class="st2" d="M140.4,290.2c6.3-6.3,16.6-6.3,22.9,0c6.3,6.3,6.3,16.6,0,22.9s-16.6,6.3-22.9,0
		C134.1,306.8,134.1,296.5,140.4,290.2L140.4,290.2z M157.4,307.3c3.1-3.1,3.1-8.1,0-11.2s-8.1-3.1-11.2,0c-3.1,3.1-3.1,8.1,0,11.2
		C149.4,310.3,154.4,310.3,157.4,307.3L157.4,307.3z"/>
	<path class="st2" d="M653.4-257.5c6.3-6.3,16.6-6.3,22.9,0c6.3,6.3,6.3,16.6,0,22.9c-6.3,6.3-16.6,6.3-22.9,0
		C647-240.9,647-251.2,653.4-257.5L653.4-257.5z M670.4-240.4c3.1-3.1,3.1-8.1,0-11.2s-8.1-3.1-11.2,0c-3.1,3.1-3.1,8.1,0,11.2
		C662.3-237.4,667.3-237.4,670.4-240.4L670.4-240.4z"/>
	<path class="st2" d="M617.4-222.2c6.3-6.3,16.6-6.3,22.9,0c6.3,6.3,6.3,16.6,0,22.9s-16.6,6.3-22.9,0
		C611.1-205.5,611.1-215.8,617.4-222.2L617.4-222.2z M634.5-205.1c3.1-3.1,3.1-8.1,0-11.2c-3.1-3.1-8.1-3.1-11.2,0
		c-3.1,3.1-3.1,8.1,0,11.2C626.4-202,631.4-202,634.5-205.1L634.5-205.1z"/>
	<g>
		<path class="st2" d="M202,474.8c5.8-5.8,6.2-15,1.3-21.3l71.6-71.6c6.4,4.9,15.5,4.5,21.3-1.3c6.3-6.3,6.3-16.6,0-22.9
			s-16.6-6.3-22.9,0c-5.8,5.8-6.2,15-1.3,21.3l-71.6,71.6c-6.4-4.9-15.5-4.5-21.3,1.3c-6.3,6.3-6.3,16.6,0,22.9
			C185.4,481.2,195.6,481.2,202,474.8z M279.1,363.6c3.1-3.1,8.1-3.1,11.2,0s3.1,8.1,0,11.2s-8.1,3.1-11.2,0
			C276.1,371.7,276.1,366.6,279.1,363.6z M184.9,457.8c3.1-3.1,8.1-3.1,11.2,0c3.1,3.1,3.1,8.1,0,11.2s-8.1,3.1-11.2,0
			S181.8,460.9,184.9,457.8z"/>
	</g>
	<g>
		<path class="st2" d="M385.1-143.5c5.8,5.8,15,6.2,21.3,1.3L478-70.6c-4.9,6.4-4.5,15.5,1.3,21.3c6.3,6.3,16.6,6.3,22.9,0
			c6.3-6.3,6.3-16.6,0-22.9c-5.8-5.8-15-6.2-21.3-1.3l-71.6-71.6c4.9-6.4,4.5-15.5-1.3-21.3c-6.3-6.3-16.6-6.3-22.9,0
			C378.8-160.1,378.8-149.9,385.1-143.5z M496.4-66.3c3.1,3.1,3.1,8.1,0,11.1c-3.1,3.1-8.1,3.1-11.2,0s-3.1-8.1,0-11.1
			C488.3-69.4,493.3-69.4,496.4-66.3z M402.2-160.6c3.1,3.1,3.1,8.1,0,11.2s-8.1,3.1-11.2,0c-3.1-3.1-3.1-8.1,0-11.2
			C394.1-163.6,399.1-163.6,402.2-160.6z"/>
	</g>
	<g>
		<path class="st2" d="M211,269.9c5.8-5.8,6.2-15,1.3-21.3L448.8,12.1c6.4,4.9,15.5,4.5,21.3-1.3c6.3-6.3,6.3-16.6,0-22.9
			s-16.6-6.3-22.9,0c-5.8,5.8-6.2,15-1.3,21.3L209.4,245.7c-6.4-4.9-15.5-4.5-21.3,1.3c-6.3,6.3-6.3,16.6,0,22.9
			C194.4,276.2,204.6,276.2,211,269.9z M453-6.3c3.1-3.1,8.1-3.1,11.2,0s3.1,8.1,0,11.2s-8.1,3.1-11.2,0C450,1.8,450-3.2,453-6.3z
			 M193.9,252.8c3.1-3.1,8.1-3.1,11.2,0c3.1,3.1,3.1,8.1,0,11.2s-8.1,3.1-11.2,0S190.8,255.9,193.9,252.8z"/>
	</g>
	<g>
		<path class="st2" d="M78.3,504.9c-5.8-5.8-15-6.2-21.3-1.3L-14.6,432c4.9-6.4,4.5-15.5-1.3-21.3c-6.3-6.3-16.6-6.3-22.9,0
			s-6.3,16.6,0,22.9c5.8,5.8,15,6.2,21.3,1.3l71.6,71.6c-4.9,6.4-4.5,15.5,1.3,21.3c6.3,6.3,16.6,6.3,22.9,0
			C84.6,521.5,84.6,511.2,78.3,504.9z M-33,427.7c-3.1-3.1-3.1-8.1,0-11.2s8.1-3.1,11.2,0s3.1,8.1,0,11.2
			C-24.9,430.8-29.9,430.8-33,427.7z M61.2,522c-3.1-3.1-3.1-8.1,0-11.2s8.1-3.1,11.2,0s3.1,8.1,0,11.2C69.3,525,64.3,525,61.2,522z
			"/>
	</g>
	<path class="st2" d="M52,437.4c6.3-6.3,16.6-6.3,22.9,0s6.3,16.6,0,22.9s-16.6,6.3-22.9,0C45.7,454.1,45.7,443.8,52,437.4L52,437.4
		z M69.1,454.5c3.1-3.1,3.1-8.1,0-11.2s-8.1-3.1-11.2,0s-3.1,8.1,0,11.2S66,457.6,69.1,454.5L69.1,454.5z"/>
	<g>
		<path class="st2" d="M174.2,816.8c5.8-5.8,6.2-15,1.3-21.3l254.2-254.2c6.4,4.9,15.5,4.5,21.3-1.3c6.3-6.3,6.3-16.6,0-22.9
			s-16.6-6.3-22.9,0c-5.8,5.8-6.2,15-1.3,21.3L172.6,792.6c-6.4-4.9-15.5-4.5-21.3,1.3c-6.3,6.3-6.3,16.6,0,22.9
			C157.6,823.1,167.9,823.1,174.2,816.8z M434,522.9c3.1-3.1,8.1-3.1,11.2,0s3.1,8.1,0,11.2s-8.1,3.1-11.2,0
			C430.9,531,430.9,526,434,522.9z M157.2,799.7c3.1-3.1,8.1-3.1,11.2,0c3.1,3.1,3.1,8.1,0,11.2c-3.1,3.1-8.1,3.1-11.2,0
			C154.1,807.8,154.1,802.8,157.2,799.7z"/>
	</g>
	<g>
		<path class="st2" d="M-145.5,663.9c-5.8-5.8-15-6.2-21.3-1.3l-71.6-71.6c4.9-6.4,4.5-15.5-1.3-21.3c-6.3-6.3-16.6-6.3-22.9,0
			s-6.3,16.6,0,22.9c5.8,5.8,15,6.2,21.3,1.3l71.6,71.6c-4.9,6.4-4.5,15.5,1.3,21.3c6.3,6.3,16.6,6.3,22.9,0
			S-139.2,670.2-145.5,663.9z M-256.8,586.7c-3.1-3.1-3.1-8.1,0-11.2c3.1-3.1,8.1-3.1,11.2,0s3.1,8.1,0,11.2
			C-248.7,589.8-253.7,589.8-256.8,586.7z M-162.5,681c-3.1-3.1-3.1-8.1,0-11.2s8.1-3.1,11.2,0s3.1,8.1,0,11.2
			C-154.5,684.1-159.5,684.1-162.5,681z"/>
	</g>
	<g>
		<path class="st2" d="M-107.2,625.6c-5.8-5.8-15-6.2-21.3-1.3l-71.6-71.6c4.9-6.4,4.5-15.5-1.3-21.3c-6.3-6.3-16.6-6.3-22.9,0
			s-6.3,16.6,0,22.9c5.8,5.8,15,6.2,21.3,1.3l71.6,71.6c-4.9,6.4-4.5,15.5,1.3,21.3c6.3,6.3,16.6,6.3,22.9,0
			C-100.9,642.3-100.9,632-107.2,625.6z M-218.5,548.5c-3.1-3.1-3.1-8.1,0-11.2s8.1-3.1,11.2,0s3.1,8.1,0,11.2
			C-210.4,551.5-215.4,551.5-218.5,548.5z M-124.3,642.7c-3.1-3.1-3.1-8.1,0-11.2s8.1-3.1,11.2,0s3.1,8.1,0,11.2
			C-116.2,645.8-121.2,645.8-124.3,642.7z"/>
	</g>
	<g>
		<path class="st2" d="M-71.9,590.3c-5.8-5.8-15-6.2-21.3-1.3l-71.6-71.6c4.9-6.4,4.5-15.5-1.3-21.3c-6.3-6.3-16.6-6.3-22.9,0
			s-6.3,16.6,0,22.9c5.8,5.8,15,6.2,21.3,1.3l71.6,71.6c-4.9,6.4-4.5,15.5,1.3,21.3c6.3,6.3,16.6,6.3,22.9,0S-65.6,596.6-71.9,590.3
			z M-183.2,513.1c-3.1-3.1-3.1-8.1,0-11.2s8.1-3.1,11.2,0s3.1,8.1,0,11.2S-180.1,516.2-183.2,513.1z M-88.9,607.4
			c-3.1-3.1-3.1-8.1,0-11.2s8.1-3.1,11.2,0c3.1,3.1,3.1,8.1,0,11.2C-80.8,610.4-85.9,610.4-88.9,607.4z"/>
	</g>
	<g>
		<path class="st2" d="M894.6-299c-5.8,5.8-6.2,15-1.3,21.3l-71.6,71.6c-6.4-4.9-15.5-4.5-21.3,1.3c-6.3,6.3-6.3,16.6,0,22.9
			c6.3,6.3,16.6,6.3,22.9,0c5.8-5.8,6.2-15,1.3-21.3l71.6-71.6c6.3,4.9,15.5,4.5,21.3-1.3c6.3-6.3,6.3-16.6,0-22.9
			S900.9-305.3,894.6-299z M817.4-187.7c-3.1,3.1-8.1,3.1-11.2,0c-3.1-3.1-3.1-8.1,0-11.2c3.1-3.1,8.1-3.1,11.2,0
			C820.5-195.8,820.5-190.8,817.4-187.7z M911.6-281.9c-3.1,3.1-8.1,3.1-11.2,0c-3.1-3.1-3.1-8.1,0-11.2s8.1-3.1,11.2,0
			S914.7-285,911.6-281.9z"/>
	</g>
	<g>
		<path class="st2" d="M946.3-21.5c5.8-5.8,6.2-15,1.3-21.3l264-264c6.4,4.9,15.5,4.5,21.3-1.3c6.3-6.3,6.3-16.6,0-22.9
			s-16.6-6.3-22.9,0c-5.8,5.8-6.2,15-1.3,21.3l-264,264c-6.4-4.9-15.5-4.5-21.3,1.3c-6.3,6.3-6.3,16.6,0,22.9
			C929.7-15.2,940-15.2,946.3-21.5z M1215.9-325.2c3.1-3.1,8.1-3.1,11.2,0c3.1,3.1,3.1,8.1,0,11.2s-8.1,3.1-11.2,0
			S1212.8-322.1,1215.9-325.2z M929.3-38.5c3.1-3.1,8.1-3.1,11.2,0c3.1,3.1,3.1,8.1,0,11.2s-8.1,3.1-11.2,0
			C926.2-30.5,926.2-35.5,929.3-38.5z"/>
	</g>
	<g>
		<path class="st2" d="M845.7,114.8c0-8.2-6.2-15-14.1-16V-2.4c8-1,14.1-7.8,14.1-16c0-8.9-7.3-16.2-16.2-16.2s-16.2,7.3-16.2,16.2
			c0,8.2,6.2,15,14.1,16V98.9c-7.9,1-14.1,7.8-14.1,16c0,8.9,7.3,16.2,16.2,16.2C838.4,131,845.7,123.8,845.7,114.8z M821.6-18.4
			c0-4.4,3.5-7.9,7.9-7.9c4.3,0,7.9,3.5,7.9,7.9s-3.5,7.9-7.9,7.9S821.6-14.1,821.6-18.4z M821.6,114.8c0-4.4,3.5-7.9,7.9-7.9
			s7.9,3.5,7.9,7.9s-3.5,7.9-7.9,7.9C825.1,122.7,821.6,119.2,821.6,114.8z"/>
	</g>
	<g>
		<path class="st2" d="M1027.8-179.5c5.8-5.8,6.2-15,1.3-21.3l136.4-136.4c6.3,4.9,15.5,4.5,21.3-1.3c6.3-6.3,6.3-16.6,0-22.9
			c-6.3-6.3-16.6-6.3-22.9,0c-5.8,5.8-6.2,15-1.3,21.3l-136.4,136.4c-6.4-4.9-15.5-4.5-21.3,1.3c-6.3,6.3-6.3,16.6,0,22.9
			S1021.4-173.2,1027.8-179.5z M1169.7-355.6c3.1-3.1,8.1-3.1,11.2,0s3.1,8.1,0,11.2c-3.1,3.1-8.1,3.1-11.2,0
			C1166.7-347.5,1166.7-352.5,1169.7-355.6z M1010.7-196.6c3.1-3.1,8.1-3.1,11.2,0c3.1,3.1,3.1,8.1,0,11.2c-3.1,3.1-8.1,3.1-11.2,0
			C1007.6-188.5,1007.6-193.5,1010.7-196.6z"/>
	</g>
	<g>
		<path class="st2" d="M891-49.3c5.8-5.8,6.2-15,1.3-21.3l71.6-71.6c6.4,4.9,15.5,4.5,21.3-1.3c6.3-6.3,6.3-16.6,0-22.9
			c-6.3-6.3-16.6-6.3-22.9,0c-5.8,5.8-6.2,15-1.3,21.3l-71.6,71.6c-6.3-4.9-15.5-4.5-21.3,1.3c-6.3,6.3-6.3,16.6,0,22.9
			C874.4-43,884.7-43,891-49.3z M968.2-160.6c3.1-3.1,8.1-3.1,11.2,0c3.1,3.1,3.1,8.1,0,11.2s-8.1,3.1-11.2,0
			C965.1-152.5,965.1-157.5,968.2-160.6z M874-66.3c3.1-3.1,8.1-3.1,11.2,0c3.1,3.1,3.1,8.1,0,11.1c-3.1,3.1-8.1,3.1-11.2,0
			C870.9-58.3,870.9-63.3,874-66.3z"/>
	</g>
	<g>
		<path class="st2" d="M-58,1100l524.1-524.1c6.4,5.6,16,5.4,22.1-0.7c6.3-6.3,6.3-16.6,0-22.9s-16.6-6.3-22.9,0
			c-5.6,5.6-6.2,14.2-2,20.5l-523,523h-301v4.2H-58L-58,1100z M471.2,558.2c3.1-3.1,8.1-3.1,11.2,0s3.1,8.1,0,11.2s-8.1,3.1-11.2,0
			C468.1,566.3,468.1,561.3,471.2,558.2z"/>
	</g>
	<g>
		<path class="st2" d="M-96.2,1014.6l524.1-524.1c6.4,5.5,16,5.4,22.1-0.7c6.3-6.3,6.3-16.6,0-22.9s-16.6-6.3-22.9,0
			c-5.6,5.6-6.2,14.2-2,20.5l-523,523h-262.7v4.2L-96.2,1014.6L-96.2,1014.6z M432.9,472.8c3.1-3.1,8.1-3.1,11.2,0s3.1,8.1,0,11.2
			s-8.1,3.1-11.2,0S429.8,475.9,432.9,472.8z"/>
	</g>
	<g>
		<path class="st2" d="M-230.4,943c1,8,7.8,14.1,16,14.1c8.9,0,16.2-7.3,16.2-16.2c0-8.9-7.3-16.2-16.2-16.2c-8.2,0-15,6.2-16,14.1
			h-130.3v4.2H-230.4L-230.4,943z M-214.4,933c4.4,0,7.9,3.5,7.9,7.9s-3.5,7.9-7.9,7.9c-4.3,0-7.9-3.5-7.9-7.9
			C-222.2,936.5-218.7,933-214.4,933z"/>
	</g>
	<g>
		<path class="st2" d="M-157.3,885.8l264-264V458.4L528,37.1c6.4,5.5,16,5.3,22.1-0.7c6.3-6.3,6.3-16.6,0-22.9s-16.6-6.3-22.9,0
			c-5.6,5.6-6.2,14.2-1.9,20.6L102.7,456.8v163.4l-261.6,261.6h-201.6v4.2h203.2V885.8z M533,19.3c3.1-3.1,8.1-3.1,11.2,0
			c3.1,3.1,3.1,8.1,0,11.2s-8.1,3.1-11.2,0C529.9,27.4,529.9,22.4,533,19.3z"/>
	</g>
	<g>
		<path class="st2" d="M-358.9,866.1c2.9-2.9,4.4-6.7,4.6-10.5H-167L39.4,649.2c6.2,3.8,14.4,3,19.8-2.4c6.3-6.3,6.3-16.6,0-22.9
			s-16.6-6.3-22.9,0s-6.3,16.4-0.2,22.7l-204.8,204.8h-185.8c-0.6-3-2.1-5.9-4.4-8.3c-0.6-0.6-1.2-1-1.8-1.5v25.9
			C-360.1,867.1-359.4,866.7-358.9,866.1z M42.2,629.8c3.1-3.1,8.1-3.1,11.2,0s3.1,8.1,0,11.2s-8.1,3.1-11.2,0
			C39.2,637.9,39.2,632.9,42.2,629.8z"/>
	</g>
	<g>
		<path class="st2" d="M-215.7,812.9c1,8,7.8,14.1,16,14.1c8.9,0,16.2-7.3,16.2-16.2c0-8.9-7.3-16.2-16.2-16.2
			c-8.2,0-15,6.2-16,14.1h-145v4.2L-215.7,812.9L-215.7,812.9z M-199.7,803c4.4,0,7.9,3.5,7.9,7.9c0,4.3-3.5,7.9-7.9,7.9
			s-7.9-3.5-7.9-7.9S-204,803-199.7,803z"/>
	</g>
	<g>
		<path class="st2" d="M-360.1,771.7h194.7L22.2,584.1L-105.9,456L10.4,339.7l79.5,79.5L525-15.9c6.3,4.8,15.4,4.4,21.2-1.4
			c6.3-6.3,6.3-16.6,0-22.9s-16.6-6.3-22.9,0c-5.9,5.9-6.2,15.1-1.2,21.4L90,413.3l-79.5-79.5L-111.8,456L16.3,584.1l-183.4,183.4
			h-193.2c-0.1-0.4-0.2-0.7-0.3-1.1v8.8C-360.4,774-360.1,772.9-360.1,771.7z M529.1-34.3c3.1-3.1,8.1-3.1,11.2,0
			c3.1,3.1,3.1,8.1,0,11.2s-8.1,3.1-11.2,0C526-26.2,526-31.2,529.1-34.3z"/>
	</g>
	<g>
		<path class="st2" d="M-195.1,733.4c1,8,7.8,14.1,16,14.1c8.9,0,16.2-7.3,16.2-16.2s-7.3-16.2-16.2-16.2c-8.2,0-15,6.2-16,14.1
			h-165.6v4.2L-195.1,733.4L-195.1,733.4z M-179.1,723.4c4.3,0,7.9,3.5,7.9,7.9c0,4.3-3.5,7.9-7.9,7.9s-7.9-3.5-7.9-7.9
			C-186.9,727-183.4,723.4-179.1,723.4z"/>
	</g>
	<g>
		<path class="st2" d="M-233.3,695.1c1,8,7.8,14.1,16,14.1c8.9,0,16.2-7.3,16.2-16.2s-7.3-16.2-16.2-16.2c-8.2,0-15,6.2-16,14.1
			h-127.3v4.2L-233.3,695.1L-233.3,695.1z M-217.3,685.2c4.4,0,7.9,3.5,7.9,7.9c0,4.3-3.5,7.9-7.9,7.9s-7.9-3.5-7.9-7.9
			S-221.7,685.2-217.3,685.2z"/>
	</g>
	<g>
		<path class="st2" d="M463.3,454.8c6.1,6.1,15.7,6.2,22.1,0.7l96.9,96.9l282.5-282.6V141.7l469-469l-92.8-92.8l70.6-70.6h-5.9
			l-70.6,70.6l92.8,92.8L860.6,140v128.1L582.2,546.5l-94.1-94.1c4.3-6.3,3.6-15-2-20.5c-6.3-6.3-16.6-6.3-22.9,0
			C457,438.2,457,448.5,463.3,454.8z M469.2,437.8c3.1-3.1,8.1-3.1,11.2,0s3.1,8.1,0,11.2s-8.1,3.1-11.2,0S466.1,440.9,469.2,437.8z
			"/>
	</g>
	<g>
		<path class="st2" d="M548.7,393c6.3,6.3,16.6,6.3,22.9,0c6.3-6.3,6.3-16.5,0.1-22.8l218.1-218.1V-51l439.6-439.6h-5.9L785.7-52.8
			v203.2L568.5,367.6c-6.2-3.7-14.4-2.9-19.7,2.4C542.4,376.4,542.4,386.7,548.7,393z M554.6,376c3.1-3.1,8.1-3.1,11.2,0
			c3.1,3.1,3.1,8.1,0,11.2s-8.1,3.1-11.2,0C551.5,384,551.5,379,554.6,376z"/>
	</g>
	<g>
		<path class="st2" d="M940.5-324.3c6.3,6.3,16.6,6.3,22.9,0c5.8-5.8,6.2-15,1.3-21.3l145-145h-5.9l-142,142
			c-6.4-4.9-15.5-4.5-21.3,1.3C934.2-340.9,934.2-330.6,940.5-324.3z M946.4-341.3c3.1-3.1,8.1-3.1,11.2,0c3.1,3.1,3.1,8.1,0,11.2
			s-8.1,3.1-11.2,0C943.4-333.3,943.4-338.3,946.4-341.3z"/>
	</g>
	<g>
		<path class="st2" d="M332.8,420.5c6.3,6.3,16.6,6.3,22.9,0c5.8-5.8,6.2-14.8,1.4-21.2l334-334V-129l361.5-361.5h-5.9L687-130.8
			V63.5L354.2,396.3c-6.4-5-15.6-4.6-21.4,1.2C326.4,403.9,326.4,414.2,332.8,420.5z M338.7,403.4c3.1-3.1,8.1-3.1,11.2,0
			s3.1,8.1,0,11.2s-8.1,3.1-11.2,0S335.6,406.5,338.7,403.4z"/>
	</g>
	<g>
		<path class="st2" d="M698.9-279.3c6.3,6.3,16.6,6.3,22.9,0c6.1-6.1,6.3-15.9,0.5-22.3l79.5-79.5h106l109.5-109.5h-5.9L906-385.2
			H800l-80.9,80.9c-6.3-4.1-14.8-3.4-20.4,2.1C692.6-296,692.6-285.7,698.9-279.3z M704.8-296.4c3.1-3.1,8.1-3.1,11.2,0
			c3.1,3.1,3.1,8.1,0,11.2c-3.1,3.1-8.1,3.1-11.2,0C701.7-288.3,701.7-293.3,704.8-296.4z"/>
	</g>
	<g>
		<path class="st2" d="M890.5-421.5c6.3,6.3,16.6,6.3,22.9,0c5.8-5.8,6.2-15,1.3-21.3l47.8-47.8h-5.9l-44.9,44.9
			c-6.4-4.9-15.5-4.5-21.3,1.3C884.2-438.1,884.2-427.8,890.5-421.5z M896.4-438.5c3.1-3.1,8.1-3.1,11.2,0c3.1,3.1,3.1,8.1,0,11.2
			c-3.1,3.1-8.1,3.1-11.2,0C893.3-430.4,893.3-435.4,896.4-438.5z"/>
	</g>
	<g>
		<path class="st2" d="M460.5-216.8c6.3,6.3,16.6,6.3,22.9,0c5.8-5.8,6.2-15,1.3-21.3l252.5-252.5h-5.9L481.8-241
			c-6.4-4.9-15.5-4.5-21.3,1.3C454.1-233.4,454.1-223.1,460.5-216.8z M466.3-233.8c3.1-3.1,8.1-3.1,11.2,0c3.1,3.1,3.1,8.1,0,11.2
			c-3.1,3.1-8.1,3.1-11.2,0C463.3-225.8,463.3-230.8,466.3-233.8z"/>
		<path class="st2" d="M756-490.6h-14.4C746.1-488.3,751.4-488.3,756-490.6z"/>
	</g>
	<g>
		<path class="st2" d="M81.5,326.3c6.3,6.3,16.6,6.3,22.9,0c5.6-5.6,6.2-14.3,1.9-20.6L457.9-45.9l-106-106l338.6-338.6h-5.9
			L346-152L452-46L103.4,302.6c-6.4-5.5-16-5.3-22,0.8C75.2,309.7,75.2,319.9,81.5,326.3z M87.4,309.2c3.1-3.1,8.1-3.1,11.2,0
			s3.1,8.1,0,11.2s-8.1,3.1-11.2,0C84.3,317.3,84.3,312.3,87.4,309.2z"/>
		<path class="st2" d="M847.5-472.1c-4.6,6.3-4.1,15.3,1.6,21c6.3,6.3,16.6,6.3,22.9,0c6.3-6.3,6.3-16.6,0-22.9
			c-5.9-5.9-15.3-6.2-21.6-1.1l-15.5-15.5H829L847.5-472.1z M855-468.2c3.1-3.1,8.1-3.1,11.2,0c3.1,3.1,3.1,8.1,0,11.2
			c-3.1,3.1-8.1,3.1-11.2,0C851.9-460.1,851.9-465.1,855-468.2z"/>
	</g>
</g>
<g class="st3">
	<path class="st4" d="M597.9,187.8C112.5,258,81.8,333,81.8,333c-10.4,48.9-7.1,144-6.5,159.4c0.1,1.4,0.1,2.1,0.1,2.1
		c5.8,33.1,105.1,50.9,105.1,50.9c-101.6-25.3-97.2-54.3-97.2-54.3c3.3-55.4,488-109.2,488-109.2c0-1.5,0.1-4.2,0.1-4.2
		C575.7,254.4,597.9,187.8,597.9,187.8z"/>
	<path class="st4" d="M571.5,377.6c0,0-323.4,34.6-439.2,74.1c0,0-60.7,21.1-56.9,42.8"/>
	<path class="st4" d="M180.5,545.5"/>
	<line class="st4" x1="180.5" y1="545.5" x2="230.8" y2="541.1"/>
	<path class="st4" d="M597.9,187.8c0,0,219.9-35,481.5,0c0,0,190.1,28.9,209.3,76c0,0,6,28.7,7.3,45c0,0-0.2-39.4-188.3-68.3
		c0,0-228.8-44.6-521.3-4.7"/>
	<path class="st4" d="M1296,308.8c0,0,16.1,214.4-141.2,360.6c0,0-37.1,20.4-72.7-2.4c-35.6-22.8-61.3-36.2-61.3-36.2
		s-32.1,26.3-66,25.7c0,0-267.4-32.9-347.4-111c0,0-31.2-37.7-36-163.6"/>
	<line class="st4" x1="747.5" y1="174.3" x2="747.4" y2="221.2"/>
	<path class="st4" d="M132,298c0,0-9.5,80.9,0.3,153.7"/>
	<path class="st4" d="M268.6,433.8c0,0,0.2,2.6,0,6.2c20.6-5,45.8-10.1,76.7-15c0,0,182-27.4,226.1-26.8v-7.3
		C571.4,390.8,396.5,404.4,268.6,433.8z"/>
	<path class="st4" d="M268.6,433.8l-31.3-1.2c0,0,3.1,26.4-11.7,30.4c-14.8,4.1-76.3,16-76.3,16s-4.6-3.7-4.5-23.2l-12.5-4.1"/>
	<path class="st4" d="M176.2,484.4l-26.9-5.4c-3.7,3.2-6.6,6.4-8.6,9.7c0,0-20.5,27.4,84.7,51.6c0,0,17.4,7.7,20.1-24.8
		C245.5,515.5,174.9,501.7,176.2,484.4z"/>
	<path class="st4" d="M373.8,420.8c0,0,155.5,22.2,201.8,20.7"/>
	<path class="st4" d="M190.7,481.7c0,0,32.9,46.6,413.8,59.4"/>
	<path class="st4" d="M245.5,515.5c0,0,173.3,40.7,361.9,29.9"/>
	<path class="st4" d="M268.6,440c0,0,2.6,23.3-14,27.4s-78.4,17-78.4,17"/>
	<path class="st4" d="M367.8,536.1c0,0,3,22.2,23.7,25.6s193.4,6.1,243.3,4.8"/>
	<path class="st4" d="M352.2,534.1c0,0-0.1,32.1,25,36s246,4.5,272.3,4.9"/>
	<path class="st4" d="M1287,295.7c0,0,35,220-165.4,382.1"/>
	<path class="st4" d="M1296,346c0,0-15.2-23.8-20.2-6.5c-4.9,17.2-12.2,55.6,11.5,80"/>
	<path class="st4" d="M1158.8,619.9c0,0,15.9-18.3,37.3-85.4l3.6,3.3c0,0-15.7,48.9-27.3,73.2
		C1169.9,616.2,1164.7,619.7,1158.8,619.9L1158.8,619.9z"/>
	<path class="st4" d="M1196.4,602.4c33.6-67.9,35.9-105.7,35.9-105.7s-20.1,64.5-47.5,101.6s-24.2,44.4-24.2,44.4
		s-1.2,28.1-30.5,28.1s-34.2,1.5-45.9-8.6c0,0,11-32-4.7-50.8c0,0-24.2-11.9-53.2,5.9s-46.2,36.5-82.1,32.3
		c-35.9-4.2-206.1-36.8-292.8-79.6c0,0-43.7-20.5-53.5-41.7"/>
	<path class="st4" d="M1156.5,624.1h4c0,0-2.6,9.1-2,14.7c0.6,5.5-5.5,6.4-5.5,6.4S1150.8,626.6,1156.5,624.1z"/>
	<line class="st4" x1="556" y1="214.3" x2="531.6" y2="217.3"/>
	<line class="st4" x1="531.6" y1="217.3" x2="531.6" y2="242.9"/>
	<line class="st4" x1="543.8" y1="215.8" x2="543.8" y2="227.7"/>
	<line class="st4" x1="542.9" y1="231" x2="531.6" y2="232.3"/>
	<line class="st4" x1="546.4" y1="231" x2="556" y2="230.1"/>
	<line class="st4" x1="546.4" y1="231" x2="546.4" y2="241.6"/>
</g>
<path class="st5" d="M253.6,744.8l-17.5-65l-65.2,17.4l-9.7,17l-19.6-0.1L94,761.7l47.7,47.6h0l19.6-0.1l9.7,17l65.2,17.4l17.5-65
	l-9.9-16.8L253.6,744.8z M212.7,704.2l-28.6,49.4h-57.3l36-36.7L212.7,704.2z M184.1,769.7l28.6,49.4l-49.9-12.8l-36-36.7H184.1z
	 M198.1,761.7l28.6-49.4l13.8,49.4l-13.8,49.4L198.1,761.7z"/>
<path id="path5" class="st5" d="M359.7,696.9c27.6-4.2,55.3-8.2,83-12.1c0,24.3,0,48.5,0,72.8c-27.7,0.1-55.4,0.5-83,0.6
	C359.7,737.8,359.7,717.3,359.7,696.9L359.7,696.9z"/>
<path id="path7" class="st5" d="M289.5,706.7c20.8-3.2,41.7-6,62.6-8.6c0,20.1,0,40.2,0,60.4c-20.9,0-41.8,0.3-62.7,0.2V706.7
	L289.5,706.7z"/>
<path id="path29" class="st5" d="M289.5,765c20.9-0.1,41.7,0.3,62.6,0.2c0,20.2,0.1,40.4,0,60.5c-20.8-3.1-41.7-5.8-62.6-8.6V765z"
	/>
<path id="path31" class="st5" d="M359.6,765.9c27.7,0,55.4,0,83.2,0c0,24.2,0,48.4,0,72.6c-27.6-4.1-55.3-8-83-11.7
	C359.7,806.4,359.6,786.2,359.6,765.9z"/>
</svg>
